<svg id="Capa_1" enable-background="new 0 0 512 512" height="512" viewBox="0 0 512 512" width="512" xmlns="http://www.w3.org/2000/svg"><g><g><path d="m30 196v260c0 11.05 8.95 20 20 20h412c11.05 0 20-8.95 20-20v-260z" fill="#ff7d97"/><path d="m336 56c0 11.05-8.95 20-20 20h-120c-11.05 0-20-8.95-20-20s8.95-20 20-20h120c11.05 0 20 8.95 20 20z" fill="#ff7d97"/><path d="m462 116h-412c-22.09 0-40 17.91-40 40v40h492v-40c0-22.09-17.91-40-40-40z" fill="#8690a6"/><path d="m416 216c0 11.05-8.95 20-20 20s-20-8.95-20-20c0-5.264 0-44.868 0-60h40z" fill="#fff2a0"/><circle cx="256" cy="336" fill="#a0e5a5" r="40"/><path d="m136 216c0 11.05-8.95 20-20 20s-20-8.95-20-20c0-5.264 0-44.868 0-60h40z" fill="#fff2a0"/></g><g><circle cx="256" cy="336" r="10"/><path d="m462 106h-76v-30c0-16.542-13.458-30-30-30h-11.72c-4.128-11.639-15.243-20-28.28-20h-120c-13.036 0-24.152 8.361-28.28 20h-11.72c-16.542 0-30 13.458-30 30v30h-76c-27.57 0-50 22.43-50 50v40c0 5.523 4.477 10 10 10h10v250c0 16.542 13.458 30 30 30h161c5.523 0 10-4.477 10-10s-4.477-10-10-10h-161c-5.514 0-10-4.486-10-10v-250h46v10c0 16.542 13.458 30 30 30s30-13.458 30-30v-10h220v10c0 16.542 13.458 30 30 30s30-13.458 30-30v-10h46v250c0 5.514-4.486 10-10 10h-161c-5.523 0-10 4.477-10 10s4.477 10 10 10h161c16.542 0 30-13.458 30-30v-250h10c5.523 0 10-4.477 10-10v-40c0-27.57-22.43-50-50-50zm-266-60h120c5.514 0 10 4.486 10 10s-4.486 10-10 10h-120c-5.514 0-10-4.486-10-10s4.486-10 10-10zm-50 30c0-5.514 4.486-10 10-10h11.72c4.128 11.639 15.243 20 28.28 20h120c13.036 0 24.152-8.361 28.28-20h11.72c5.514 0 10 4.486 10 10v30h-220zm-20 140c0 5.514-4.486 10-10 10s-10-4.486-10-10v-50h20zm280 0c0 5.514-4.486 10-10 10s-10-4.486-10-10v-50h20zm86-30h-66v-30c0-5.523-4.477-10-10-10h-40c-5.523 0-10 4.477-10 10v30h-220v-30c0-5.523-4.477-10-10-10h-40c-5.523 0-10 4.477-10 10v30h-66v-30c0-16.542 13.458-30 30-30h412c16.542 0 30 13.458 30 30z"/><path d="m236 406c-5.523 0-10 4.477-10 10s4.477 10 10 10h40c5.523 0 10-4.477 10-10s-4.477-10-10-10h-10v-21.023c10.587-2.176 20.236-7.748 27.416-15.832l18.204 10.513-5.001 8.661c-2.762 4.783-1.123 10.898 3.66 13.66 4.762 2.749 10.887 1.144 13.66-3.66 7.16-12.402 12.84-22.238 20-34.64 2.762-4.783 1.123-10.898-3.66-13.66-4.781-2.761-10.898-1.123-13.66 3.66l-4.999 8.658-18.197-10.509c1.694-5.082 2.577-10.43 2.577-15.828s-.883-10.746-2.577-15.829l18.197-10.509 4.999 8.658c2.775 4.806 8.9 6.408 13.66 3.66 4.783-2.762 6.422-8.877 3.66-13.66-7.16-12.402-12.84-22.238-20-34.64-2.762-4.784-8.877-6.422-13.66-3.66s-6.422 8.877-3.66 13.66l5.001 8.661-18.204 10.514c-7.18-8.084-16.829-13.655-27.416-15.832v-21.023h10c5.523 0 10-4.477 10-10s-4.477-10-10-10h-40c-5.523 0-10 4.477-10 10s4.477 10 10 10h10v21.023c-10.587 2.176-20.236 7.748-27.416 15.832l-18.204-10.513 5.001-8.661c2.762-4.783 1.123-10.898-3.66-13.66-4.781-2.76-10.898-1.123-13.66 3.66-7.16 12.402-12.84 22.238-20 34.64-2.762 4.783-1.123 10.898 3.66 13.66 4.762 2.749 10.887 1.144 13.66-3.66l4.999-8.658 18.197 10.509c-1.694 5.082-2.577 10.43-2.577 15.828s.883 10.746 2.577 15.829l-18.197 10.509-4.999-8.658c-2.762-4.783-8.877-6.422-13.66-3.66s-6.422 8.877-3.66 13.66c7.16 12.402 12.84 22.238 20 34.64 2.775 4.806 8.9 6.408 13.66 3.66 4.783-2.762 6.422-8.877 3.66-13.66l-5.001-8.661 18.204-10.514c7.18 8.084 16.829 13.655 27.416 15.832v21.023zm-10-70c0-16.643 13.55-30 30-30 16.407 0 30 13.315 30 30 0 16.643-13.55 30-30 30-16.437 0-30-13.344-30-30z"/><circle cx="256" cy="476" r="10"/></g></g></svg>