<svg id="Capa_1" enable-background="new 0 0 512.001 512.001" height="512" viewBox="0 0 512.001 512.001" width="512" xmlns="http://www.w3.org/2000/svg"><g><g><path d="m482.001 397.281c12.27 10.98 20 26.95 20 44.72 0 33.14-26.86 60-60 60s-60-26.86-60-60c0-17.77 7.73-33.74 20-44.72v-221.28c0-22.09 17.91-40 40-40s40 17.91 40 40z" fill="#eefaff"/><path d="m216.001 453.961v48.04h-166v-86c22.09 0 40-17.91 40-40 0-6.791 0-69.231 0-80 0-11.05 8.95-20 20-20s20 8.95 20 20v-60c22.09 0 40-17.91 40-40h86c4.74 0 9.36-.55 13.78-1.59 16.5 22.97 26.22 51.15 26.22 81.59v20l40 60-40 20v80h-60c-6.86 0-13.55-.7-20-2.04z" fill="#fce8d0"/><circle cx="442.001" cy="442.001" fill="#ff7d97" r="20"/><path d="m150.001 136.001h166c0 33.243-26.96 60-60 60h-86c0 22.09-17.91 40-40 40v60c0-11.05-8.95-20-20-20s-20 8.95-20 20v80c0 22.09-17.91 40-40 40v-42.02c-24.74-25.25-40-59.83-40-97.98 0-77.32 62.68-140 140-140z" fill="#fff2a0"/><g fill="#91def5"><path d="m256.001 276.001c0 11.05-8.95 20-20 20s-20-8.95-20-20 20-40 20-40 20 28.95 20 40z"/><path d="m216.001 356.001c0 11.05-8.95 20-20 20s-20-8.95-20-20 20-40 20-40 20 28.95 20 40z"/></g></g><g><path d="m236.001 226.001c-3.285 0-6.36 1.613-8.228 4.316-6.546 9.476-21.772 32.896-21.772 45.684 0 16.542 13.458 30 30 30s30-13.458 30-30c0-12.788-15.227-36.208-21.772-45.684-1.868-2.703-4.943-4.316-8.228-4.316zm0 60c-5.514 0-10-4.486-10-9.989.081-3.057 4.241-11.773 10.002-21.479 5.756 9.695 9.913 18.407 9.998 21.475-.004 5.512-4.489 9.993-10 9.993z"/><path d="m196.001 306.001c-3.285 0-6.36 1.613-8.228 4.316-6.546 9.476-21.772 32.896-21.772 45.684 0 16.542 13.458 30 30 30s30-13.458 30-30c0-12.788-15.226-36.208-21.772-45.684-1.868-2.703-4.943-4.316-8.228-4.316zm0 60c-5.514 0-10-4.486-10-9.989.081-3.057 4.241-11.773 10.002-21.479 5.756 9.695 9.913 18.407 9.998 21.475-.004 5.512-4.489 9.993-10 9.993z"/><path d="m100.955 99.032c4.576 3.05 10.791 1.839 13.867-2.776 3.063-4.596 1.82-10.804-2.776-13.867-3.969-2.646-6.247-6.899-6.248-11.671-.001-4.777 2.278-9.037 6.248-11.686 9.491-6.325 15.157-17.045 15.157-28.676s-5.666-22.352-15.157-28.676c-4.595-3.063-10.804-1.819-13.867 2.776-3.063 4.596-1.82 10.804 2.776 13.867 3.971 2.646 6.248 7.032 6.248 12.034s-2.277 9.387-6.252 12.036c-9.491 6.332-15.156 16.923-15.153 28.331.003 11.403 5.669 21.986 15.157 28.308z"/><path d="m150.955 99.032c4.576 3.05 10.791 1.839 13.867-2.776 3.063-4.596 1.82-10.804-2.776-13.867-3.969-2.646-6.247-6.899-6.248-11.671-.001-4.777 2.278-9.037 6.248-11.686 9.491-6.325 15.157-17.045 15.157-28.676s-5.666-22.352-15.157-28.676c-4.595-3.063-10.804-1.819-13.867 2.776-3.063 4.596-1.82 10.804 2.776 13.867 3.971 2.646 6.248 7.032 6.248 12.034s-2.277 9.387-6.252 12.036c-9.491 6.332-15.156 16.923-15.153 28.331.003 11.403 5.669 21.986 15.157 28.308z"/><path d="m200.955 99.032c4.576 3.05 10.791 1.839 13.867-2.776 3.063-4.596 1.82-10.804-2.776-13.867-3.969-2.646-6.247-6.899-6.248-11.671-.001-4.777 2.278-9.037 6.248-11.686 9.491-6.325 15.157-17.045 15.157-28.676s-5.666-22.352-15.157-28.676c-4.596-3.063-10.804-1.819-13.867 2.776-3.063 4.596-1.82 10.804 2.776 13.867 3.971 2.646 6.248 7.032 6.248 12.034s-2.277 9.387-6.252 12.036c-9.491 6.332-15.156 16.923-15.153 28.331.003 11.403 5.669 21.986 15.157 28.308z"/><path d="m40.001 502.001c0 5.523 4.477 10 10 10h166c5.523 0 10-4.477 10-10v-36.466c3.317.304 6.655.466 10 .466h60c5.522 0 10-4.477 10-10v-73.82l34.472-17.236c2.566-1.283 4.457-3.605 5.193-6.377s.246-5.728-1.345-8.114l-38.32-57.481v-16.972c0-27.147-7.175-53.278-20.848-76.327 24.593-11.177 40.848-35.72 40.848-63.673 0-5.523-4.478-10-10-10h-166c-82.71 0-150 67.29-150 150 0 38.106 14.174 74.159 40 101.983v124.017zm247.679-200.453 33.716 50.575-29.867 14.934c-3.389 1.694-5.528 5.157-5.528 8.944v70h-50c-28.787 0-54.789-13.805-71.59-36.047-5.743-7.602-18.41-3.589-18.41 6.047 0 3.262 1.562 6.16 3.979 7.985 14.474 18.31 34.084 31.482 56.021 37.782v30.233h-146v-67.006c22.795-4.646 40-24.847 40-48.994v-20.027c8.363 6.292 18.753 10.027 30 10.027 5.523 0 10-4.477 10-10s-4.477-10-10-10c-16.542 0-30-13.458-30-30v-20c0-5.514 4.486-10 10-10s10 4.486 10 10c0 5.523 4.477 10 10 10s10-4.477 10-10v-51.004c19.561-3.987 35.008-19.435 38.996-38.996h77.004c3.07 0 6.131-.207 9.158-.603 13.646 21.029 20.842 45.302 20.842 70.603v20c0 1.974.584 3.904 1.679 5.547zm-267.679-25.547c0-71.682 58.318-130 130-130.01h155.01c-4.747 23.633-25.447 40.01-49.01 40.01h-86c-5.523 0-10 4.477-10 10 0 16.542-13.458 30-30 30-5.523 0-10 4.477-10 10v31.713c-3.129-1.109-6.496-1.713-10-1.713-16.542 0-30 13.458-30 30v80c0 13.036-8.361 24.152-20 28.28v-30.3c0-2.617-1.026-5.129-2.857-6.999-23.953-24.445-37.143-56.756-37.143-90.981z"/><path d="m442.001 512.001c38.598 0 70-31.402 70-70 0-18.347-7.236-35.951-20-48.987v-217.013c0-27.57-22.43-50-50-50s-50 22.43-50 50v217.013c-12.764 13.036-20 30.64-20 48.987 0 38.598 31.402 70 70 70zm-33.332-107.268c2.119-1.897 3.331-4.607 3.331-7.452v-221.28c0-16.542 13.458-30 30-30s30 13.458 30 30v221.28c0 2.845 1.212 5.555 3.331 7.452 10.594 9.48 16.669 23.064 16.669 37.269 0 27.57-22.43 50-50 50s-50-22.43-50-50c.001-14.206 6.076-27.79 16.669-37.269z"/><path d="m442.001 472.001c16.542 0 30-13.458 30-30 0-13.036-8.361-24.152-20-28.28v-72.72c0-5.523-4.478-10-10-10s-10 4.477-10 10v72.72c-11.639 4.128-20 15.243-20 28.28 0 16.542 13.458 30 30 30zm0-40c5.514 0 10 4.486 10 10s-4.486 10-10 10-10-4.486-10-10 4.486-10 10-10z"/><circle cx="442.001" cy="296.001" r="10"/><path d="m442.001 261.001c5.522 0 10-4.477 10-10v-75c0-5.523-4.478-10-10-10s-10 4.477-10 10v75c0 5.523 4.477 10 10 10z"/></g></g></svg>