<svg id="Capa_1" enable-background="new 0 0 512 512" height="512" viewBox="0 0 512 512" width="512" xmlns="http://www.w3.org/2000/svg"><g><g><path d="m250 325.71v156.29c0 11.05-8.95 20-20 20h-200c-11.05 0-20-8.95-20-20v-166c0-62.95 29.64-128.23 80-166h80c22.09 0 40 17.91 40 40v46c7.34 7.34 40 36.87 40 89.71z" fill="#99ebfa"/><path d="m482 96c-11.05 0-20 8.95-20 20v60h-66v-20c0-11.05-8.95-20-20-20s-20 8.95-20 20v200c0 11.05 8.95 20 20 20s20-8.95 20-20v-140h66v60c0 11.05 8.95 20 20 20h20v-200z" fill="#fff2a0"/><path d="m270 10v40l-40 8v-48z" fill="#575f64"/><g fill="#eefaff"><path d="m190 336v40h-40v40h-40v-40h-40v-40h40v-40h40v40z"/><path d="m50 10c-22.09 0-40 17.91-40 40v20h40c22.09 0 40 17.91 40 40v40h80c0-9.679 0-70.257 0-80l60-12v-48z"/></g></g><g><circle cx="350" cy="10" r="10"/><circle cx="350" cy="50" r="10"/><circle cx="350" cy="90" r="10"/><circle cx="310" cy="30" r="10"/><circle cx="310" cy="70" r="10"/><path d="m160 416v-30h30c5.522 0 10-4.477 10-10v-40c0-5.523-4.478-10-10-10h-30v-30c0-5.523-4.478-10-10-10h-40c-5.522 0-10 4.477-10 10v30h-30c-5.522 0-10 4.477-10 10v40c0 5.523 4.478 10 10 10h30v30c0 5.523 4.478 10 10 10h40c5.522 0 10-4.477 10-10zm-20-40v30h-20v-30c0-5.523-4.478-10-10-10h-30v-20h30c5.522 0 10-4.477 10-10v-30h20v30c0 5.523 4.478 10 10 10h30v20h-30c-5.522 0-10 4.477-10 10z"/><path d="m502 0c-5.522 0-10 4.477-10 10v76h-10c-16.542 0-30 13.458-30 30v50h-46v-10c0-16.542-13.458-30-30-30s-30 13.458-30 30v200c0 16.542 13.458 30 30 30s30-13.458 30-30v-130h46v50c0 16.542 13.458 30 30 30h10v196c0 5.523 4.478 10 10 10s10-4.477 10-10v-492c0-5.523-4.478-10-10-10zm-116 356c0 5.514-4.486 10-10 10s-10-4.486-10-10v-200c0-5.514 4.486-10 10-10s10 4.486 10 10zm20-150v-20h46v20zm76 80c-5.514 0-10-4.486-10-10v-160c0-5.514 4.486-10 10-10h10v180z"/><circle cx="130" cy="502" r="10"/><path d="m30 512h55c5.522 0 10-4.477 10-10s-4.478-10-10-10h-55c-5.514 0-10-4.486-10-10v-166c0-60.202 28.733-121.024 73.426-156h76.574c16.542 0 30 13.458 30 30v46c0 4.197 2.238 6.397 4.17 8.297 8.862 8.711 35.83 35.218 35.83 81.413v156.29c0 5.514-4.486 10-10 10h-55c-5.522 0-10 4.477-10 10s4.478 10 10 10h55c16.542 0 30-13.458 30-30v-156.29c0-34.192-12.647-66.632-40-93.888v-41.822c0-24.146-17.205-44.348-40-48.994v-31.949c16.677 19.993 40.04 30.943 67.66 30.943 5.522 0 10-4.477 10-10s-4.478-10-10-10c-36.718 0-55.07-23.299-63.966-42.541 11.281-2.256 79.364-15.873 88.266-17.654 4.676-.934 8.04-5.038 8.04-9.805v-40c0-5.523-4.478-10-10-10h-220c-27.57 0-50 22.43-50 50v20c0 5.523 4.478 10 10 10h40c16.542 0 30 13.458 30 30v35.105c-23.895 18.978-43.862 44.512-57.921 74.169-14.444 30.469-22.079 63.916-22.079 96.726v166c0 16.542 13.458 30 30 30zm70-392h60v20h-60zm160-78.198-20 4v-25.802h20zm-210 18.198h-30v-10c0-16.542 13.458-30 30-30h170v29.802l-51.961 10.392c-4.653.917-7.701 4.217-8.039 9.973v.044 29.789h-61.006c-4.646-22.795-24.848-40-48.994-40z"/></g></g></svg>