<svg id="Capa_1" enable-background="new 0 0 512.002 512.002" height="512" viewBox="0 0 512.002 512.002" width="512" xmlns="http://www.w3.org/2000/svg"><g><g><circle cx="90.002" cy="135.996" fill="#a0e5a5" r="40"/><path d="m396.002 341.996c11.05 0 20 8.95 20 20s-8.95 20-20 20v80h-40v-80h-140v-40z" fill="#99ebfa"/><path d="m404.812 52.426-42.42 42.43-28.29-28.29 42.43-42.42z" fill="#eefaff"/><path d="m376.532 108.996-27 27h-113.14l83.57-83.57c.917.917 52.615 52.631 56.57 56.57z" fill="#99ebfa"/><path d="m276.002 215.996h40v60h-40z" fill="#99ebfa"/><path d="m462.002 461.996h-6v-226c0-55.23-44.77-100-100-100-2.686 0-113.152 0-119.61 0l-.39.39v39.61h20v40h80v-40c22.09 0 40 17.91 40 40v126h20c11.05 0 20 8.95 20 20s-8.95 20-20 20v80c-31.45 0-68.003 0-100 0v-40h-40v40h-40c-22.09 0-40 17.91-40 40h326c0-22.09-17.91-40-40-40z" fill="#eefaff"/></g><g><circle cx="90.002" cy="135.996" r="10"/><path d="m216.002 391.996h130v60h-40v-30c0-5.523-4.478-10-10-10h-40c-5.522 0-10 4.477-10 10v30h-30c-27.57 0-50 22.43-50 50 0 5.523 4.478 10 10 10h118c5.522 0 10-4.477 10-10s-4.478-10-10-10h-106.286c4.127-11.641 15.249-20 28.286-20h246c13.037 0 24.159 8.359 28.286 20h-106.286c-5.522 0-10 4.477-10 10s4.478 10 10 10h118c5.522 0 10-4.477 10-10 0-26.222-20.295-47.779-46-49.826v-216.174c0-55.067-40.674-100.81-93.557-108.77l11.158-11.158c3.903-3.904 3.904-10.238 0-14.143l-7.07-7.07 28.279-28.286 7.068 7.068c3.905 3.904 10.237 3.906 14.143 0 3.905-3.905 3.905-10.237 0-14.142-.715-.715-49.501-49.492-56.573-56.563-3.905-3.903-10.238-3.901-14.142.005-3.904 3.907-3.902 10.238.005 14.142l7.073 7.068-28.285 28.278-7.069-7.07c-3.905-3.904-10.237-3.905-14.143 0l-82.146 82.146c-2.843 1.763-4.743 4.903-4.743 8.495v40c0 5.523 4.478 10 10 10h10v30c0 5.523 4.478 10 10 10h10v50c0 5.523 4.478 10 10 10h40c5.522 0 10-4.477 10-10v-50h10c5.522 0 10-4.477 10-10v-28.28c11.639 4.128 20 15.243 20 28.28v116h-150c-5.522 0-10 4.477-10 10v40c.002 5.523 4.479 10 10.002 10zm50 40h20v20h-20zm110.529-393.709 14.139 14.14-28.283 28.29-14.145-14.148zm-56.569 28.281c1.502 1.502 33.82 33.82 42.428 42.428l-17 17h-84.856zm-13.96 199.428h-20v-40h20zm-40-60v-20h60v20zm70-40h-90v-20h110c49.626 0 90 40.374 90 90v216h-40v-61.713c11.641-4.127 20-15.249 20-28.287 0-16.542-13.458-30-30-30h-10v-116c0-27.57-22.43-50-50-50zm-110 186h170c5.514 0 10 4.486 10 10s-4.486 10-10 10c-5.522 0-10 4.477-10 10v70h-20v-70c0-5.523-4.478-10-10-10h-130z"/><path d="m18.662 153.676c-2.762-4.783-8.878-6.422-13.66-3.66-4.783 2.762-6.422 8.877-3.66 13.66l20 34.64c2.775 4.806 8.9 6.409 13.66 3.66 4.783-2.762 6.422-8.877 3.66-13.66l-4.956-8.584 18.823-10.65c7.186 8.117 16.859 13.709 27.472 15.891v21.023h-10c-5.522 0-10 4.477-10 10s4.478 10 10 10h40c5.522 0 10-4.477 10-10s-4.478-10-10-10h-10v-21.023c10.587-2.176 20.236-7.748 27.416-15.832l18.204 10.514-5 8.661c-2.762 4.783-1.123 10.898 3.66 13.66 4.767 2.751 10.889 1.139 13.66-3.66l20-34.64c2.762-4.783 1.123-10.898-3.66-13.66-4.784-2.762-10.898-1.123-13.66 3.66l-4.999 8.658-18.197-10.51c1.693-5.083 2.576-10.431 2.576-15.829s-.883-10.746-2.576-15.829l18.197-10.51 4.999 8.658c2.775 4.806 8.9 6.409 13.66 3.66 4.783-2.762 6.422-8.877 3.66-13.66l-20-34.64c-2.761-4.783-8.877-6.422-13.66-3.66s-6.422 8.877-3.66 13.66l5 8.661-18.204 10.514c-7.18-8.084-16.829-13.656-27.417-15.832v-21.021h10c5.522 0 10-4.477 10-10s-4.478-10-10-10h-40c-5.522 0-10 4.477-10 10s4.478 10 10 10h10v21.023c-10.612 2.181-20.285 7.774-27.471 15.891l-18.823-10.65 4.956-8.584c2.762-4.783 1.123-10.898-3.66-13.66-4.784-2.762-10.898-1.123-13.66 3.66l-20 34.64c-2.762 4.783-1.123 10.898 3.66 13.66 4.767 2.751 10.889 1.139 13.66-3.66l5.043-8.735 18.849 10.664c-1.676 5.06-2.552 10.38-2.552 15.751s.876 10.691 2.552 15.751l-18.849 10.664zm71.34-47.68c16.434 0 30 13.342 30 30 0 16.638-13.547 30-30 30-16.438 0-30-13.347-30-30 0-16.638 13.547-30 30-30z"/><path d="m150.002 431.996h66c5.522 0 10-4.477 10-10s-4.478-10-10-10h-66c-27.57 0-50-22.43-50-50v-81.858l22.929 22.929c3.906 3.905 10.236 3.905 14.143 0 3.905-3.905 3.905-10.237 0-14.143l-40-40c-3.906-3.905-10.236-3.905-14.143 0l-40 40c-3.905 3.905-3.905 10.237 0 14.143 3.906 3.905 10.236 3.905 14.143 0l22.929-22.929v81.858c-.001 38.598 31.401 70 69.999 70z"/><circle cx="339.002" cy="501.996" r="10"/></g></g></svg>