<svg id="Capa_1" enable-background="new 0 0 512 512" height="512" viewBox="0 0 512 512" width="512" xmlns="http://www.w3.org/2000/svg"><g><g><path d="m196 10c-99.41 0-186 100-186 100 .205.128 89.817 100 186 100 99.41 0 186-100 186-100s-86.59-100-186-100z" fill="#eefaff"/><circle cx="196" cy="110" fill="#99ebfa" r="60"/><path d="m442 296c-28.664 0-52.224 20.02-58.39 46.13l-47.61 13.87 47.61 13.87c6.282 26.577 30.165 46.13 58.39 46.13 33.138 0 60-26.859 60-60 0-33.138-26.859-60-60-60z" fill="#ff7d97"/><path d="m176 276c0-11.05 8.95-20 20-20s20 8.95 20 20c0-11.05 8.95-20 20-20s20 8.95 20 20v20c0-11.05 8.95-20 20-20s20 8.95 20 20v60c0 32.72-15.71 61.76-40 80.01v65.99h-100v-54.32c-35.32-15.43-60-50.67-60-91.68 0-12.011 0-70.198 0-80 22.09 0 40 17.91 40 40 0-14.42 0-132.534 0-146 0-11.158 9.073-20 20-20 11.137 0 20 9.044 20 20z" fill="#fce8d0"/><circle cx="196" cy="110" fill="#575f64" r="20"/></g><g><path d="m196 140c16.542 0 30-13.458 30-30s-13.458-30-30-30-30 13.458-30 30 13.458 30 30 30zm0-40c5.514 0 10 4.486 10 10s-4.486 10-10 10-10-4.486-10-10 4.486-10 10-10z"/><path d="m442 286c-31.946 0-57.617 21.092-66.499 48.077l-42.298 12.322c-4.268 1.244-7.203 5.155-7.203 9.601s2.935 8.357 7.203 9.601l42.299 12.323c8.97 27.242 34.761 48.076 66.498 48.076 38.668 0 70-31.327 70-70 0-38.668-31.327-70-70-70zm41.722 97.58-27.578-27.578 27.577-27.58c5.385 8.114 8.279 17.625 8.279 27.578 0 9.955-2.895 19.468-8.278 27.58zm-14.142-69.302-27.578 27.582-27.577-27.577c8.107-5.387 17.617-8.283 27.575-8.283 9.955 0 19.468 2.895 27.58 8.278zm-97.828 41.722 14.654-4.269c3.458-1.008 6.107-3.797 6.936-7.303 1.352-5.723 3.711-11.131 6.942-16.001l27.576 27.576-27.566 27.57c-3.231-4.876-5.6-10.281-6.952-16.003-.829-3.505-3.478-6.293-6.935-7.301zm42.674 41.726 27.577-27.58 27.576 27.576c-8.114 5.384-17.625 8.278-27.579 8.278-9.956 0-19.466-2.891-27.574-8.274z"/><circle cx="299.001" cy="178.001" r="10"/><path d="m2.44 103.454c-3.305 3.816-3.247 9.498.136 13.246 2.285 2.532 55.166 60.56 123.424 88.57v70.758c-8.363-6.293-18.753-10.028-30-10.028-5.523 0-10 4.477-10 10v80c0 41.524 23.341 79.298 60 98.007v47.993c0 5.523 4.477 10 10 10h100c5.523 0 10-4.477 10-10v-61.137c25.485-20.99 40-51.64 40-84.863v-60c0-16.542-13.458-30-30-30-3.904 0-7.633.758-11.057 2.121-3.47-12.731-15.128-22.121-28.943-22.121-7.678 0-14.688 2.902-20 7.663-5.312-4.761-12.322-7.663-20-7.663-3.506 0-6.87.61-10 1.72v-28.043c3.353.209 6.694.323 10 .323 21.263 0 43.506-4.336 66.112-12.889 5.166-1.954 7.769-7.726 5.814-12.892-1.955-5.165-7.725-7.77-12.892-5.814-20.336 7.694-40.198 11.595-59.034 11.595-3.3 0-6.643-.129-10-.367v-20.354c3.295.471 6.632.721 10 .721 38.598 0 70-31.402 70-70s-31.402-70-70-70-70 31.402-70 70c0 13.25 3.729 26.067 10.657 37.122-6.556 5.577-10.657 13.879-10.657 22.878v13.469c-47.639-21.625-87.31-58.601-102.232-73.583 21.135-21.856 93.281-89.886 172.232-89.886 79.111 0 151.389 68.306 172.358 90.016-7.262 7.552-20.688 20.717-38.444 34.667-4.343 3.412-5.098 9.698-1.686 14.041 3.411 4.343 9.697 5.097 14.042 1.686 28.785-22.616 46.548-43.007 47.29-43.864 3.254-3.757 3.254-9.334 0-13.092-43.742-50.545-122.191-103.454-193.56-103.454-72.17 0-150.65 53.871-193.56 103.454zm193.56 162.546c5.514 0 10 4.486 10 10v40c0 5.523 4.477 10 10 10s10-4.477 10-10v-40c0-5.514 4.486-10 10-10s10 4.486 10 10v40c0 5.523 4.477 10 10 10s10-4.477 10-10v-20c0-5.514 4.486-10 10-10s10 4.486 10 10v60c0 28.574-13.124 54.822-36.007 72.015-2.514 1.889-3.993 4.85-3.993 7.995v55.99h-80v-44.32c0-3.975-2.354-7.572-5.997-9.164-32.805-14.331-54.003-46.721-54.003-82.516v-68.287c11.641 4.127 20 15.249 20 28.287v40c0 5.523 4.477 10 10 10s10-4.477 10-10v-186c0-5.44 4.453-10 10-10 5.591 0 10 4.54 10 10v146c0 5.523 4.477 10 10 10s10-4.477 10-10v-40c0-5.514 4.486-10 10-10zm0-206c27.57 0 50 22.43 50 50s-22.43 50-50 50c-4.186 0-8.303-.518-12.296-1.526-4.547-11.001-15.344-18.471-27.698-18.474-6.48-8.624-10.006-19.108-10.006-30 0-27.57 22.43-50 50-50z"/></g></g></svg>