<svg id="Capa_1" enable-background="new 0 0 512 512" height="512" viewBox="0 0 512 512" width="512" xmlns="http://www.w3.org/2000/svg"><g><g><path d="m256 116c-77.32 0-140 62.68-140 140v206l280 .71v-206.71c0-77.32-62.68-140-140-140z" fill="#eefaff"/><g fill="#a0e5a5"><circle cx="256" cy="256" r="40"/><path d="m386 462c-8.03 0-15.75 1.35-22.93 3.85-19.8-26.01-60.31-43.85-107.07-43.85-49.22 0-91.51 19.75-110.02 48.01-8.82-5.09-19.06-8.01-29.98-8.01-26.12 0-48.35 16.7-56.59 40h389.85c-11.4-24.014-35.736-40-63.26-40z"/></g></g><g><circle cx="256" cy="256" r="10"/><circle cx="216" cy="379" r="10"/><circle cx="176" cy="379" r="10"/><path d="m185.38 273.68c-2.762-4.784-8.878-6.422-13.66-3.66-4.783 2.762-6.422 8.877-3.66 13.66 7.16 12.402 12.84 22.238 20 34.64 2.775 4.806 8.9 6.408 13.66 3.66 4.783-2.762 6.422-8.877 3.66-13.66l-5.001-8.661 18.204-10.514c7.18 8.084 16.829 13.655 27.416 15.832v21.023h-10c-5.523 0-10 4.477-10 10s4.477 10 10 10h40c5.523 0 10-4.477 10-10s-4.477-10-10-10h-10v-21.023c10.587-2.176 20.236-7.748 27.416-15.832l18.204 10.513-5.001 8.661c-2.762 4.783-1.123 10.898 3.66 13.66 4.762 2.749 10.887 1.144 13.66-3.66 7.16-12.402 12.84-22.238 20-34.64 2.762-4.783 1.123-10.898-3.66-13.66-4.782-2.76-10.899-1.123-13.66 3.66l-4.999 8.658-18.197-10.509c1.695-5.082 2.578-10.43 2.578-15.828s-.883-10.746-2.577-15.829l18.197-10.509 4.999 8.658c2.775 4.806 8.9 6.408 13.66 3.66 4.783-2.762 6.422-8.877 3.66-13.66-7.16-12.402-12.84-22.238-20-34.64-2.762-4.783-8.878-6.423-13.66-3.66-4.783 2.762-6.422 8.877-3.66 13.66l5.001 8.661-18.204 10.514c-7.18-8.084-16.829-13.655-27.416-15.832v-21.023h10c5.523 0 10-4.477 10-10s-4.477-10-10-10h-40c-5.523 0-10 4.477-10 10s4.477 10 10 10h10v21.023c-10.587 2.176-20.236 7.748-27.416 15.832l-18.204-10.513 5.001-8.661c2.762-4.783 1.123-10.898-3.66-13.66-4.781-2.761-10.898-1.123-13.66 3.66-7.16 12.402-12.84 22.238-20 34.64-2.762 4.783-1.123 10.898 3.66 13.66 4.762 2.749 10.887 1.144 13.66-3.66l4.999-8.658 18.197 10.509c-1.694 5.082-2.577 10.43-2.577 15.828s.883 10.746 2.577 15.829l-18.197 10.509zm70.62-47.68c16.407 0 30 13.315 30 30 0 16.58-13.493 30-30 30-16.407 0-30-13.315-30-30 0-16.67 13.579-30 30-30z"/><path d="m336 369h-80c-5.523 0-10 4.477-10 10s4.477 10 10 10h80c5.523 0 10-4.477 10-10s-4.477-10-10-10z"/><circle cx="216" cy="502" r="10"/><path d="m10 512h161c5.523 0 10-4.477 10-10s-4.477-10-10-10h-95.003c9.286-12.345 24.012-20 40.003-20 8.781 0 17.419 2.307 24.981 6.671 4.595 2.651 10.458 1.255 13.364-3.182 17.304-26.419 57.206-43.489 101.655-43.489 36.065 0 69.989 11.688 90.458 30.486-12.27 7.011-22.598 17.229-29.719 29.514h-55.739c-5.523 0-10 4.477-10 10s4.477 10 10 10h241c5.523 0 10-4.477 10-10s-4.477-10-10-10h-46.713c-10.772-18.684-28.51-32.139-49.287-37.47v-198.53c0-79.349-61.935-144.494-140-149.659v-46.341h30c5.523 0 10-4.477 10-10s-4.477-10-10-10h-30v-30c0-5.523-4.477-10-10-10s-10 4.477-10 10v30h-30c-5.523 0-10 4.477-10 10s4.477 10 10 10h30v46.341c-78.065 5.165-140 70.31-140 149.659v196.731c-23.099 3.342-43.195 18.089-53.252 39.269h-42.748c-5.523 0-10 4.477-10 10s4.477 10 10 10zm420.749-20h-89.433c11.073-12.34 26.974-20 44.684-20 17.223 0 33.413 7.291 44.749 20zm-174.749-366c71.682 0 130 58.318 130 130v196c-6.609 0-13.12.807-19.431 2.387-23.508-26.296-65.088-42.387-110.569-42.387-47.082 0-90.294 17.565-113.107 45.359-5.408-2.246-11.088-3.798-16.893-4.635v-196.724c0-71.682 58.318-130 130-130z"/></g></g></svg>