<svg id="Capa_1" enable-background="new 0 0 512.12 512.12" height="512" viewBox="0 0 512.12 512.12" width="512" xmlns="http://www.w3.org/2000/svg"><g><g><circle cx="130" cy="382.06" fill="#a0e5a5" r="80"/><path d="m382.99 45.06-28.29 28.28 14.14 14.14c-7.071 7.071-84.693 84.693-84.85 84.85l56.57 56.57 84.85-84.85 14.14 14.14 28.29-28.28c-4.712-4.712-80.132-80.132-84.85-84.85z" fill="#eefaff"/><path d="m283.99 172.33c-.159.159-56.41 56.41-56.57 56.57l14.14 14.15-14.14 14.14c-7.81 7.81-7.81 20.47 0 28.28s20.48 7.81 28.29 0l14.14-14.14 14.14 14.14 56.57-56.57z" fill="#ff7d97"/><g fill="#fff2a0"><path d="m242 90.06-106 126 20-80h-60l106-126-20 80z"/><circle cx="110" cy="382.06" r="20"/></g></g><g><circle cx="170" cy="382.06" r="10"/><circle cx="150" cy="422.06" r="10"/><path d="m110 352.06c-16.542 0-30 13.458-30 30s13.458 30 30 30 30-13.458 30-30-13.458-30-30-30zm0 40c-5.514 0-10-4.486-10-10s4.486-10 10-10 10 4.486 10 10-4.486 10-10 10z"/><path d="m452.621 2.989c-3.906-3.905-10.236-3.905-14.143 0-3.905 3.905-3.905 10.237 0 14.143l21.27 21.269-34.389 34.886-35.298-35.298c-3.904-3.903-10.234-3.905-14.141-.001l-28.29 28.28c-3.905 3.903-3.906 10.238-.002 14.143l7.069 7.069-134.347 134.348c-3.905 3.904-3.907 10.234-.004 14.141l7.076 7.076-7.074 7.074c-9.231 9.231-11.17 23.029-5.83 34.186l-27.649 28.008c-13.444-11.012-29.591-17.798-46.87-19.691v-20.562h10c5.523 0 10-4.477 10-10s-4.477-10-10-10h-40c-5.523 0-10 4.477-10 10s4.477 10 10 10h10v20.566c-16.951 1.864-32.853 8.45-46.168 19.124l-14.54-14.54 7.069-7.069c3.905-3.905 3.905-10.237 0-14.143-3.905-3.905-10.237-3.905-14.143 0l-28.28 28.28c-3.905 3.905-3.905 10.237 0 14.143 3.905 3.905 10.237 3.905 14.143 0l7.069-7.069 14.54 14.54c-10.673 13.313-17.26 29.216-19.123 46.168h-20.566v-10c0-5.523-4.477-10-10-10s-10 4.477-10 10v40c0 5.523 4.477 10 10 10s10-4.477 10-10v-10h20.566c1.864 16.951 8.45 32.853 19.124 46.168l-14.54 14.54-7.069-7.069c-3.905-3.905-10.237-3.905-14.143 0-3.905 3.905-3.905 10.237 0 14.143l28.28 28.28c3.905 3.905 10.237 3.905 14.143 0 3.905-3.905 3.905-10.237 0-14.143l-7.069-7.069 14.54-14.54c13.313 10.673 29.216 17.26 46.168 19.124v20.566h-10c-5.523 0-10 4.477-10 10s4.477 10 10 10h40c5.523 0 10-4.477 10-10s-4.477-10-10-10h-10v-20.566c16.951-1.864 32.853-8.45 46.168-19.124l14.54 14.54-7.069 7.069c-3.905 3.905-3.905 10.237 0 14.143 3.905 3.905 10.237 3.905 14.143 0l28.28-28.28c3.905-3.905 3.905-10.237 0-14.143-3.905-3.905-10.237-3.905-14.143 0l-7.069 7.069-14.54-14.54c10.673-13.313 17.26-29.216 19.123-46.168h20.567v10c0 5.523 4.478 10 10 10s10-4.477 10-10v-40c0-5.523-4.478-10-10-10s-10 4.477-10 10v10h-20.569c-1.834-16.637-8.225-32.293-18.562-45.461l27.805-28.166c10.974 5.227 24.758 3.456 34.107-5.893l7.069-7.069 7.069 7.069c3.906 3.905 10.236 3.905 14.143 0l134.348-134.347 7.068 7.068c3.906 3.904 10.235 3.906 14.141.001l28.29-28.28c3.905-3.903 3.906-10.238.002-14.143l-35.409-35.41 34.389-34.886 21.158 21.158c3.906 3.905 10.236 3.905 14.143 0 3.905-3.905 3.905-10.237 0-14.142-16.927-16.926-38.305-38.304-56.571-56.57zm-252.621 379.071c0 38.652-31.325 70-70 70-38.652 0-70-31.324-70-70 0-38.652 31.325-70 70-70 15.702 0 30.559 5.122 42.743 14.563l-9.4 9.522c-3.88 3.931-3.839 10.262.092 14.142 3.924 3.874 10.256 3.845 14.142-.092l9.108-9.226c8.643 11.881 13.315 26.15 13.315 41.091zm48.639-103.66c-3.908 3.907-10.24 3.908-14.147 0-3.898-3.897-3.898-10.24 0-14.138l7.074-7.074 14.143 14.143zm35.351-7.072c-15.235-15.233-26.577-26.573-42.43-42.424l14.145-14.146 21.213 21.213c3.906 3.905 10.236 3.905 14.143 0 3.905-3.905 3.905-10.237 0-14.142l-21.213-21.213 14.143-14.143 42.427 42.427zm56.57-56.57-42.427-42.428 14.139-14.139 21.219 21.211c3.904 3.904 10.237 3.904 14.142-.002 3.904-3.906 3.903-10.238-.003-14.142l-21.216-21.208 14.142-14.142 21.214 21.214c3.906 3.905 10.236 3.905 14.143 0 3.905-3.905 3.905-10.237 0-14.143l-21.214-21.214 14.143-14.143 42.428 42.428zm98.991-70.708c-8.656-8.656-63.098-63.099-70.707-70.708l14.146-14.141 70.707 70.708z"/><circle cx="193" cy="148.061" r="10"/><path d="m215.64 121.395c4.226 3.556 10.535 3.011 14.09-1.215l19.923-23.682c5.457-6.489.837-16.438-7.653-16.438h-47.192l16.894-67.575c1.129-4.516-1.008-9.214-5.153-11.331-4.146-2.117-9.204-1.094-12.201 2.468l-106 126c-2.503 2.976-3.055 7.133-1.414 10.658s5.177 5.78 9.066 5.78h47.192l-16.894 67.575c-1.129 4.516 1.008 9.214 5.153 11.331 4.189 2.139 9.235 1.057 12.201-2.468l28.164-33.478c3.555-4.226 3.012-10.534-1.215-14.09-4.226-3.556-10.535-3.011-14.09 1.215l-.32.38 9.51-38.04c.747-2.987.076-6.152-1.82-8.58-1.895-2.427-4.802-3.846-7.882-3.846h-38.52l64.328-76.465-9.51 38.04c-1.578 6.313 3.205 12.425 9.702 12.425h38.52l-6.095 7.245c-3.554 4.227-3.01 10.535 1.216 14.091z"/></g></g></svg>