<svg id="Capa_1" enable-background="new 0 0 512 512" height="512" viewBox="0 0 512 512" width="512" xmlns="http://www.w3.org/2000/svg"><g><g><path d="m464.28 320.91-30.56-9.82c-22.78-9.12-37.72-31.18-37.72-55.71v-99.51c0-77.23-60.37-145.87-140-145.87-77.32 0-140 62.68-140 140v105.38c0 24.53-14.94 46.59-37.72 55.71l-30.56 9.82c-22.78 9.12-37.72 31.18-37.72 55.71v125.38h492v-125.38c0-24.53-14.94-46.59-37.72-55.71z" fill="#eefaff"/><path d="m335.32 119.49c-5.15-39.22-38.7-69.49-79.32-69.49s-74.17 30.27-79.32 69.49l-20.68 40.51v116h200v-116z" fill="#fce8d0"/><path d="m336 402h100v40h-100z" fill="#ff7d97"/><path d="m356 160c0 27.61-22.39 50-50 50-13.488 0-26.079-5.373-35.36-14.64-8.06-8.07-20.64-9.02-28.52-.79-12.186 12.739-30.539 18.601-49.44 13.71-20.306-5.245-36.68-24.104-36.68-48.28 0-27.616 22.379-50 50-50h97.15c27.588 0 52.85 20.891 52.85 50z" fill="#99ebfa"/><circle cx="336" cy="276" fill="#eefaff" r="20"/><path d="m316 304.84c0 40.53-120 39.76-120 0 0-4.949 0-39.472 0-43.99 0-15.91 6.32-37.17 17.57-48.42l3.71-3.71c9.65-2.22 18.23-7.24 24.84-14.15 7.88-8.23 20.46-7.28 28.52.79 6.51 6.5 14.8 11.22 24.08 13.36l3.71 3.71c10.73 10.73 16.98 30.58 17.53 63.57.064 3.39.031 4.636.04 28.84z" fill="#a0e5a5"/><path d="m236 382v120h40c0-12.697 0-107.529 0-120z" fill="#91def5"/><circle cx="176" cy="276" fill="#eefaff" r="20"/><path d="m176 402v40h-20v20h-40v-20h-20v-40h20v-20h40v20z" fill="#ff7d97"/></g><g><path d="m210.857 336.526c12.244 5.432 28.43 8.423 45.574 8.423 34.628 0 69.568-12.402 69.568-40.11v-.56c3.13 1.11 6.494 1.72 10 1.72 16.542 0 30-13.458 30-30v-115.999c0-17.927-8.023-33.838-21.249-44.933-7.194-43.01-44.791-75.067-88.75-75.067-43.626 0-81.001 31.567-88.599 74.084-13.466 11.351-21.401 28.202-21.401 45.916v116c0 16.542 13.458 30 30 30 3.506 0 6.87-.61 10-1.72v.56c0 7.716 3.229 22.092 24.857 31.686zm-44.857-131.576c6.875 6.122 15.149 10.68 24.175 13.011 2.09.541 4.18.97 6.269 1.297-4.827 9.044-7.906 19.367-9.39 28.861-3.424-1.362-7.151-2.119-11.054-2.119-3.506 0-6.87.61-10 1.72zm140.038 99.89c0 11.088-22.274 20.11-49.606 20.11-27.809 0-50.432-9.021-50.432-20.11v-43.99c0-12.947 5.132-31.839 14.642-41.349l1.792-1.792c10.233-2.902 19.489-8.467 26.909-16.223 1.66-1.734 3.696-2.625 6.053-2.65 2.853-.044 5.858 1.278 8.179 3.601 7.266 7.253 16.205 12.489 25.99 15.271.957 1.808 15.605 8.627 16.436 58.484.028 1.517.037 28.648.037 28.648zm17.825-56.265c-1.754-11.62-4.598-21.356-8.56-29.299 11.687-1.827 22.263-7.042 30.698-14.603v43.047c-3.13-1.11-6.494-1.72-10-1.72-4.32 0-8.424.925-12.138 2.575zm12.137 37.425c-5.514 0-10-4.486-10-10s4.486-10 10-10 10 4.486 10 10-4.486 10-10 10zm-80-226c28.458 0 53.495 17.262 64.319 42.332-5.589-1.532-11.379-2.332-17.169-2.332h-97.15c-4.769 0-9.459.553-14 1.636 10.984-24.689 35.808-41.636 64-41.636zm-50 60h97.15c20.815 0 40.53 14.752 42.637 35.812 2.383 24.298-16.618 44.188-39.787 44.188-10.706 0-20.792-4.226-28.285-11.707-6.088-6.096-14.294-9.55-22.53-9.457-7.717.082-14.921 3.213-20.29 8.821-9.811 10.255-24.486 14.881-39.714 10.94-16.239-4.194-29.181-19.192-29.181-38.597 0-21.894 17.716-40 40-40zm-30 166c-5.514 0-10-4.486-10-10s4.486-10 10-10 10 4.486 10 10-4.486 10-10 10z"/><path d="m116 472h40c5.522 0 10-4.477 10-10v-10h10c5.522 0 10-4.477 10-10v-40c0-5.523-4.478-10-10-10h-10v-10c0-5.523-4.478-10-10-10h-40c-5.522 0-10 4.477-10 10v10h-10c-5.522 0-10 4.477-10 10v40c0 5.523 4.478 10 10 10h10v10c0 5.523 4.478 10 10 10zm-10-60h10c5.522 0 10-4.477 10-10v-10h20v10c0 5.523 4.478 10 10 10h10v20h-10c-5.522 0-10 4.477-10 10v10h-20v-10c0-5.523-4.478-10-10-10h-10z"/><path d="m336 452h100c5.522 0 10-4.477 10-10v-40c0-5.523-4.478-10-10-10h-100c-5.522 0-10 4.477-10 10v40c0 5.523 4.478 10 10 10zm10-40h80v20h-80z"/><path d="m276 286h-40c-5.522 0-10 4.477-10 10s4.478 10 10 10h40c5.522 0 10-4.477 10-10s-4.478-10-10-10z"/><path d="m276 246h-40c-5.522 0-10 4.477-10 10s4.478 10 10 10h40c5.522 0 10-4.477 10-10s-4.478-10-10-10z"/><circle cx="386" cy="502" r="10"/><path d="m467.997 311.626c-.217-.086-.436-.166-.657-.237l-30.214-9.709c-18.92-7.717-31.126-25.854-31.126-46.3v-99.51c0-82.853-64.922-155.87-150-155.87-82.71 0-150 67.29-150 150v105.38c0 20.446-12.206 38.583-31.126 46.301 0 0-30.654 9.859-30.871 9.946-26.731 10.701-44.003 36.213-44.003 64.993v125.38c0 5.523 4.478 10 10 10h330.999c5.522 0 10-4.477 10-10s-4.478-10-10-10h-54.999v-110c0-5.523-4.478-10-10-10h-40c-5.522 0-10 4.477-10 10v110h-206v-115.38c0-20.446 12.206-38.583 31.126-46.301 0 0 30.654-9.859 30.871-9.946 26.731-10.701 44.003-36.213 44.003-64.993v-105.38c0-71.682 58.317-130 130-130s130 60.951 130 135.87v99.51c0 28.78 17.272 54.292 44.003 64.994.217.086.436.166.657.237l30.214 9.709c18.92 7.717 31.126 25.854 31.126 46.3v115.38h-61c-5.522 0-10 4.477-10 10s4.478 10 10 10h71c5.522 0 10-4.477 10-10v-125.38c0-28.78-17.272-54.292-44.003-64.994zm-221.997 120.374h20v20h-20zm20-40v20h-20v-20zm-20 80h20v20h-20z"/></g></g></svg>