<svg id="Capa_1" enable-background="new 0 0 512.001 512.001" height="512" viewBox="0 0 512.001 512.001" width="512" xmlns="http://www.w3.org/2000/svg"><g><g><path d="m382.001 10.001c66.27 0 120 53.73 120 120s-53.73 120-120 120h-120l35.15-35.15c-21.72-21.71-35.15-51.71-35.15-84.85 0-66.27 53.73-120 120-120z" fill="#eefaff"/><circle cx="382.001" cy="130.001" fill="#a0e5a5" r="40"/><path d="m502.001 376.001-83.04 109.32c-1.97-1.98-2.96-3.32-2.96-3.32s-11.84 20-40 20-40-20-40-20-11.84 20-40 20-40-20-40-20-11.84 20-40 20-40-20-40-20-11.84 20-40 20-40-20-40-20-14.84 20-43 20c-1.74 0-3.43-.08-5.06-.22l-34.94-125.78h123c0 22.09 17.91 40 40 40h180l20-40z" fill="#8690a6"/><path d="m436.001 336.001v40c-32.019 0-68.558 0-100 0v-40z" fill="#99ebfa"/><path d="m396.001 296.001v40c-14.518 0-105.386 0-120 0v-40z" fill="#ff7d97"/><path d="m376.001 376.001-20 40h-120v-40z" fill="#ff7d97"/><path d="m336.001 336.001v40h-100v-40z" fill="#a0e5a5"/><path d="m196.001 336.001v80h-20c-22.09 0-40-17.91-40-40h-103v-40z" fill="#eefaff"/><path d="m196.001 336.001h-100c0-9.679 0-70.258 0-80h100z" fill="#ff7d97"/></g><g><circle cx="382.001" cy="130.001" r="10"/><path d="m396.001 286.001h-120c-5.523 0-10 4.477-10 10v30h-30c-5.523 0-10 4.477-10 10v70h-20c0-15.879 0-135.527 0-150 0-5.523-4.477-10-10-10h-30v-30c0-5.523-4.477-10-10-10s-10 4.477-10 10v30h-20v-50c0-5.523-4.477-10-10-10s-10 4.477-10 10v50h-10c-5.523 0-10 4.477-10 10v70h-53c-5.523 0-10 4.477-10 10v30h-10c-3.125 0-6.07 1.461-7.961 3.949s-2.51 5.717-1.674 8.728l30.32 109.149c-10.044-4.605-15.374-11.419-15.653-11.783-3.291-4.436-9.553-5.364-13.989-2.075-4.436 3.29-5.365 9.553-2.075 13.989 9.516 12.836 29.515 24.043 51.032 24.043 19.9 0 34.164-8.48 42.47-15.375 7.585 7.034 20.75 15.375 40.53 15.375 19.327 0 32.338-7.963 40-14.89 7.662 6.927 20.673 14.89 40 14.89s32.338-7.963 40-14.89c7.662 6.927 20.673 14.89 40 14.89s32.338-7.963 40-14.89c7.662 6.927 20.673 14.89 40 14.89 19.768 0 32.928-8.33 40.516-15.361 8.439 7.04 22.62 15.361 42.484 15.361 32.815 0 50.302-23.06 51.031-24.042 3.291-4.435 2.363-10.698-2.072-13.989-4.435-3.292-10.699-2.364-13.989 2.072-.119.159-12.471 15.958-34.969 15.958-11.535 0-20.311-4.005-26.337-8.184l77.3-101.767c2.297-3.025 2.683-7.091.995-10.494s-5.159-5.555-8.958-5.555h-56v-30c0-5.523-4.477-10-10-10h-30v-30c-.001-5.522-4.478-9.999-10.001-9.999zm-110 20h100v20h-100zm40 40v20h-80v-20zm-80 40h113.82l-10 20h-103.82zm-140-80h10c5.523 0 10-4.477 10-10s-4.477-10-10-10h-10v-20h80v20h-30c-5.523 0-10 4.477-10 10s4.477 10 10 10h30v20h-80zm-63 40h143v60h-10c-16.542 0-30-13.458-30-30 0-5.523-4.477-10-10-10h-93zm373.501 126.024c-.335-.017-.672-.029-1.011-.012-3.348.17-6.388 2.008-8.095 4.893-.089.151-9.547 15.094-31.395 15.094-21.348 0-30.709-14.021-31.417-15.134-1.759-3.088-4.973-4.92-8.529-4.958-.035 0-.068 0-.103 0-3.532 0-6.754 1.955-8.556 4.999-.089.151-9.547 15.094-31.395 15.094-21.348 0-30.709-14.021-31.417-15.134-1.759-3.088-4.973-4.92-8.529-4.958-3.617-.036-6.839 1.924-8.659 4.998-.089.151-9.547 15.094-31.395 15.094-21.348 0-30.709-14.021-31.417-15.134-1.759-3.088-4.973-4.92-8.529-4.958-.035 0-.068 0-.103 0-3.532 0-6.754 1.955-8.556 4.999-.089.151-9.547 15.094-31.395 15.094-21.348 0-30.709-14.021-31.417-15.134-1.667-2.927-4.645-4.728-8.01-4.939-3.368-.202-6.584 1.395-8.603 4.115-.114.153-11.531 14.742-32.389 15.88l-29.424-105.923h100.848c4.646 22.794 24.85 40 48.996 40h180c3.788 0 7.25-2.14 8.944-5.528l17.236-34.472h99.666zm9.499-106.024c-25.479 0-65.514 0-80 0v-20h80z"/><path d="m436.281 195.981c4.762 2.749 10.887 1.144 13.66-3.66 7.16-12.402 12.84-22.238 20-34.64 2.762-4.783 1.123-10.898-3.66-13.66-4.782-2.76-10.899-1.123-13.66 3.66l-4.999 8.659-18.197-10.509c1.694-5.083 2.577-10.431 2.577-15.829s-.883-10.746-2.577-15.829l18.197-10.509 4.999 8.659c2.775 4.806 8.9 6.408 13.66 3.66 4.783-2.762 6.422-8.877 3.66-13.66-7.16-12.401-12.84-22.238-20-34.64-2.762-4.783-8.877-6.423-13.66-3.66-4.783 2.762-6.422 8.877-3.66 13.66l5.001 8.661-18.204 10.514c-7.18-8.084-16.829-13.655-27.416-15.832v-21.025h10c5.523 0 10-4.477 10-10s-4.477-10-10-10h-40c-5.523 0-10 4.477-10 10s4.477 10 10 10h10v21.023c-10.587 2.176-20.236 7.748-27.416 15.832l-18.204-10.514 5.001-8.661c2.762-4.783 1.123-10.898-3.66-13.66-4.781-2.761-10.898-1.123-13.66 3.66-7.16 12.402-12.84 22.238-20 34.64-2.762 4.783-1.123 10.898 3.66 13.66 4.762 2.749 10.887 1.144 13.66-3.66l4.999-8.659 18.197 10.509c-1.694 5.083-2.577 10.431-2.577 15.829s.883 10.746 2.577 15.829l-18.197 10.509-4.999-8.659c-2.762-4.784-8.878-6.422-13.66-3.66-4.783 2.762-6.422 8.877-3.66 13.66 7.16 12.401 12.84 22.238 20 34.64 2.775 4.806 8.9 6.408 13.66 3.66 4.783-2.762 6.422-8.877 3.66-13.66l-5.001-8.661 18.204-10.514c7.18 8.084 16.829 13.655 27.416 15.832v21.023h-10c-5.523 0-10 4.477-10 10s4.477 10 10 10h40c5.523 0 10-4.477 10-10s-4.477-10-10-10h-10v-21.023c10.587-2.176 20.236-7.748 27.416-15.832l18.204 10.514-5.001 8.661c-2.762 4.784-1.124 10.9 3.66 13.662zm-54.28-35.98c-16.407 0-30-13.315-30-30 0-16.643 13.55-30 30-30 16.407 0 30 13.315 30 30 0 16.642-13.55 30-30 30z"/><circle cx="467.001" cy="215.001" r="10"/><path d="m382.001.001c-71.682 0-130 58.318-130 130 0 31.376 11.036 61.048 31.272 84.585l-28.344 28.343c-2.86 2.86-3.715 7.162-2.167 10.898 1.548 3.737 5.194 6.173 9.239 6.173h120c17.948 0 35.335-3.593 51.677-10.681 5.067-2.197 7.393-8.086 5.195-13.153s-8.088-7.394-13.153-5.195c-13.815 5.991-28.524 9.029-43.719 9.029h-95.858l18.079-18.079c3.904-3.904 3.905-10.239-.001-14.144-20.777-20.768-32.219-48.39-32.219-77.777 0-60.654 49.346-110 110-110s110 49.346 110 110c0 15.195-3.038 29.904-9.029 43.719-2.197 5.067.128 10.956 5.195 13.153 5.068 2.196 10.956-.128 13.153-5.195 7.087-16.342 10.681-33.729 10.681-51.677-.001-71.681-58.319-129.999-130.001-129.999z"/></g></g></svg>