<svg id="Capa_1" enable-background="new 0 0 512 512" height="512" viewBox="0 0 512 512" width="512" xmlns="http://www.w3.org/2000/svg"><g><g><path d="m382 46c66.27 0 120 53.73 120 120s-53.73 120-120 120h-120l35.15-35.15c-21.72-21.71-35.15-51.71-35.15-84.85 0-66.27 53.73-120 120-120z" fill="#eefaff"/><circle cx="382" cy="166" fill="#a0e5a5" r="40"/><path d="m494.9 430.72c-34.192-28.902-22.399-18.934-24.95-21.09-18.05-15.26-40.92-23.63-64.55-23.63h-308.4s-22.55-22.55-40-40h-46.67l56.26 84.38c14.83 22.25 39.7 35.62 66.45 35.62h348.96c11.05 0 20-8.95 20-20 0-6.13-2.76-11.61-7.1-15.28z" fill="#eefaff"/><path d="m316 426h-80c-.133-.16-99.199-119.038-100-120h60z" fill="#99ebfa"/><path d="m50.04 207.73c-.97-22.79 17.23-41.73 39.96-41.73 22.71 0 40.93 18.91 39.96 41.72 19.42-6.89 40.04 7.48 40.04 28.28 0 16.57-13.43 30-30 30h-100c-16.57 0-30-13.43-30-30s13.43-30 30-30c3.52 0 6.9.61 10.04 1.73z" fill="#eefaff"/></g><g><circle cx="396" cy="426" r="10"/><circle cx="382" cy="166" r="10"/><circle cx="356" cy="426" r="10"/><circle cx="176" cy="426" r="10"/><circle cx="136" cy="426" r="10"/><path d="m466.28 180.02c-4.781-2.76-10.898-1.123-13.66 3.66l-4.999 8.659-18.197-10.509c1.693-5.084 2.576-10.432 2.576-15.83s-.883-10.746-2.577-15.829l18.197-10.509 4.999 8.659c2.775 4.806 8.9 6.408 13.66 3.66 4.783-2.762 6.422-8.877 3.66-13.66-7.16-12.401-12.84-22.238-20-34.64-2.762-4.784-8.878-6.422-13.66-3.66-4.783 2.762-6.422 8.877-3.66 13.66l5.001 8.661-18.204 10.514c-7.18-8.084-16.829-13.655-27.416-15.832v-21.024h10c5.523 0 10-4.477 10-10s-4.477-10-10-10h-40c-5.523 0-10 4.477-10 10s4.477 10 10 10h10v21.023c-10.587 2.176-20.236 7.748-27.416 15.832l-18.204-10.514 5.001-8.661c2.762-4.783 1.123-10.898-3.66-13.66-4.782-2.76-10.899-1.123-13.66 3.66-7.16 12.402-12.84 22.238-20 34.64-2.762 4.783-1.123 10.898 3.66 13.66 4.762 2.749 10.887 1.144 13.66-3.66l4.999-8.659 18.197 10.509c-1.694 5.084-2.577 10.432-2.577 15.83s.883 10.746 2.577 15.829l-18.197 10.509-4.999-8.659c-2.762-4.783-8.877-6.422-13.66-3.66s-6.422 8.877-3.66 13.66c7.16 12.401 12.84 22.238 20 34.64 2.775 4.806 8.9 6.408 13.66 3.66 4.783-2.762 6.422-8.877 3.66-13.66l-5.001-8.661 18.204-10.514c7.18 8.084 16.829 13.655 27.416 15.832v21.024h-10c-5.523 0-10 4.477-10 10s4.477 10 10 10h40c5.523 0 10-4.477 10-10s-4.477-10-10-10h-10v-21.023c10.587-2.176 20.236-7.748 27.416-15.832l18.204 10.514-5.001 8.661c-2.762 4.783-1.123 10.898 3.66 13.66 4.762 2.749 10.887 1.144 13.66-3.66 7.16-12.402 12.84-22.238 20-34.64 2.763-4.783 1.124-10.898-3.659-13.66zm-84.28 15.98c-16.407 0-30-13.315-30-30 0-16.643 13.55-30 30-30 16.407 0 30 13.315 30 30 0 16.643-13.55 30-30 30z"/><path d="m382 36c-71.682 0-130 58.318-130 130 0 31.376 11.036 61.048 31.272 84.585l-28.344 28.343c-2.86 2.86-3.715 7.162-2.167 10.898 1.548 3.737 5.194 6.173 9.239 6.173h120c71.682 0 130-58.318 130-130s-58.318-129.999-130-129.999zm0 240h-95.858l18.079-18.079c1.876-1.876 2.93-4.42 2.929-7.072 0-2.653-1.055-5.196-2.931-7.072-20.777-20.767-32.219-48.389-32.219-77.777 0-60.654 49.346-110 110-110s110 49.346 110 110-49.346 110-110 110z"/><path d="m40 276h100c22.056 0 40-17.944 40-40 0-23.325-19.301-40.506-40.985-39.985-4.43-22.03-24.033-40.015-49.015-40.015-24.97 0-44.582 17.975-49.015 40.012-.328-.008-.656-.012-.985-.012-22.056 0-40 17.944-40 40s17.944 40 40 40zm0-60c8.704 0 16.133 5.621 18.862 13.335 1.842 5.207 7.557 7.933 12.763 6.093 5.207-1.842 7.935-7.556 6.093-12.763-3.181-8.991-9.349-16.404-17.391-21.128 2.059-13.95 14.133-25.537 29.673-25.537 17.054 0 30.697 14.166 29.969 31.295-.142 3.32 1.376 6.494 4.049 8.468 2.674 1.975 6.153 2.492 9.285 1.381 12.967-4.602 26.697 4.988 26.697 18.856 0 11.028-8.972 20-20 20h-100c-11.028 0-20-8.972-20-20s8.972-20 20-20z"/><circle cx="316" cy="466" r="10"/><path d="m361 476h121c16.542 0 30-13.458 30-30 0-8.844-3.879-17.197-10.642-22.915-7.638-6.457-16.285-13.766-24.952-21.092-19.827-16.762-45.044-25.993-71.006-25.993h-125.257l-77.071-77.071c-1.876-1.875-4.42-2.929-7.072-2.929h-60c-3.88 0-7.41 2.245-9.056 5.759s-1.11 7.663 1.374 10.643l52.998 63.598h-80.174l-37.071-37.071c-1.875-1.875-4.419-2.929-7.071-2.929h-46.67c-3.688 0-7.077 2.03-8.817 5.282-1.74 3.251-1.549 7.197.497 10.266l56.259 84.379c16.725 25.092 44.677 40.073 74.771 40.073h137.96c5.523 0 10-4.477 10-10s-4.477-10-10-10h-137.96c-23.391 0-45.122-11.651-58.13-31.167l-45.893-68.833h23.841l37.071 37.071c1.875 1.875 4.419 2.929 7.071 2.929h100.983l30.334 36.401c1.9 2.28 4.715 3.599 7.683 3.599h80c4.044 0 7.691-2.437 9.239-6.173s.692-8.038-2.167-10.898l-22.929-22.929h105.257c20.567 0 40.551 7.1 56.527 20h-25.927c-5.523 0-10 4.477-10 10s4.477 10 10 10h49.656l2.788 2.356c2.26 1.911 3.557 4.697 3.557 7.644 0 5.514-4.486 10-10 10h-121.001c-5.523 0-10 4.477-10 10s4.477 10 10 10zm-120.316-60c-12.062-14.474-79.058-94.87-83.333-100h34.507l100 100z"/></g></g></svg>