<svg id="Capa_1" enable-background="new 0 0 512 512" height="512" viewBox="0 0 512 512" width="512" xmlns="http://www.w3.org/2000/svg"><g><g><path d="m36 162h440v340h-440z" fill="#8690a6"/><path d="m476 53v109c-28.76 0-421.647 0-440 0v-109z" fill="#ff7d97"/><path d="m76 162v300h280l80-80v-220z" fill="#eefaff"/></g><g><path d="m116 232h40c5.523 0 10-4.477 10-10s-4.477-10-10-10h-40c-5.523 0-10 4.477-10 10s4.477 10 10 10z"/><path d="m196 232h40c5.522 0 10-4.477 10-10s-4.478-10-10-10h-40c-5.523 0-10 4.477-10 10s4.477 10 10 10z"/><path d="m276 232h40c5.522 0 10-4.477 10-10s-4.478-10-10-10h-40c-5.522 0-10 4.477-10 10s4.478 10 10 10z"/><path d="m356 232h40c5.522 0 10-4.477 10-10s-4.478-10-10-10h-40c-5.522 0-10 4.477-10 10s4.478 10 10 10z"/><path d="m356 292h40c5.522 0 10-4.477 10-10s-4.478-10-10-10h-40c-5.522 0-10 4.477-10 10s4.478 10 10 10z"/><path d="m276 292h40c5.522 0 10-4.477 10-10s-4.478-10-10-10h-40c-5.522 0-10 4.477-10 10s4.478 10 10 10z"/><path d="m196 292h40c5.522 0 10-4.477 10-10s-4.478-10-10-10h-40c-5.523 0-10 4.477-10 10s4.477 10 10 10z"/><path d="m116 292h40c5.523 0 10-4.477 10-10s-4.477-10-10-10h-40c-5.523 0-10 4.477-10 10s4.477 10 10 10z"/><path d="m356 352h40c5.522 0 10-4.477 10-10s-4.478-10-10-10h-40c-5.522 0-10 4.477-10 10s4.478 10 10 10z"/><path d="m276 352h40c5.522 0 10-4.477 10-10s-4.478-10-10-10h-40c-5.522 0-10 4.477-10 10s4.478 10 10 10z"/><path d="m196 352h40c5.522 0 10-4.477 10-10s-4.478-10-10-10h-40c-5.523 0-10 4.477-10 10s4.477 10 10 10z"/><path d="m116 352h40c5.523 0 10-4.477 10-10s-4.477-10-10-10h-40c-5.523 0-10 4.477-10 10s4.477 10 10 10z"/><path d="m196 412h40c5.522 0 10-4.477 10-10s-4.478-10-10-10h-40c-5.523 0-10 4.477-10 10s4.477 10 10 10z"/><path d="m156 392h-40c-5.523 0-10 4.477-10 10s4.477 10 10 10h40c5.523 0 10-4.477 10-10s-4.477-10-10-10z"/><path d="m96 0c-5.523 0-10 4.477-10 10v33h-50c-5.523 0-10 4.477-10 10v449c0 5.523 4.477 10 10 10h175c5.523 0 10-4.477 10-10s-4.477-10-10-10h-165v-320h20v290c0 5.523 4.477 10 10 10h280c2.705 0 5.253-1.112 7.071-2.929l80-80c1.811-1.809 2.929-4.338 2.929-7.071v-210h20v320h-165c-5.522 0-10 4.477-10 10s4.478 10 10 10h175c5.522 0 10-4.477 10-10 0-12.466 0-437.204 0-449 0-5.523-4.478-10-10-10h-50v-33c0-5.523-4.478-10-10-10s-10 4.477-10 10v33h-60v-33c0-5.523-4.478-10-10-10s-10 4.477-10 10v33h-60v-33c0-5.523-4.478-10-10-10s-10 4.477-10 10v33h-60v-33c0-5.523-4.477-10-10-10s-10 4.477-10 10v33h-60v-33c0-5.523-4.477-10-10-10zm270 437.858v-45.858h45.858zm60-65.858h-70c-5.522 0-10 4.477-10 10v70h-260v-280h340zm-260-309v33c0 5.523 4.477 10 10 10s10-4.477 10-10v-33h60v33c0 5.523 4.478 10 10 10s10-4.477 10-10v-33h60v33c0 5.523 4.478 10 10 10s10-4.477 10-10v-33h60v33c0 5.523 4.478 10 10 10s10-4.477 10-10v-33h40v89h-420v-89h40v33c0 5.523 4.477 10 10 10s10-4.477 10-10v-33z"/><circle cx="256" cy="502" r="10"/></g></g></svg>