<svg id="Capa_1" enable-background="new 0 0 512.054 512.054" height="512" viewBox="0 0 512.054 512.054" width="512" xmlns="http://www.w3.org/2000/svg"><g><g><path d="m179.737 179.57c-2.965 2.951-28.379 28.371-113.14 113.14l-56.57-56.57 113.14-113.14z" fill="#99ebfa"/><path d="m502.027 236.14-56.57 56.57c-5.884-5.885-109.401-109.419-113.14-113.14l56.57-56.57z" fill="#ff7d97"/><path d="m431.317 278.56-28.28 28.29-84.86-84.86 28.29-28.28z" fill="#eefaff"/><circle cx="256.027" cy="70" fill="#ff7d97" r="60"/><path d="m369.167 368.91 33.87-62.06-84.86-84.86-62.15 33.78-62.15-33.78-84.86 84.86 33.87 62.06-14.14 14.14c-7.81 7.81-7.81 20.48 0 28.29s20.47 7.81 28.29 0c-7.82 7.81-7.82 20.47 0 28.28 7.81 7.81 20.47 7.81 28.28 0-7.81 7.81-7.81 20.48 0 28.29s20.47 7.81 28.28 0c-7.81 7.81-7.81 20.47 0 28.28s20.48 7.81 28.29 0l14.14-14.14 14.14 14.14c7.81 7.81 20.48 7.81 28.29 0s7.81-20.47 0-28.28c7.81 7.81 20.47 7.81 28.28 0s7.81-20.48 0-28.29c7.81 7.81 20.47 7.81 28.28 0 7.82-7.81 7.82-20.47 0-28.28 7.82 7.81 20.48 7.81 28.29 0s7.81-20.48 0-28.29z" fill="#fce8d0"/><path d="m193.877 221.99-84.86 84.86-28.28-28.29 84.85-84.85z" fill="#eefaff"/></g><g><path d="m452.527 243.21c3.91-3.91 3.91-10.24 0-14.14-3.9-3.91-10.23-3.91-14.14 0-3.9 3.9-3.9 10.23 0 14.14 3.91 3.9 10.24 3.9 14.14 0z"/><path d="m73.667 229.07c-3.91-3.91-10.24-3.91-14.14 0-3.91 3.9-3.91 10.23 0 14.14 3.9 3.9 10.23 3.9 14.14 0 3.9-3.91 3.9-10.24 0-14.14z"/><path d="m59.526 299.781c3.905 3.904 10.241 3.904 14.145-.003l7.068-7.073 20.191 20.198 29.595 54.227-8.849 8.848c-11.697 11.698-11.697 30.733 0 42.432 5.424 5.424 12.426 8.327 19.545 8.719.399 7.394 3.467 14.289 8.745 19.561 5.275 5.274 12.167 8.339 19.558 8.738.392 7.119 3.297 14.125 8.723 19.551 5.271 5.271 12.158 8.335 19.543 8.738.402 7.385 3.466 14.272 8.737 19.542 11.723 11.723 30.706 11.726 42.433 0l7.068-7.068 7.069 7.069c11.724 11.722 30.706 11.725 42.433 0 5.271-5.271 8.335-12.158 8.738-19.543 7.384-.402 14.271-3.467 19.542-8.738 5.426-5.427 8.331-12.432 8.723-19.551 7.39-.399 14.282-3.464 19.553-8.734 5.282-5.276 8.352-12.171 8.75-19.565 7.118-.393 14.122-3.296 19.545-8.719 11.697-11.698 11.697-30.733 0-42.432l-8.85-8.846 29.596-54.228 20.191-20.198 7.067 7.073c3.906 3.909 10.238 3.907 14.145.003l56.57-56.57c3.905-3.905 3.905-10.237 0-14.142l-26.223-26.223c-3.904-3.905-10.234-3.905-14.143 0-3.905 3.905-3.905 10.237 0 14.142l19.151 19.152-42.425 42.425c1.464 1.462-20.42-20.425-98.998-98.998l42.426-42.425 16.24 16.241c3.906 3.906 10.236 3.906 14.143 0 3.905-3.905 3.905-10.237 0-14.142l-23.312-23.312c-3.904-3.903-10.236-3.905-14.143 0l-56.57 56.57c-3.903 3.903-3.905 10.241.003 14.145l7.073 7.068-20.191 20.184-56.103 30.493-56.103-30.493-20.191-20.184 7.073-7.068c3.904-3.901 3.909-10.239.003-14.145l-56.57-56.57c-3.906-3.905-10.236-3.904-14.143 0l-113.141 113.139c-1.875 1.875-2.929 4.419-2.929 7.071s1.054 5.196 2.929 7.071zm61.854 8.849 74.285-74.286 54.314 29.521 41.407 41.407c3.897 3.898 3.896 10.247-.001 14.147-3.9 3.9-10.248 3.9-14.146.001l-28.279-28.29c-1.875-1.876-4.419-2.93-7.071-2.93 0 0 0 0-.001 0-2.651 0-5.195 1.054-7.07 2.929-7.55 7.549-18.655 10.529-28.996 7.768-5.052-1.346-9.696-4.032-13.434-7.768-3.904-3.905-10.237-3.905-14.142 0s-3.905 10.237.001 14.142c2.386 2.386 5.001 4.51 7.79 6.355l-40.771 40.766zm113.436 180.489c-3.908 3.908-10.239 3.908-14.147 0-3.906-3.906-3.909-10.223-.003-14.134.001-.001.002-.002.003-.003l.005-.005 8.274-8.273c1.451 3.033 3.421 5.831 5.869 8.279l7.069 7.069zm56.569 0c-3.909 3.908-10.239 3.907-14.147 0-9.475-9.475-17.775-17.775-28.279-28.28-3.907-3.907-3.91-10.231-.005-14.143.001-.001.006-.007.007-.007 3.907-3.904 10.223-3.905 14.131-.001.001.001.002.002.003.004l28.29 28.29c3.902 3.901 3.917 10.22 0 14.137zm28.281-28.28c-3.908 3.907-10.229 3.908-14.138 0l-28.29-28.29c-3.897-3.898-3.897-10.241 0-14.138 3.905-3.905 10.234-3.91 14.144-.004.001.001.002.002.003.004l28.28 28.28c3.901 3.901 3.901 10.247.001 14.148zm28.28-28.29c-3.908 3.908-10.229 3.908-14.138 0l-28.28-28.28c-3.9-3.901-3.9-10.248-.001-14.148 3.9-3.896 10.242-3.898 14.139 0l.005.005 28.274 28.284c.002.002.004.003.006.005 3.907 3.904 3.915 10.219-.005 14.134zm28.29-28.28c-3.897 3.898-10.246 3.896-14.151-.003l-28.276-28.287c-3.897-3.897-3.897-10.24 0-14.138 3.906-3.905 10.226-3.91 14.141.002l28.287 28.277c3.899 3.901 3.899 10.248-.001 14.149zm-14.147-56.57c-11.724-11.722-30.697-11.725-42.423 0-5.428 5.428-8.333 12.437-8.722 19.558-7.121.39-14.129 3.294-19.558 8.722-5.426 5.426-8.331 12.432-8.723 19.551-7.395.398-14.291 3.463-19.567 8.739-5.424 5.424-8.328 12.426-8.721 19.542-7.391.399-14.284 3.464-19.559 8.738l-28.29 28.29c-3.907 3.907-10.229 3.908-14.138 0-3.9-3.901-3.9-10.248 0-14.148l14.14-14.14c3.905-3.905 3.905-10.237 0-14.142-3.906-3.905-10.236-3.905-14.143 0l-14.14 14.14c-3.888 3.887-10.209 3.928-14.143-.004-3.907-3.904-3.915-10.219.005-14.134l14.141-14.14c3.905-3.905 3.905-10.237 0-14.142s-10.235-3.905-14.143 0l-14.136 14.136c-3.906 3.901-10.254 3.901-14.152.004-3.9-3.901-3.9-10.248 0-14.148 8.621-8.62 61.837-61.828 70.728-70.718 12.119 1.709 24.471-1.093 34.62-7.78l21.931 21.938c11.699 11.698 30.734 11.698 42.436-.004 11.689-11.705 11.688-30.738-.004-42.428l-32.965-32.965 43.826-23.82 74.285 74.286-23.886 43.767zm-15.623-139.848 70.71 70.71-14.141 14.146-70.715-70.715zm-237.448 84.856-14.141-14.146 70.71-70.71 14.146 14.141zm14.149-155.565 42.426 42.425c1.486-1.488-20.425 20.42-98.998 98.998l-42.425-42.425z"/><path d="m256.027 0c-38.666 0-70 31.326-70 70 0 38.662 31.323 70 70 70 38.666 0 70-31.326 70-70 0-38.662-31.323-70-70-70zm41.722 97.58-27.58-27.58 27.579-27.579c5.385 8.114 8.279 17.625 8.279 27.579 0 9.955-2.895 19.468-8.278 27.58zm-14.143-69.301-27.579 27.579-27.579-27.579c8.114-5.385 17.625-8.279 27.579-8.279s19.466 2.894 27.579 8.279zm-69.3 69.3c-5.384-8.114-8.279-17.625-8.279-27.579 0-9.955 2.895-19.468 8.278-27.58l27.58 27.58zm14.141 14.143 27.58-27.58 27.579 27.579c-8.114 5.384-17.625 8.279-27.579 8.279-9.955 0-19.468-2.895-27.58-8.278z"/><circle cx="443.611" cy="178.505" r="10"/></g></g></svg>