<svg id="Capa_1" enable-background="new 0 0 512 512" height="512" viewBox="0 0 512 512" width="512" xmlns="http://www.w3.org/2000/svg"><g><g fill="#a0e5a5"><circle cx="382" cy="156" r="40"/><circle cx="422" cy="396" r="20"/></g><g><circle cx="382" cy="156" r="10"/><path d="m311.38 173.68c-2.762-4.783-8.878-6.422-13.66-3.66-4.783 2.762-6.422 8.877-3.66 13.66 7.16 12.401 12.84 22.238 20 34.64 2.775 4.806 8.9 6.408 13.66 3.66 4.783-2.762 6.422-8.877 3.66-13.66l-5.001-8.661 18.204-10.514c7.18 8.084 16.829 13.655 27.416 15.832v21.023h-10c-5.523 0-10 4.477-10 10s4.477 10 10 10h40c5.523 0 10-4.477 10-10s-4.477-10-10-10h-10v-21.023c10.587-2.176 20.236-7.748 27.416-15.832l18.204 10.514-5.001 8.661c-2.762 4.783-1.123 10.898 3.66 13.66 4.762 2.749 10.887 1.144 13.66-3.66 6.654-11.524 13.356-23.132 20-34.64 2.762-4.783 1.123-10.898-3.66-13.66-4.782-2.76-10.899-1.123-13.66 3.66l-4.999 8.659-18.197-10.509c1.695-5.084 2.578-10.432 2.578-15.83s-.883-10.746-2.577-15.829l18.197-10.509 4.999 8.659c2.775 4.806 8.9 6.408 13.66 3.66 4.783-2.762 6.422-8.877 3.66-13.66-7.16-12.401-12.84-22.238-20-34.64-2.762-4.784-8.877-6.423-13.66-3.66-4.783 2.762-6.422 8.877-3.66 13.66l5.001 8.661-18.204 10.514c-7.18-8.084-16.829-13.655-27.416-15.832v-21.024h10c5.523 0 10-4.477 10-10s-4.477-10-10-10h-40c-5.523 0-10 4.477-10 10s4.477 10 10 10h10v21.023c-10.587 2.176-20.236 7.748-27.416 15.832l-18.204-10.514 5.001-8.661c2.762-4.783 1.123-10.898-3.66-13.66-4.781-2.76-10.898-1.122-13.66 3.66-7.16 12.402-12.84 22.238-20 34.64-2.762 4.783-1.123 10.898 3.66 13.66 4.762 2.749 10.887 1.144 13.66-3.66l4.999-8.659 18.197 10.509c-1.694 5.084-2.577 10.432-2.577 15.83s.883 10.746 2.577 15.829l-18.197 10.509zm70.62-47.68c16.407 0 30 13.315 30 30 0 16.643-13.55 30-30 30-16.407 0-30-13.315-30-30 0-16.67 13.579-30 30-30z"/><path d="m382 26c-71.682 0-130 58.318-130 130 0 5.523 4.477 10 10 10s10-4.477 10-10c0-60.654 49.346-110 110-110s110 49.346 110 110-49.346 110-110 110h-146c-5.523 0-10 4.477-10 10s4.477 10 10 10h146c71.682 0 130-58.318 130-130s-58.318-130-130-130z"/><path d="m378.7 421c2.774 4.806 8.9 6.409 13.66 3.66l10.165-5.869c2.77 2.37 5.973 4.246 9.475 5.489v11.72c0 5.523 4.477 10 10 10s10-4.477 10-10v-11.72c3.503-1.242 6.705-3.118 9.475-5.489l10.165 5.869c4.762 2.749 10.887 1.144 13.66-3.66 2.762-4.783 1.123-10.899-3.66-13.66l-10.151-5.861c.33-1.778.51-3.607.51-5.479s-.181-3.701-.51-5.479l10.151-5.861c4.783-2.761 6.422-8.877 3.66-13.66-2.761-4.784-8.877-6.422-13.66-3.66l-10.165 5.869c-2.77-2.37-5.973-4.246-9.475-5.489v-11.72c0-5.523-4.477-10-10-10s-10 4.477-10 10v11.72c-3.503 1.242-6.705 3.118-9.475 5.489l-10.165-5.869c-4.781-2.76-10.898-1.122-13.66 3.66-2.762 4.783-1.123 10.899 3.66 13.66l10.151 5.861c-.33 1.778-.51 3.607-.51 5.479s.181 3.701.51 5.479l-10.151 5.861c-4.783 2.761-6.422 8.877-3.66 13.66zm53.3-25c0 5.514-4.486 10-10 10s-10-4.486-10-10 4.486-10 10-10 10 4.486 10 10z"/><path d="m10 326h106c5.523 0 10-4.477 10-10s-4.477-10-10-10h-106c-5.523 0-10 4.477-10 10s4.477 10 10 10z"/><path d="m206 276c0-5.523-4.477-10-10-10h-146c-5.523 0-10 4.477-10 10s4.477 10 10 10h146c5.523 0 10-4.477 10-10z"/><path d="m176 146c-27.57 0-50 22.43-50 50 0 5.523 4.477 10 10 10s10-4.477 10-10c0-16.542 13.458-30 30-30s30 13.458 30 30-13.458 30-30 30h-86c-5.523 0-10 4.477-10 10s4.477 10 10 10h86c27.57 0 50-22.43 50-50s-22.43-50-50-50z"/><path d="m96 366c5.523 0 10-4.477 10-10s-4.477-10-10-10h-46c-5.523 0-10 4.477-10 10s4.477 10 10 10z"/><path d="m126 356c0 5.523 4.477 10 10 10h186c5.523 0 10-4.477 10-10s-4.477-10-10-10h-186c-5.523 0-10 4.477-10 10z"/><circle cx="289" cy="316" r="10"/><path d="m244 306h-88c-5.523 0-10 4.477-10 10s4.477 10 10 10h88c5.523 0 10-4.477 10-10s-4.477-10-10-10z"/><path d="m422 306h-88c-5.523 0-10 4.477-10 10s4.477 10 10 10h88c38.598 0 70 31.402 70 70s-31.402 70-70 70-70-31.402-70-70c0-5.523-4.477-10-10-10s-10 4.477-10 10c0 49.626 40.374 90 90 90s90-40.374 90-90-40.374-90-90-90z"/></g></g></svg>