<svg id="Capa_1" enable-background="new 0 0 512 512" height="512" viewBox="0 0 512 512" width="512" xmlns="http://www.w3.org/2000/svg"><g><g><path d="m256 10-140 87.5v198.5h280v-198.5z" fill="#eefaff"/><path d="m502 296v206h-492v-206z" fill="#8690a6"/><path d="m376 30v55l-40-25v-30z" fill="#8690a6"/><path d="m156 176h200v80h-200z" fill="#ff7d97"/><path d="m356 136v40c-9.205 0-190.795 0-200 0v-40z" fill="#8690a6"/><path d="m236 176h40v40h-40z" fill="#fff2a0"/></g><g><circle cx="456" cy="339" r="10"/><circle cx="456" cy="379" r="10"/><circle cx="456" cy="419" r="10"/><circle cx="456" cy="459" r="10"/><circle cx="416" cy="339" r="10"/><circle cx="416" cy="379" r="10"/><circle cx="416" cy="419" r="10"/><circle cx="416" cy="459" r="10"/><circle cx="376" cy="339" r="10"/><circle cx="376" cy="379" r="10"/><circle cx="376" cy="419" r="10"/><circle cx="376" cy="459" r="10"/><path d="m76 329h-20c-5.523 0-10 4.477-10 10s4.477 10 10 10h20c5.523 0 10-4.477 10-10s-4.477-10-10-10z"/><path d="m116 349h20c5.523 0 10-4.477 10-10s-4.477-10-10-10h-20c-5.523 0-10 4.477-10 10s4.477 10 10 10z"/><path d="m176 349h20c5.523 0 10-4.477 10-10s-4.477-10-10-10h-20c-5.523 0-10 4.477-10 10s4.477 10 10 10z"/><path d="m256 329h-20c-5.523 0-10 4.477-10 10s4.477 10 10 10h20c5.523 0 10-4.477 10-10s-4.477-10-10-10z"/><path d="m296 349h20c5.523 0 10-4.477 10-10s-4.477-10-10-10h-20c-5.523 0-10 4.477-10 10s4.477 10 10 10z"/><path d="m76 369h-20c-5.523 0-10 4.477-10 10s4.477 10 10 10h20c5.523 0 10-4.477 10-10s-4.477-10-10-10z"/><path d="m116 389h20c5.523 0 10-4.477 10-10s-4.477-10-10-10h-20c-5.523 0-10 4.477-10 10s4.477 10 10 10z"/><path d="m176 389h20c5.523 0 10-4.477 10-10s-4.477-10-10-10h-20c-5.523 0-10 4.477-10 10s4.477 10 10 10z"/><path d="m256 369h-20c-5.523 0-10 4.477-10 10s4.477 10 10 10h20c5.523 0 10-4.477 10-10s-4.477-10-10-10z"/><path d="m296 389h20c5.523 0 10-4.477 10-10s-4.477-10-10-10h-20c-5.523 0-10 4.477-10 10s4.477 10 10 10z"/><path d="m76 409h-20c-5.523 0-10 4.477-10 10s4.477 10 10 10h20c5.523 0 10-4.477 10-10s-4.477-10-10-10z"/><path d="m116 429h20c5.523 0 10-4.477 10-10s-4.477-10-10-10h-20c-5.523 0-10 4.477-10 10s4.477 10 10 10z"/><path d="m176 429h20c5.523 0 10-4.477 10-10s-4.477-10-10-10h-20c-5.523 0-10 4.477-10 10s4.477 10 10 10z"/><path d="m256 409h-20c-5.523 0-10 4.477-10 10s4.477 10 10 10h20c5.523 0 10-4.477 10-10s-4.477-10-10-10z"/><path d="m296 429h20c5.523 0 10-4.477 10-10s-4.477-10-10-10h-20c-5.523 0-10 4.477-10 10s4.477 10 10 10z"/><path d="m76 449h-20c-5.523 0-10 4.477-10 10s4.477 10 10 10h20c5.523 0 10-4.477 10-10s-4.477-10-10-10z"/><path d="m296 469h20c5.523 0 10-4.477 10-10s-4.477-10-10-10h-20c-5.523 0-10 4.477-10 10s4.477 10 10 10z"/><path d="m256 449h-140c-5.523 0-10 4.477-10 10s4.477 10 10 10h140c5.523 0 10-4.477 10-10s-4.477-10-10-10z"/><path d="m356 126h-50v-30c0-5.523-4.477-10-10-10h-80c-5.523 0-10 4.477-10 10v30h-50c-5.523 0-10 4.477-10 10v120c0 5.523 4.477 10 10 10h200c5.523 0 10-4.477 10-10v-120c0-5.523-4.477-10-10-10zm-130-20h60v20h-60zm120 40v20h-180v-20zm-100 40h20v20h-20zm-80 60v-60h60v30c0 5.523 4.477 10 10 10h40c5.523 0 10-4.477 10-10v-30h60v60z"/><circle cx="256" cy="502" r="10"/><path d="m10 512h201c5.523 0 10-4.477 10-10s-4.477-10-10-10h-191v-186h472v186h-191c-5.523 0-10 4.477-10 10s4.477 10 10 10h201c5.523 0 10-4.477 10-10v-206c0-5.523-4.477-10-10-10h-96v-170.458l4.7 2.938c4.673 2.921 10.846 1.513 13.78-3.18 2.927-4.683 1.503-10.853-3.18-13.78l-35.3-22.062v-49.458c0-5.523-4.477-10-10-10h-40c-5.523 0-10 4.477-10 10v11.958l-64.7-40.438c-3.242-2.026-7.357-2.026-10.6 0l-160 100c-4.684 2.927-6.107 9.097-3.18 13.78 2.927 4.684 9.097 6.106 13.78 3.18l4.7-2.938v170.458h-96c-5.523 0-10 4.477-10 10v206c0 5.523 4.477 10 10 10zm336-472h20v26.958l-20-12.5zm-220 63.042 130-81.25 130 81.25v182.958h-260z"/></g></g></svg>