<svg id="Capa_1" enable-background="new 0 0 512.002 512.002" height="512" viewBox="0 0 512.002 512.002" width="512" xmlns="http://www.w3.org/2000/svg"><g><g><path d="m50 276.001v-60c0-33.14 26.86-60 60-60h26v-40h-26c-55.23 0-100 44.77-100 100v80c0 22.09 17.91 40 40 40h179l15.22-59z" fill="#eefaff"/><circle cx="422" cy="90.001" fill="#a0e5a5" r="40"/><path d="m236 116.001h-20v40h20c33.14 0 60 26.86 60 60v120c22.09 0 40-17.91 40-40v-80c0-55.23-44.77-100-100-100z" fill="#eefaff"/><path d="m216 156.001h-80c0-9.1 0-44.228 0-60h80z" fill="#99ebfa"/><path d="m156 10.001h40v86h-40z" fill="#eefaff"/><path d="m256 256.001v-20c0-11.05-8.95-20-20-20s-20 8.95-20 20c0-11.05-8.95-20-20-20s-20 8.95-20 20c0-11.05-8.95-20-20-20s-20 8.95-20 20c0-11.05-8.95-20-20-20s-20 8.95-20 20v40c0 11.05 8.95 20 20 20s20-8.95 20-20c0 11.05 8.95 20 20 20s20-8.95 20-20c0 11.05 8.95 20 20 20s20-8.95 20-20v-20c0 17.99 11.88 33.21 28.22 38.23 3.72 1.15 7.68 1.77 11.78 1.77-26.13 0-48.35 16.69-56.59 40h-101.41c4.95 24.41 18.8 45.58 38 60.01v105.99h100v-94.32c35.935-15.693 60-51.324 60-91.68v-20c0-22.09-17.91-40-40-40z" fill="#fce8d0"/></g><g><circle cx="422" cy="90.001" r="10"/><path d="m493.34 72.321c2.775 4.806 8.9 6.409 13.66 3.66 4.783-2.762 6.422-8.877 3.66-13.66l-20-34.64c-2.762-4.783-8.877-6.422-13.66-3.66s-6.422 8.877-3.66 13.66l4.956 8.584-18.823 10.65c-7.186-8.117-16.859-13.71-27.472-15.891v-21.023h10c5.522 0 10-4.477 10-10s-4.478-10-10-10h-40c-5.522 0-10 4.477-10 10s4.478 10 10 10h10v21.023c-10.587 2.176-20.237 7.748-27.416 15.832l-18.204-10.514 5-8.661c2.762-4.783 1.123-10.898-3.66-13.66-4.784-2.762-10.898-1.123-13.66 3.66l-20 34.64c-2.762 4.783-1.123 10.898 3.66 13.66 4.767 2.751 10.889 1.139 13.66-3.66l4.999-8.659 18.197 10.51c-1.694 5.083-2.577 10.431-2.577 15.829s.883 10.746 2.576 15.829l-18.197 10.51-4.999-8.659c-2.761-4.782-8.876-6.422-13.66-3.66-4.783 2.762-6.422 8.877-3.66 13.66l20 34.64c2.775 4.806 8.9 6.409 13.66 3.66 4.783-2.762 6.422-8.877 3.66-13.66l-5-8.661 18.204-10.514c7.18 8.084 16.829 13.656 27.417 15.832v21.023h-10c-5.522 0-10 4.477-10 10s4.478 10 10 10h40c5.522 0 10-4.477 10-10s-4.478-10-10-10h-10v-21.023c10.614-2.182 20.287-7.774 27.472-15.891l18.823 10.65-4.956 8.584c-2.762 4.783-1.123 10.898 3.66 13.66 4.767 2.751 10.889 1.139 13.66-3.66l20-34.64c2.762-4.783 1.123-10.898-3.66-13.66-4.785-2.762-10.897-1.123-13.66 3.66l-5.043 8.735-18.849-10.664c1.676-5.06 2.552-10.38 2.552-15.751s-.876-10.691-2.552-15.751l18.849-10.664zm-71.34 47.68c-16.438 0-30-13.347-30-30 0-16.638 13.547-30 30-30 16.434 0 30 13.342 30 30 0 16.638-13.547 30-30 30z"/><path d="m382 306.001c-5.522 0-10 4.477-10 10s4.478 10 10 10c27.57 0 50-22.43 50-50v-35.858l22.929 22.929c3.906 3.905 10.236 3.905 14.143 0 3.905-3.905 3.905-10.237 0-14.143l-40-40c-3.906-3.905-10.236-3.905-14.143 0l-40 40c-3.905 3.905-3.905 10.237 0 14.143 3.906 3.905 10.236 3.905 14.143 0l22.928-22.929v35.858c0 16.542-13.458 30-30 30z"/><circle cx="40" cy="146.001" r="10"/><path d="m50 346.001h40.161c6.06 21.438 18.524 40.565 35.839 54.859v101.141c0 5.523 4.477 10 10 10h100c5.522 0 10-4.477 10-10v-87.993c27.426-13.996 47.72-38.843 55.946-68.373 24.776-2.951 44.054-24.077 44.054-49.634v-80c0-60.654-49.346-110-110-110h-10v-10c0-5.523-4.477-10-10-10h-10v-76c0-5.523-4.477-10-10-10h-40c-5.523 0-10 4.477-10 10v76h-10c-5.523 0-10 4.477-10 10v10h-16c-12.188 0-24.166 1.982-35.6 5.891-5.226 1.787-8.014 7.471-6.228 12.697 1.786 5.224 7.467 8.015 12.697 6.228 9.348-3.196 19.148-4.816 29.13-4.816h16v20h-16c-38.598 0-70 31.402-70 70v60c0 5.523 4.477 10 10 10h37.72c4.128 11.639 15.243 20 28.28 20 7.678 0 14.688-2.902 20-7.663 5.312 4.761 12.322 7.663 20 7.663s14.688-2.902 20-7.663c5.312 4.761 12.322 7.663 20 7.663s14.688-2.902 20-7.663c.052.047.107.092.16.138-9.93 6.873-18.081 16.295-23.412 27.525h-142.747c-16.542 0-30-13.458-30-30v-80c0-9.982 1.62-19.783 4.816-29.13 1.787-5.226-1.001-10.911-6.228-12.697-5.226-1.785-10.911 1.001-12.697 6.228-3.909 11.433-5.891 23.411-5.891 35.599v80c0 27.57 22.43 50 50 50zm181.998 52.516c-3.644 1.591-5.998 5.188-5.998 9.164v84.32h-80v-95.99c0-3.144-1.479-6.105-3.992-7.994-14.333-10.772-25.023-25.404-30.889-42.026h75.605c-.472 3.307-.723 6.644-.723 10.01 0 5.523 4.477 10 10 10s10-4.477 10-10c0-5.725.956-11.333 2.838-16.667 7.048-19.938 26-33.333 47.162-33.333 5.522 0 10-4.477 10-10s-4.478-10-10-10c-3.015 0-5.984-.445-8.844-1.329-9.324-2.865-16.395-9.874-19.469-18.671h28.312c16.542 0 30 13.458 30 30v20c0 36.289-21.558 68.347-54.002 82.516zm14.002-152.516h-20v-10c0-5.514 4.486-10 10-10s10 4.486 10 10zm-10-120c49.626 0 90 40.374 90 90v80c0 13.155-8.515 24.351-20.32 28.388.211-2.786.32-5.586.32-8.388v-100c0-38.598-31.402-70-70-70h-10v-20zm-70-106h20v66h-20zm-20 86h60v40h-60zm-86 110c0-27.57 22.43-50 50-50h126c27.57 0 50 22.43 50 50v40.027c-5.817-4.377-12.614-7.516-20-9.021v-11.006c0-16.542-13.458-30-30-30-7.678 0-14.688 2.902-20 7.663-5.312-4.761-12.322-7.663-20-7.663s-14.688 2.902-20 7.663c-5.312-4.761-12.322-7.663-20-7.663s-14.688 2.902-20 7.663c-5.312-4.761-12.322-7.663-20-7.663-16.542 0-30 13.458-30 30v30h-26zm56 70c-5.514 0-10-4.486-10-10v-40c0-5.514 4.486-10 10-10s10 4.486 10 10v40c0 5.514-4.486 10-10 10zm40 0c-5.514 0-10-4.486-10-10v-40c0-5.514 4.486-10 10-10s10 4.486 10 10v40c0 5.514-4.486 10-10 10zm40 0c-5.514 0-10-4.486-10-10v-40c0-5.514 4.486-10 10-10s10 4.486 10 10v40c0 5.514-4.486 10-10 10z"/></g></g></svg>