<svg id="Capa_1" enable-background="new 0 0 512 512" height="512" viewBox="0 0 512 512" width="512" xmlns="http://www.w3.org/2000/svg"><g><g><path d="m10 334.001h492v80h-492z" fill="#ff7d97"/><path d="m502 294.001v40h-492v-200h326v160z" fill="#eefaff"/><path d="m442 174.001 40 120h-146c0-24.541 0-92.97 0-120z" fill="#8690a6"/><circle cx="396" cy="414.001" fill="#eefaff" r="40"/><path d="m416 154.001v20h-40v-20c0-11.05 8.95-20 20-20s20 8.95 20 20z" fill="#ff7d97"/><path d="m233 214.001v40h-40v40h-40v-40h-40v-40h40v-40h40v40z" fill="#ff7d97"/><circle cx="113" cy="414.001" fill="#eefaff" r="40"/></g><g><circle cx="396" cy="414.001" r="10"/><circle cx="113" cy="414.001" r="10"/><path d="m502 284.001h-12.792l-37.721-113.162c-1.361-4.083-5.183-6.838-9.487-6.838h-16v-10c0-16.542-13.458-30-30-30s-30 13.458-30 30v10h-20v-30c0-5.523-4.478-10-10-10h-326c-5.522 0-10 4.477-10 10v280c0 5.523 4.478 10 10 10h54.006c4.646 22.795 24.847 40 48.994 40s44.348-17.205 48.994-40h185.012c4.646 22.795 24.847 40 48.994 40s44.348-17.205 48.994-40h57.006c5.522 0 10-4.477 10-10 0-7.085 0-113.405 0-120 0-5.523-4.478-10-10-10zm-116-130c0-5.514 4.486-10 10-10s10 4.486 10 10v10h-20zm48.792 30 33.333 100h-122.125c0-14.859 0-95.529 0-100zm-321.792 260c-16.542 0-30-13.458-30-30s13.458-30 30-30 30 13.458 30 30-13.458 30-30 30zm283 0c-16.542 0-30-13.458-30-30s13.458-30 30-30 30 13.458 30 30-13.458 30-30 30zm96-40h-47.006c-4.646-22.795-24.847-40-48.994-40s-44.348 17.205-48.994 40h-185.012c-4.646-22.795-24.847-40-48.994-40s-44.348 17.205-48.994 40h-44.006v-60h188c5.522 0 10-4.477 10-10s-4.478-10-10-10h-188v-180h306v150c0 5.523 4.478 10 10 10h156v20h-194c-5.522 0-10 4.477-10 10s4.478 10 10 10h194z"/><path d="m243 214.001c0-5.523-4.478-10-10-10h-30v-30c0-5.523-4.478-10-10-10h-40c-5.522 0-10 4.477-10 10v30h-30c-5.522 0-10 4.477-10 10v40c0 5.523 4.478 10 10 10h30v30c0 5.523 4.478 10 10 10h40c5.522 0 10-4.477 10-10v-30h30c5.522 0 10-4.477 10-10zm-20 30h-30c-5.522 0-10 4.477-10 10v30h-20v-30c0-5.523-4.478-10-10-10h-30v-20h30c5.522 0 10-4.477 10-10v-30h20v30c0 5.523 4.478 10 10 10h30z"/><path d="m367.495 48.352c-5.329 1.45-8.475 6.946-7.024 12.275l10.35 38.04c1.453 5.338 6.954 8.471 12.274 7.024 5.329-1.45 8.475-6.946 7.024-12.275l-10.35-38.04c-1.45-5.328-6.946-8.474-12.274-7.024z"/><path d="m451 58.741c-4.785-2.762-10.897-1.123-13.66 3.66l-20 34.64c-2.762 4.783-1.123 10.899 3.66 13.66 4.767 2.751 10.889 1.139 13.66-3.66l20-34.64c2.762-4.783 1.123-10.899-3.66-13.66z"/><path d="m456.548 148.131 38.63-10.35c5.335-1.429 8.501-6.913 7.071-12.247s-6.914-8.501-12.247-7.071l-38.63 10.35c-5.335 1.429-8.501 6.913-7.071 12.247 1.43 5.337 6.917 8.501 12.247 7.071z"/><circle cx="253" cy="334.001" r="10"/></g></g></svg>