<svg id="Capa_1" enable-background="new 0 0 511.997 511.997" height="512" viewBox="0 0 511.997 511.997" width="512" xmlns="http://www.w3.org/2000/svg"><g><g><path d="m149.995 105.999-140 120 13.07 29.3c4.32 9.68 6.66 20.12 6.9 30.7h.21l-.18 140c0 11.05 8.95 20 20 20h86c11.05 0 20-8.95 20-20 0-20.629 0-122.434 0-140l40-40h186v-140z" fill="#eefaff"/><path d="m78.825 105.999c-17.22 0-32.5 11.02-37.95 27.35l-30.88 92.65h71.17c17.22 0 32.5-11.02 37.95-27.35l30.88-92.65z" fill="#ff7d97"/><path d="m381.995 105.999h40v140h-40z" fill="#ff7d97"/><path d="m381.995 105.999h-146v-40h106c22.09 0 40 17.91 40 40z" fill="#8690a6"/><path d="m215.995 145.999h126v60h-126z" fill="#ff7d97"/><g fill="#8690a6"><path d="m88.295 145.999-13.34 40h-51.63l13.34-40z"/><path d="m49.995 285.999c11.05 0 20 8.95 20 20s-8.95 20-20 20h-20s-.01-39.37-.03-40z"/><path d="m49.995 365.999c11.05 0 20 8.95 20 20s-8.95 20-20 20h-20v-40z"/></g></g><g><path d="m351.995 205.999v-60c0-5.523-4.478-10-10-10h-126c-5.522 0-10 4.477-10 10v60c0 5.523 4.478 10 10 10h126c5.522 0 10-4.477 10-10zm-20-10h-106v-40h106z"/><path d="m510.939 121.526c-2.47-4.94-8.48-6.943-13.416-4.472l-40 20c-4.94 2.47-6.942 8.477-4.473 13.417 2.474 4.949 8.488 6.938 13.416 4.472l40-20c4.941-2.47 6.943-8.477 4.473-13.417z"/><path d="m506.467 217.054-40-20c-4.939-2.47-10.946-.468-13.416 4.472s-.468 10.947 4.473 13.417l40 20c4.94 2.47 10.947.466 13.416-4.472 2.469-4.94.467-10.947-4.473-13.417z"/><circle cx="308.995" cy="245.999" r="10"/><path d="m.862 230.072c9.369 23.591 19.133 35.274 19.133 57.806v138.12c0 16.542 13.458 30 30 30h86c16.542 0 30-13.458 30-30v-110h50c16.542 0 30-13.458 30-30v-30h18c5.522 0 10-4.477 10-10s-4.478-10-10-10h-68c-2.652 0-5.195 1.054-7.071 2.929l-40 40c-1.875 1.875-2.929 4.419-2.929 7.071v140c0 5.514-4.486 10-10 10h-86c-5.514 0-10-4.486-10-10v-10h10c16.542 0 30-13.458 30-30s-13.458-30-30-30h-10v-20h10c16.542 0 30-13.458 30-30s-13.458-30-30-30h-10.8c-2.418-18.351-9.189-28.572-13.789-40h55.759c21.549 0 40.611-13.738 47.437-34.188l28.601-85.812h214.792v120h-18c-5.522 0-10 4.477-10 10s4.478 10 10 10h68c5.522 0 10-4.477 10-10v-140c0-5.523-4.478-10-10-10h-31.006c-4.646-22.795-24.847-40-48.994-40h-106c-5.522 0-10 4.477-10 10v30c-17.353 0-131.864 0-147.17 0-21.549 0-40.611 13.738-47.438 34.192-4.34 13.02-26.543 79.636-30.879 92.646-.758 2.276-.689 4.904.354 7.236zm199.276 25.927h25.857v30c0 5.514-4.486 10-10 10h-50v-5.858zm-150.143 120c5.514 0 10 4.486 10 10s-4.486 10-10 10h-10v-20zm10-70c0 5.514-4.486 10-10 10h-10v-20h10c5.514 0 10 4.485 10 10zm352-70h-20v-120h20zm-166-160h96c13.036 0 24.152 8.361 28.28 20h-124.28zm-167.17 40h57.296l-26.491 79.484c-4.096 12.271-15.535 20.516-28.465 20.516h-57.296l6.666-20h44.42c4.304 0 8.125-2.753 9.486-6.836l13.34-40c1.017-3.049.506-6.402-1.373-9.01-1.88-2.608-4.898-4.153-8.113-4.153h-37.739c4.243-11.983 15.524-20.001 28.269-20.001zm-34.959 40h30.552l-6.67 20h-30.547z"/></g></g></svg>