<svg id="Capa_1" enable-background="new 0 0 512 512" height="512" viewBox="0 0 512 512" width="512" xmlns="http://www.w3.org/2000/svg"><g><g><path d="m256 36h60v40h-60z" fill="#ff7d97"/><path d="m442 236-186-120-186 120-60 240h492z" fill="#eefaff"/><path d="m256 296-100 180h200c0-23.84 0-159.551 0-180z" fill="#8690a6"/><path d="m472 356 15 60h-91v-60z" fill="#ff7d97"/><path d="m356 436v40h-100v-40z" fill="#91def5"/><path d="m296 396h60v40h-60z" fill="#fff2a0"/><g fill="#ff7d97"><path d="m156 296v180c60.4-24.16 100-102.65 100-167.7v-12.3z"/><path d="m116 356v60h-91l15-60z"/></g></g><g><path d="m256 266c5.523 0 10-4.477 10-10v-30h30c5.523 0 10-4.477 10-10s-4.477-10-10-10h-30v-30c0-5.523-4.477-10-10-10s-10 4.477-10 10v30h-30c-5.523 0-10 4.477-10 10s4.477 10 10 10h30v30c0 5.523 4.477 10 10 10z"/><path d="m136 286c-5.523 0-10 4.477-10 10s4.477 10 10 10h10v160h-123.192l10-40h83.192c5.523 0 10-4.477 10-10v-60c0-5.523-4.477-10-10-10h-63.192l25.935-103.74 177.257-114.359 57.468 37.076c4.641 2.996 10.831 1.66 13.824-2.981 2.994-4.641 1.659-10.83-2.981-13.824l-58.311-37.621v-24.551h50c5.523 0 10-4.477 10-10v-40c0-5.523-4.477-10-10-10h-60c-5.523 0-10 4.477-10 10v74.551l-181.421 117.046c-2.134 1.376-3.664 3.514-4.28 5.978l-60 240c-.747 2.987-.075 6.152 1.819 8.58 1.895 2.426 4.803 3.845 7.882 3.845h492c3.08 0 5.987-1.419 7.882-3.846s2.566-5.592 1.819-8.58l-60-240c-.616-2.464-2.146-4.601-4.28-5.978l-47.534-30.667c-4.64-2.994-10.831-1.659-13.824 2.981-2.994 4.641-1.659 10.83 2.981 13.824l44.213 28.524 25.935 103.742h-63.192c-5.523 0-10 4.477-10 10v60c0 5.523 4.477 10 10 10h83.192l10 40h-123.192v-160h10c5.523 0 10-4.477 10-10s-4.477-10-10-10c-12.5 0-228.14 0-240 0zm130-240h40v20h-40zm-160 320v40h-68.192l10-40zm300 40v-40h58.192l10 40zm-240 16.005c36.541-20.623 55.663-55.907 78.378-91.37-6.884 49.054-35.313 104.374-78.378 129.378zm0-23.727v-92.288h70.629c-24.593 36.343-41.146 71.019-70.629 92.288zm100 67.722v-20h80v20zm80-40h-40v-20h40zm0-40h-50c-5.523 0-10 4.477-10 10v30h-30c-5.523 0-10 4.477-10 10v30h-53.366c46.505-36.776 73.366-103.372 73.366-157.7v-2.3h80z"/><circle cx="356" cy="182" r="10"/></g></g></svg>