<svg id="Capa_1" enable-background="new 0 0 512.002 512.002" height="512" viewBox="0 0 512.002 512.002" width="512" xmlns="http://www.w3.org/2000/svg"><g><g><path d="m256.001 10.001-200 133.25v358.75h400v-358.75c-1.838-1.224-184.478-122.908-200-133.25z" fill="#eefaff"/><path d="m276.001 170.001h-40c-33.14 0-60 26.86-60 60v46h40v40h80v-40h40v-46c0-33.14-26.86-60-60-60z" fill="#a0e5a5"/><path d="m416.001 50.001v66.57l-.01.02-40.01-26.65.02-.04v-39.9z" fill="#8690a6"/><path d="m336.001 276.001v80h-40c0-9.679 0-70.257 0-80z" fill="#fce8d0"/><path d="m256.001 502.001h-40c0-39.718 0-123.97 0-186h80v186z" fill="#8690a6"/><g fill="#fce8d0"><path d="m296.001 110.001v20c0 14.77-8.09 27.52-20 34.45v5.55c0 11.04-8.95 20-20 20s-20-8.96-20-20v-5.55c-11.91-6.93-20-19.68-20-34.45v-20c0-22.09 17.91-40 40-40s40 17.91 40 40z"/><path d="m216.001 356.001h-40v-80h40z"/></g></g><g><path d="m15.546 182.223 30.455-20.291v340.069c0 5.522 4.477 10 10 10h400c5.523 0 10-4.478 10-10v-121c0-5.523-4.477-10-10-10s-10 4.477-10 10v111h-140v-126h30c5.523 0 10-4.477 10-10v-126c0-32.405-22.137-59.728-52.079-67.665 7.655-8.926 12.079-20.371 12.079-32.335v-20c0-27.57-22.43-50-50-50s-50 22.43-50 50v20c0 11.964 4.424 23.409 12.079 32.335-29.943 7.937-52.079 35.26-52.079 67.665v126c0 5.523 4.477 10 10 10h30v126h-140v-343.394l190-126.589 190 126.589v142.395c0 5.523 4.477 10 10 10s10-4.477 10-10v-129.07l30.455 20.291c4.575 3.048 10.79 1.84 13.867-2.777 3.063-4.596 1.819-10.805-2.777-13.867-11.506-7.666-69.967-46.616-81.545-54.33v-61.248c0-5.523-4.477-10-10-10h-40c-5.523 0-10 4.477-10 10v21.272l-104.455-69.594c-3.358-2.239-7.732-2.237-11.089 0-10.809 7.202-238.553 158.938-246 163.9-4.596 3.062-5.839 9.271-2.777 13.867 3.062 4.597 9.27 5.84 13.866 2.777zm210.455 143.778h60v166h-20v-136c0-5.523-4.477-10-10-10s-10 4.477-10 10v136h-20zm80 20v-60h20v60zm-80-236c0-16.542 13.458-30 30-30s30 13.458 30 30v20c0 10.684-5.619 20.331-15.029 25.807-3.078 1.791-4.971 5.083-4.971 8.643v5.55c0 5.514-4.486 10-10 10s-10-4.486-10-10v-5.55c0-3.561-1.893-6.853-4.971-8.643-9.411-5.476-15.029-15.124-15.029-25.807zm1.962 70.655c4.307 11.296 15.248 19.345 28.038 19.345s23.731-8.049 28.038-19.345c23.761 3.857 41.962 24.512 41.962 49.345v36h-20v-36c0-5.523-4.477-10-10-10s-10 4.477-10 10v76h-60v-76c0-5.523-4.477-10-10-10s-10 4.477-10 10v36h-20v-36c0-24.833 18.201-45.488 41.962-49.345zm-41.962 165.345v-60h20v60zm200-286h20v37.923l-20-13.325z"/><circle cx="456.001" cy="336.001" r="10"/></g></g></svg>