<svg id="Capa_1" enable-background="new 0 0 512 512" height="512" viewBox="0 0 512 512" width="512" xmlns="http://www.w3.org/2000/svg"><g><g><path d="m382 210v-160h-252v160h-120v292h492v-292z" fill="#eefaff"/><path d="m422 410h40v92h-40z" fill="#99ebfa"/><path d="m422 10v40c-10.626 0-305.756 0-332 0v-40z" fill="#99ebfa"/><path d="m316 130v40h-40v40h-40v-40h-40v-40h40v-40h40v40z" fill="#ff7d97"/><g fill="#99ebfa"><path d="m170 370v132h172v-132c-4.85 0-167.15 0-172 0z"/><path d="m50 410h40v92h-40z"/></g></g><g><path d="m502 200h-110v-140h30c5.522 0 10-4.477 10-10v-40c0-5.523-4.478-10-10-10h-121c-5.522 0-10 4.477-10 10s4.478 10 10 10h111v20h-312v-20h111c5.523 0 10-4.477 10-10s-4.477-10-10-10h-121c-5.523 0-10 4.477-10 10v40c0 5.523 4.477 10 10 10h30v140h-110c-5.523 0-10 4.477-10 10v292c0 5.522 4.477 10 10 10h492c5.522 0 10-4.478 10-10v-292c0-5.523-4.478-10-10-10zm-130-140v432h-20v-122c0-5.523-4.478-10-10-10h-172c-5.523 0-10 4.477-10 10v122h-20v-432zm-106 320h66v112h-66zm-20 112h-66v-112h66zm-226-272h100v272h-20v-82c0-5.523-4.477-10-10-10h-40c-5.523 0-10 4.477-10 10v82h-20zm60 272h-20v-72h20zm372 0h-20v-72h20zm40 0h-20v-82c0-5.523-4.478-10-10-10h-40c-5.522 0-10 4.477-10 10v82h-20v-272h100z"/><path d="m196 180h30v30c0 5.523 4.477 10 10 10h40c5.522 0 10-4.477 10-10v-30h30c5.522 0 10-4.477 10-10v-40c0-5.523-4.478-10-10-10h-30v-30c0-5.523-4.478-10-10-10h-40c-5.523 0-10 4.477-10 10v30h-30c-5.523 0-10 4.477-10 10v40c0 5.523 4.477 10 10 10zm10-40h30c5.522 0 10-4.477 10-10v-30h20v30c0 5.523 4.478 10 10 10h30v20h-30c-5.522 0-10 4.477-10 10v30h-20v-30c0-5.523-4.478-10-10-10h-30z"/><path d="m170 260h66c5.522 0 10-4.477 10-10s-4.478-10-10-10h-66c-5.523 0-10 4.477-10 10s4.477 10 10 10z"/><path d="m170 300h66c5.522 0 10-4.477 10-10s-4.478-10-10-10h-66c-5.523 0-10 4.477-10 10s4.477 10 10 10z"/><path d="m266 250c0 5.523 4.478 10 10 10h66c5.522 0 10-4.477 10-10s-4.478-10-10-10h-66c-5.522 0-10 4.477-10 10z"/><path d="m342 280h-66c-5.522 0-10 4.477-10 10s4.478 10 10 10h66c5.522 0 10-4.477 10-10s-4.478-10-10-10z"/><path d="m170 340h66c5.522 0 10-4.477 10-10s-4.478-10-10-10h-66c-5.523 0-10 4.477-10 10s4.477 10 10 10z"/><path d="m342 320h-66c-5.522 0-10 4.477-10 10s4.478 10 10 10h66c5.522 0 10-4.477 10-10s-4.478-10-10-10z"/><path d="m422 260h40c5.522 0 10-4.477 10-10s-4.478-10-10-10h-40c-5.522 0-10 4.477-10 10s4.478 10 10 10z"/><path d="m422 300h40c5.522 0 10-4.477 10-10s-4.478-10-10-10h-40c-5.522 0-10 4.477-10 10s4.478 10 10 10z"/><path d="m422 340h40c5.522 0 10-4.477 10-10s-4.478-10-10-10h-40c-5.522 0-10 4.477-10 10s4.478 10 10 10z"/><path d="m422 380h40c5.522 0 10-4.477 10-10s-4.478-10-10-10h-40c-5.522 0-10 4.477-10 10s4.478 10 10 10z"/><path d="m50 260h40c5.523 0 10-4.477 10-10s-4.477-10-10-10h-40c-5.523 0-10 4.477-10 10s4.477 10 10 10z"/><path d="m50 300h40c5.523 0 10-4.477 10-10s-4.477-10-10-10h-40c-5.523 0-10 4.477-10 10s4.477 10 10 10z"/><path d="m50 340h40c5.523 0 10-4.477 10-10s-4.477-10-10-10h-40c-5.523 0-10 4.477-10 10s4.477 10 10 10z"/><path d="m50 380h40c5.523 0 10-4.477 10-10s-4.477-10-10-10h-40c-5.523 0-10 4.477-10 10s4.477 10 10 10z"/><circle cx="256" cy="10" r="10"/></g></g></svg>