<svg id="Capa_1" enable-background="new 0 0 512.006 512.006" height="512" viewBox="0 0 512.006 512.006" width="512" xmlns="http://www.w3.org/2000/svg"><g><g><path d="m170.004 110c0 33.138-26.859 60-60 60-33.138 0-60-26.859-60-60 0-33.138 26.859-60 60-60 33.138 0 60 26.859 60 60z" fill="#a0e5a5"/><path d="m484.434 27.57c23.43 23.44 23.43 61.42 0 84.86l-242.3 242.29-127.28 70.71-28.28-28.28 70.71-127.28 242.29-242.3c23.44-23.43 61.42-23.43 84.86 0z" fill="#eefaff"/><circle cx="442.004" cy="70" fill="#ff7d97" r="19.997"/><path d="m462.004 422c0 22.047-17.875 40-40 40-22.132 0-40-17.959-40-40 0-22.047 17.875-40 40-40 22.131 0 40 17.959 40 40z" fill="#a0e5a5"/><path d="m399.574 140.71-115.01 115.02-28.29-28.29 115.02-115.01z" fill="#99ebfa"/><circle cx="110.004" cy="110" fill="#fff2a0" r="20"/><path d="m49.505 412.508h59.998v39.994h-59.998z" fill="#ff7d97" transform="matrix(.707 -.707 .707 .707 -282.571 182.938)"/><path d="m72.434 467.86-28.29 28.28c-7.81 7.81-20.47 7.81-28.28 0s-7.81-20.47 0-28.28l28.29-28.28z" fill="#8690a6"/></g><g><circle cx="422.004" cy="422" r="10"/><path d="m463.215 91.212c11.725-11.725 11.725-30.698 0-42.422-11.724-11.724-30.696-11.725-42.422 0-11.725 11.725-11.725 30.698 0 42.422 11.724 11.723 30.696 11.724 42.422 0zm-28.28-28.281c3.908-3.907 10.228-3.908 14.137 0 3.902 3.902 3.916 10.222 0 14.138-3.908 3.907-10.228 3.908-14.137 0-3.901-3.901-3.916-10.221 0-14.138z"/><path d="m291.635 262.801 115.011-115.02c3.905-3.905 3.905-10.237 0-14.142l-28.28-28.28c-3.905-3.904-10.236-3.904-14.142 0l-115.021 115.01c-3.904 3.902-3.905 10.237-.001 14.143l28.29 28.29c3.905 3.902 10.238 3.905 14.143-.001zm79.659-136.229 14.139 14.139-100.87 100.877-14.147-14.147z"/><path d="m220.926 333.51 28.28-28.29c3.904-3.906 3.903-10.238-.002-14.142-3.907-3.905-10.239-3.903-14.143.002l-28.28 28.29c-3.904 3.906-3.903 10.238.002 14.142 3.906 3.905 10.238 3.905 14.143-.002z"/><path d="m220.926 262.801c-3.905-3.906-10.236-3.906-14.142-.002l-28.29 28.28c-3.906 3.904-3.907 10.236-.003 14.142 3.903 3.904 10.234 3.909 14.142.002l28.29-28.28c3.906-3.904 3.907-10.237.003-14.142z"/><path d="m493.344 404.32c2.775 4.806 8.9 6.409 13.66 3.66 4.783-2.762 6.422-8.877 3.66-13.66l-20-34.64c-2.761-4.782-8.877-6.422-13.66-3.66s-6.422 8.877-3.66 13.66l4.956 8.584-18.823 10.65c-7.186-8.117-16.859-13.71-27.472-15.891v-21.023h10c5.522 0 10-4.477 10-10s-4.478-10-10-10h-40c-5.522 0-10 4.477-10 10s4.478 10 10 10h10v21.023c-10.587 2.176-20.237 7.748-27.416 15.832l-18.204-10.514 5-8.661c2.762-4.783 1.123-10.898-3.66-13.66-4.784-2.761-10.898-1.123-13.66 3.66l-20 34.64c-2.762 4.783-1.123 10.898 3.66 13.66 4.767 2.751 10.889 1.139 13.66-3.66l4.999-8.659 18.197 10.51c-1.693 5.083-2.576 10.431-2.576 15.829s.883 10.746 2.576 15.829l-18.197 10.51-4.999-8.659c-2.761-4.782-8.877-6.422-13.66-3.66s-6.422 8.877-3.66 13.66l20 34.64c2.775 4.806 8.9 6.409 13.66 3.66 4.783-2.762 6.422-8.877 3.66-13.66l-5-8.661 18.204-10.514c7.18 8.084 16.829 13.656 27.417 15.832v21.023h-10c-5.522 0-10 4.478-10 10s4.478 10 10 10h40c5.522 0 10-4.478 10-10s-4.478-10-10-10h-10v-21.023c10.614-2.182 20.287-7.774 27.472-15.891l18.823 10.65-4.956 8.584c-2.762 4.783-1.123 10.898 3.66 13.66 4.767 2.751 10.889 1.139 13.66-3.66l20-34.64c2.762-4.783 1.123-10.898-3.66-13.66-4.784-2.762-10.898-1.123-13.66 3.66l-5.043 8.735-18.849-10.664c1.676-5.06 2.552-10.38 2.552-15.751s-.876-10.691-2.552-15.751l18.849-10.664zm-71.34 47.68c-16.438 0-30-13.347-30-30 0-16.638 13.547-30 30-30 16.434 0 30 13.342 30 30 0 16.638-13.547 30-30 30z"/><path d="m110.004 140c16.542 0 30-13.458 30-30s-13.458-30-30-30-30 13.458-30 30 13.458 30 30 30zm0-40c5.514 0 10 4.486 10 10s-4.486 10-10 10-10-4.486-10-10 4.486-10 10-10z"/><path d="m10.004 140c5.522 0 10-4.477 10-10v-10h20.713c1.652 11.614 6.175 22.535 13.222 31.923l-14.645 14.644-7.068-7.069c-3.905-3.905-10.235-3.905-14.143 0-3.905 3.905-3.905 10.237 0 14.142l28.279 28.28c3.905 3.905 10.235 3.906 14.143 0 3.905-3.905 3.905-10.237 0-14.142l-7.069-7.069 14.644-14.644c9.387 7.046 20.308 11.569 31.923 13.221v20.714h-10c-5.522 0-10 4.477-10 10s4.478 10 10 10h40c5.522 0 10-4.477 10-10s-4.478-10-10-10h-10v-20.713c11.614-1.652 22.534-6.174 31.923-13.221l14.645 14.645-7.069 7.069c-3.905 3.905-3.905 10.237 0 14.142 3.906 3.905 10.236 3.905 14.143 0l28.279-28.28c3.905-3.905 3.905-10.237 0-14.142-3.906-3.905-10.236-3.905-14.143 0l-7.068 7.069-14.644-14.644c7.046-9.387 11.569-20.308 13.221-31.924h20.713v10c0 5.523 4.478 10 10 10s10-4.477 10-10v-40.001c0-5.523-4.478-10-10-10s-10 4.477-10 10v10h-20.713c-1.652-11.614-6.175-22.535-13.222-31.923l14.645-14.644 7.068 7.069c3.905 3.905 10.235 3.906 14.143 0 3.905-3.905 3.905-10.237 0-14.142l-28.279-28.28c-3.905-3.905-10.235-3.905-14.143 0-3.905 3.905-3.905 10.237 0 14.142l7.069 7.069-14.644 14.644c-9.387-7.046-20.308-11.569-31.923-13.221v-20.714h10c5.522 0 10-4.477 10-10s-4.478-10-10-10h-40c-5.522 0-10 4.477-10 10s4.478 10 10 10h10v20.713c-11.614 1.652-22.534 6.175-31.923 13.222l-14.645-14.645 7.069-7.069c3.905-3.905 3.905-10.237 0-14.142-3.906-3.905-10.236-3.905-14.143 0l-28.279 28.281c-3.905 3.905-3.905 10.237 0 14.142 3.906 3.905 10.236 3.905 14.143 0l7.068-7.069 14.644 14.644c-7.046 9.387-11.569 20.308-13.221 31.923h-20.713v-10c0-5.523-4.478-10-10-10s-10 4.477-10 10v40c0 5.523 4.477 10 10 10zm100-80c27.699 0 50 22.426 50 50 0 27.587-22.316 50-50 50-27.699 0-50-22.426-50-50 0-27.586 22.315-50 50-50z"/><circle cx="368.004" cy="228" r="10"/><path d="m392.503 20.499-242.29 242.3c-.657.657-1.219 1.402-1.67 2.214l-70.029 126.055-69.721 69.721c-11.722 11.722-11.726 30.697 0 42.421 11.721 11.723 30.695 11.729 42.42.002 58.638-58.615 24.153-24.151 69.723-69.721l126.055-70.029c.813-.451 1.558-1.014 2.215-1.67l94.495-94.491c3.905-3.905 3.905-10.237 0-14.142s-10.235-3.905-14.143 0l-93.505 93.501-119.462 66.367-17.612-17.613 66.367-119.462 241.297-241.309c19.498-19.489 51.224-19.489 70.718-.002 19.49 19.498 19.49 51.223.001 70.719l-84.199 84.196c-3.905 3.905-3.905 10.237 0 14.142 3.906 3.906 10.236 3.906 14.143 0l84.2-84.197c27.284-27.294 27.284-71.706-.003-99.003-27.293-27.283-71.705-27.281-99 .001zm-355.431 468.57c-3.909 3.909-10.227 3.909-14.138 0-3.906-3.908-3.907-10.228-.001-14.136l21.216-21.215 14.137 14.138zm35.357-35.356-14.137-14.138 28.284-28.282 14.137 14.138z"/></g></g></svg>