<svg id="Capa_1" enable-background="new 0 0 512 512" height="512" viewBox="0 0 512 512" width="512" xmlns="http://www.w3.org/2000/svg"><g><g><path d="m256 416c-112.514 0-180-73.48-180-160 0-59.793 31.822-94.778 90.56-110.3 16.43-29.47 50.31-49.7 89.44-49.7s73.01 20.23 89.44 49.7c58.734 15.52 90.56 50.503 90.56 110.3 0 86.453-67.495 160-180 160z" fill="#eefaff"/><circle cx="256" cy="276" fill="#99ebfa" r="60"/></g><g><path d="m256 346c38.598 0 70-31.402 70-70s-31.402-70-70-70-70 31.402-70 70 31.402 70 70 70zm0-120c27.57 0 50 22.43 50 50s-22.43 50-50 50-50-22.43-50-50 22.43-50 50-50z"/><path d="m462 186h-35.392c-15.542-22.758-40.593-39.172-74.601-48.866-19.475-31.647-55.849-51.134-96.007-51.134s-76.532 19.487-96.007 51.134c-34.009 9.694-59.06 26.109-74.601 48.866h-35.392c-27.57 0-50 22.43-50 50v60c0 27.57 22.43 50 50 50h42.124c32.991 50.923 92.354 80 163.876 80 17.21 0 33.934-1.692 49.707-5.031 5.403-1.144 8.856-6.451 7.712-11.854-1.143-5.404-6.453-8.854-11.854-7.713-14.414 3.051-29.744 4.598-45.565 4.598-59.168 0-108.851-21.653-139.256-60h19.256c5.523 0 10-4.478 10-10s-4.477-10-10-10h-32.52c-11.445-20.987-17.48-45.061-17.48-70 0-19.299 3.618-36.082 10.743-50h39.257c5.523 0 10-4.478 10-10s-4.477-10-10-10h-24.864c13.546-13.859 32.689-23.949 57.979-30.632 2.626-.693 4.857-2.426 6.18-4.799 15.327-27.491 46.251-44.569 80.705-44.569s65.378 17.078 80.706 44.569c1.323 2.373 3.554 4.105 6.18 4.799 25.289 6.683 44.432 16.773 57.978 30.632h-24.864c-5.523 0-10 4.478-10 10s4.477 10 10 10h39.257c7.125 13.917 10.743 30.7 10.743 50 0 24.938-6.034 49.011-17.48 70h-32.52c-5.523 0-10 4.478-10 10s4.477 9.99 10 9.99h19.236c-5.3 6.668-11.205 12.907-17.705 18.605-4.153 3.642-4.568 9.959-.927 14.112s9.959 4.568 14.112.927c11.307-9.913 21.088-21.212 29.15-33.634h42.134c27.57 0 50-22.43 50-50v-60c0-27.57-22.43-50-50-50zm-380.89 140h-31.11c-16.542 0-30-13.458-30-30v-60c0-16.542 13.458-30.01 30-30.01l24.811.01c-5.846 14.7-8.811 31.415-8.811 50 0 24.581 5.193 48.468 15.11 70zm410.89-30c0 16.542-13.458 30-30 30h-31.111c9.918-21.534 15.111-45.419 15.111-70 0-18.559-2.965-35.3-8.81-50h24.81c16.542 0 30 13.458 30 30z"/><path d="m220.472 164.944 35.528-17.763 35.528 17.764c4.939 2.469 10.947.468 13.417-4.473 2.47-4.939.468-10.946-4.472-13.416l-40-20c-2.815-1.408-6.129-1.408-8.944 0l-40 20c-4.94 2.47-6.942 8.477-4.472 13.416 2.469 4.94 8.476 6.944 13.415 4.472z"/><circle cx="346" cy="396.001" r="10"/></g></g></svg>