<svg id="Capa_1" enable-background="new 0 0 512 512" height="512" viewBox="0 0 512 512" width="512" xmlns="http://www.w3.org/2000/svg"><g><g><g><path d="m376 336.001h-240c-44.18 0-80 35.82-80 80v86l400-.1v-85.9c0-44.18-35.82-80-80-80z" fill="#99ebfa"/><path d="m256 10.001c-77.32 0-140 62.68-140 140v146h280v-146c0-77.32-62.68-140-140-140z" fill="#fff2a0"/><path d="m366 176.001h-10v-46c-33.14 0-60-26.86-60-60-24.99 37.48-67.06 60-112.11 60h-27.89v46h-10c-16.57 0-30 13.43-30 30s13.43 30 30 30h12.013c6.347 31.319 27.687 58.427 57.987 71.668v28.332s11.84 20 40 20 40-20 40-20v-28.332c29.285-12.797 51.42-39.267 57.987-71.668h12.013c16.57 0 30-13.43 30-30s-13.43-30-30-30z" fill="#fce8d0"/><path d="m456 501.901v.1h-113.03l-23.44-23.44 56.57-56.57z" fill="#eefaff"/><path d="m376.1 421.991-56.57 56.57-28.29-28.29c-15.62-15.62-15.62-40.95 0-56.57s40.95-15.62 56.57 0z" fill="#fce8d0"/><path d="m276 256.001v20h-40v-20c0-11.05 8.95-20 20-20s20 8.95 20 20z" fill="#ff7d97"/><path d="m192.64 478.561-23.44 23.44h-113.14l80.01-80.01z" fill="#eefaff"/></g><path d="m220.93 393.701c15.62 15.62 15.62 40.95 0 56.57l-28.29 28.29-56.57-56.57 28.29-28.29c15.62-15.62 40.95-15.62 56.57 0z" fill="#fce8d0"/></g><g><path d="m206 326.001h-70c-49.626 0-90 40.374-90 90v86c0 5.434 4.458 9.998 10.038 9.998.841 0 399.817-.008 399.962-.008 5.489 0 10.155-4.585 10-10.325v-85.665c0-49.626-40.374-90-90-90h-70v-12.009c4.603-2.352 9.041-5.018 13.262-7.991h76.738c5.523 0 10-4.478 10-10v-146c0-25.31-6.424-50.331-18.579-72.361-2.668-4.834-8.75-6.592-13.586-3.925-4.836 2.668-6.593 8.751-3.925 13.587 10.526 19.079 16.09 40.76 16.09 62.699v21.381c-5.888-3.415-12.717-5.381-20-5.381v-36c0-5.522-4.477-10-10-10-27.57 0-50-22.43-50-50 0-4.406-2.884-8.294-7.102-9.571-4.216-1.275-8.774.358-11.218 4.023-23.191 34.782-61.991 55.548-103.79 55.548h-27.89c-5.523 0-10 4.478-10 10v36c-7.283 0-14.112 1.966-20 5.381v-21.381c0-71.683 58.318-130 130-130 18.581 0 36.517 3.834 53.311 11.396 5.034 2.269 10.956.023 13.224-5.013s.023-10.956-5.013-13.224c-19.393-8.731-40.091-13.159-61.522-13.159-82.71 0-150 67.29-150 150v146c0 5.522 4.477 10 10 10h76.738c4.222 2.974 8.66 5.64 13.262 7.991zm80 6.779c-3.382 4.119-12.801 13.221-30 13.221s-26.618-9.102-30-13.221v-10.919c9.706 2.75 19.75 4.14 30 4.14s20.293-1.39 30-4.14zm-93.36 131.639-42.428-42.427 21.219-21.219c11.697-11.697 30.731-11.698 42.428 0 11.723 11.721 11.725 30.704 0 42.427zm-56.57-28.285 42.428 42.427-13.44 13.44h-84.855zm162.241 7.065c-11.722-11.721-11.725-30.702 0-42.427 11.722-11.723 30.703-11.725 42.427 0l21.218 21.22-42.427 42.426zm35.361 35.361 42.426-42.425 55.86 55.866h-84.846zm112.328-62.559v61.757c-9.756-9.757-80.983-80.991-91.119-91.128-19.538-19.538-51.171-19.542-70.712 0-19.538 19.538-19.541 51.17 0 70.712l34.659 34.659h-125.486l34.659-34.659c19.539-19.539 19.542-51.17 0-70.712-19.496-19.494-51.217-19.494-70.713 0l-91.288 91.289v-61.917c0-38.599 31.402-70 70-70h75.032c6.193 7.269 20.523 20 44.968 20s38.775-12.731 44.968-20h75.032c38.598-.001 70 31.4 70 69.999zm-105.149-130c9.675-11.706 16.831-25.306 20.981-40h4.168c7.283 0 14.112-1.966 20-5.381v45.381zm45.149-80c0 11.028-8.972 20-20 20h-.458c.3-3.317.458-6.657.458-10v-30c11.028 0 20 8.972 20 20zm-220-66h17.89c40.753 0 79.049-17.011 106.208-46.389 8.621 23.992 29.993 41.954 55.902 45.677v76.712c0 49.837-40.392 90-90 90-49.62 0-90-40.192-90-90zm-20 46v30c0 3.344.158 6.683.458 10h-.458c-11.028 0-20-8.972-20-20s8.972-20 20-20zm-20 54.619c5.888 3.415 12.717 5.381 20 5.381h4.169c4.151 14.697 11.307 28.296 20.979 40h-45.148z"/><path d="m196 206.001h40c4.044 0 7.691-2.437 9.239-6.173 1.548-3.737.692-8.038-2.167-10.898l-20-20c-3.905-3.904-10.237-3.904-14.143 0-3.905 3.905-3.905 10.237 0 14.143l2.929 2.929h-15.858c-5.523 0-10 4.478-10 10s4.477 9.999 10 9.999z"/><path d="m276 206.001h40c5.523 0 10-4.478 10-10s-4.477-10-10-10h-15.858l2.929-2.929c3.905-3.905 3.905-10.237 0-14.143-3.905-3.904-10.237-3.904-14.143 0l-20 20c-2.86 2.86-3.715 7.161-2.167 10.898 1.548 3.738 5.195 6.174 9.239 6.174z"/><path d="m226 256.001v20c0 5.522 4.477 10 10 10h40c5.523 0 10-4.478 10-10v-20c0-16.542-13.458-30-30-30s-30 13.458-30 30zm20 0c0-5.514 4.486-10 10-10s10 4.486 10 10v10h-20z"/><path d="m502 246.001h-66c-5.523 0-10 4.478-10 10s4.477 10 10 10h66c5.523 0 10-4.478 10-10s-4.477-10-10-10z"/><path d="m443.071 223.072 40-40c3.905-3.905 3.905-10.237 0-14.143-3.905-3.904-10.237-3.904-14.143 0l-40 40c-3.905 3.905-3.905 10.237 0 14.143 3.907 3.906 10.238 3.905 14.143 0z"/><path d="m483.071 343.072c3.905-3.905 3.905-10.237 0-14.143l-40-40c-3.905-3.904-10.237-3.904-14.143 0-3.905 3.905-3.905 10.237 0 14.143l40 40c3.907 3.906 10.238 3.905 14.143 0z"/><path d="m0 256.001c0 5.522 4.477 10 10 10h66c5.523 0 10-4.478 10-10s-4.477-10-10-10h-66c-5.523 0-10 4.478-10 10z"/><path d="m43.071 168.93c-3.905-3.904-10.237-3.904-14.143 0-3.905 3.905-3.905 10.237 0 14.143l40 40c3.906 3.905 10.237 3.905 14.143 0 3.905-3.905 3.905-10.237 0-14.143z"/><path d="m83.071 288.93c-3.905-3.904-10.237-3.904-14.143 0l-40 40c-3.905 3.905-3.905 10.237 0 14.143 3.906 3.905 10.237 3.905 14.143 0l40-40c3.906-3.906 3.906-10.238 0-14.143z"/><circle cx="351" cy="47.002" r="10"/></g></g></svg>