<svg id="Capa_1" enable-background="new 0 0 512 512" height="512" viewBox="0 0 512 512" width="512" xmlns="http://www.w3.org/2000/svg"><g><g><circle cx="256" cy="256" fill="#a0e5a5" r="180"/><g fill="#fff2a0"><circle cx="376" cy="256" r="20"/><path d="m354.99 157.01c7.82 7.81 7.82 20.47 0 28.28-7.81 7.81-20.47 7.81-28.28 0s-7.81-20.47 0-28.28c7.81-7.82 20.47-7.82 28.28 0z"/><path d="m354.99 326.71c7.82 7.81 7.82 20.47 0 28.28-7.81 7.82-20.47 7.82-28.28 0-7.81-7.81-7.81-20.47 0-28.28s20.47-7.81 28.28 0z"/><circle cx="256" cy="136" r="20"/><circle cx="256" cy="256" r="20"/><circle cx="256" cy="376" r="20"/><path d="m185.29 157.01c7.81 7.81 7.81 20.47 0 28.28s-20.47 7.81-28.28 0c-7.82-7.81-7.82-20.47 0-28.28 7.81-7.82 20.47-7.82 28.28 0z"/><path d="m185.29 326.71c7.81 7.81 7.81 20.47 0 28.28-7.81 7.82-20.47 7.82-28.28 0-7.82-7.81-7.82-20.47 0-28.28 7.81-7.81 20.47-7.81 28.28 0z"/><circle cx="136" cy="256" r="20"/></g></g><g><circle cx="316" cy="256" r="10"/><circle cx="298.43" cy="213.57" r="9.998"/><circle cx="298.43" cy="298.43" r="9.998"/><circle cx="256" cy="196" r="10"/><circle cx="256" cy="316" r="10"/><circle cx="213.57" cy="213.57" r="9.998"/><circle cx="213.57" cy="298.43" r="9.998"/><circle cx="196" cy="256" r="10"/><path d="m236 512h40c5.522 0 10-4.478 10-10s-4.478-10-10-10h-10v-10.999c0-5.522-4.478-10-10-10s-10 4.478-10 10v10.999h-10c-5.523 0-10 4.478-10 10s4.477 10 10 10z"/><path d="m502 226c-5.522 0-10 4.478-10 10v10h-46.263c-.944-18.317-4.488-36.202-10.578-53.39l18.683-7.738 3.83 9.246c2.106 5.078 7.94 7.533 13.067 5.409 5.102-2.115 7.523-7.966 5.409-13.067l-15.31-36.956c-2.112-5.103-7.961-7.529-13.064-5.414-5.103 2.112-7.526 7.962-5.414 13.064l3.828 9.241-18.69 7.74c-7.87-16.483-18.008-31.635-30.262-45.228l28.472-28.466 7.07 7.07c3.907 3.905 10.236 3.904 14.143 0 3.905-3.905 3.905-10.236 0-14.143-9.464-9.464-17.766-17.766-28.29-28.29-3.906-3.904-10.238-3.904-14.143 0-3.905 3.906-3.905 10.237 0 14.143l7.078 7.078-28.472 28.466c-13.593-12.255-28.745-22.393-45.23-30.263l7.74-18.69 9.241 3.828c5.102 2.115 10.952-.313 13.064-5.414 2.113-5.103-.312-10.952-5.414-13.064l-36.956-15.31c-5.099-2.111-10.953.308-13.067 5.409s.308 10.952 5.409 13.067l9.246 3.83-7.738 18.683c-17.187-6.09-35.072-9.634-53.39-10.578v-46.263h10c5.522 0 10-4.478 10-10s-4.478-10-10-10h-40c-5.523 0-10 4.478-10 10s4.477 10 10 10h10v46.263c-18.317.944-36.202 4.488-53.389 10.578l-7.737-18.683 9.246-3.83c5.102-2.115 7.523-7.966 5.409-13.067-2.114-5.103-7.964-7.521-13.067-5.409l-36.956 15.31c-5.103 2.112-7.527 7.961-5.415 13.064 2.113 5.104 7.965 7.528 13.065 5.414l9.241-3.828 7.74 18.69c-16.484 7.87-31.636 18.008-45.229 30.263l-28.47-28.47 7.076-7.076c3.904-3.906 3.902-10.237-.004-14.142-3.906-3.903-10.238-3.901-14.142.005l-28.286 28.285c-3.906 3.904-3.909 10.235-.004 14.142 3.9 3.905 10.233 3.911 14.142.005l7.076-7.077 28.47 28.469c-12.255 13.593-22.393 28.745-30.264 45.229l-18.69-7.74 3.828-9.241c2.112-5.104-.312-10.952-5.415-13.064-5.103-2.115-10.952.312-13.064 5.414l-15.308 36.956c-2.115 5.102.307 10.952 5.409 13.067 5.145 2.131 10.969-.349 13.067-5.409l3.83-9.246 18.683 7.738c-6.09 17.186-9.634 35.072-10.578 53.39h-46.263v-10c0-5.522-4.477-10-10-10s-10 4.478-10 10v40c0 5.522 4.477 10 10 10s10-4.478 10-10v-10h46.263c.944 18.318 4.488 36.203 10.578 53.39l-18.683 7.738-3.83-9.246c-2.114-5.102-7.964-7.521-13.067-5.409-5.102 2.115-7.523 7.966-5.409 13.067l15.308 36.956c2.117 5.112 7.974 7.525 13.064 5.414 5.103-2.112 7.527-7.961 5.415-13.064l-3.828-9.241 18.69-7.74c7.87 16.484 18.008 31.636 30.264 45.23l-28.469 28.475-7.073-7.078c-3.904-3.907-10.236-3.908-14.142-.005-3.907 3.903-3.909 10.235-.005 14.142 32.175 32.175 27.865 27.865 28.293 28.293 3.906 3.905 10.237 3.904 14.142 0 3.905-3.905 3.905-10.237 0-14.143l-7.07-7.069 28.467-28.473c13.593 12.254 28.744 22.392 45.228 30.262l-7.74 18.69-9.241-3.828c-5.104-2.114-10.952.311-13.065 5.414-2.112 5.104.312 10.952 5.415 13.064l36.956 15.31c5.145 2.131 10.969-.349 13.067-5.409 2.115-5.102-.307-10.952-5.409-13.067l-9.246-3.83 7.737-18.681c5.35 1.892 10.79 3.548 16.261 4.945 5.353 1.367 10.796-1.865 12.163-7.217 1.366-5.351-1.865-10.796-7.216-12.162-4.552-1.162-9.073-2.546-13.534-4.093l11.376-27.468c2.113-5.103-.311-10.952-5.414-13.064-5.103-2.114-10.952.312-13.065 5.414l-11.377 27.471c-34.269-16.626-62.137-44.465-78.79-78.789l27.472-11.378c5.103-2.113 7.526-7.962 5.414-13.064-2.113-5.104-7.961-7.524-13.065-5.414l-27.482 11.382c-6.203-17.86-9.353-36.557-9.353-55.725 0-19.169 3.15-37.867 9.352-55.723l27.482 11.382c5.135 2.124 10.965-.34 13.065-5.414 2.113-5.103-.311-10.951-5.414-13.064l-27.472-11.378c16.627-34.272 44.467-62.138 78.79-78.789l11.377 27.471c2.102 5.078 7.935 7.536 13.065 5.414 5.103-2.112 7.526-7.962 5.414-13.064l-11.382-27.483c17.858-6.202 36.555-9.352 55.723-9.352s37.865 3.15 55.723 9.352l-11.382 27.483c-2.113 5.103.311 10.951 5.414 13.064 5.135 2.124 10.964-.34 13.064-5.414l11.377-27.472c34.273 16.627 62.138 44.466 78.79 78.789l-27.472 11.378c-5.104 2.113-7.527 7.962-5.414 13.064 2.109 5.095 7.953 7.531 13.064 5.414l27.483-11.382c6.203 17.86 9.353 36.557 9.353 55.724 0 19.168-3.15 37.865-9.352 55.723l-27.483-11.382c-5.104-2.111-10.952.311-13.064 5.414-2.113 5.103.311 10.951 5.414 13.064l27.472 11.378c-8.271 17.048-19.26 32.496-32.777 46.012-13.517 13.517-28.964 24.507-46.012 32.777l-11.377-27.472c-2.112-5.104-7.964-7.524-13.064-5.414-5.104 2.113-7.527 7.962-5.414 13.064l11.376 27.468c-4.462 1.547-8.982 2.932-13.535 4.094-5.351 1.366-8.582 6.812-7.216 12.163 1.371 5.371 6.832 8.577 12.163 7.216 5.471-1.397 10.911-3.052 16.262-4.944l7.737 18.681-9.246 3.83c-5.102 2.115-7.523 7.966-5.409 13.067 2.106 5.079 7.941 7.532 13.067 5.409l36.956-15.31c5.103-2.112 7.527-7.962 5.414-13.064-2.112-5.103-7.96-7.529-13.064-5.414l-9.241 3.828-7.74-18.69c16.484-7.87 31.636-18.008 45.229-30.263l28.469 28.469-7.071 7.071c-3.907 3.904-3.909 10.236-.006 14.143 3.903 3.905 10.233 3.911 14.143.006l28.296-28.296c3.903-3.906 3.901-10.238-.006-14.143-3.907-3.903-10.239-3.901-14.143.006l-7.071 7.071-28.469-28.469c12.254-13.593 22.392-28.745 30.263-45.229l18.69 7.74-3.828 9.241c-2.112 5.103.312 10.952 5.414 13.064 5.102 2.115 10.952-.313 13.064-5.414l15.31-36.956c2.114-5.102-.308-10.952-5.409-13.067-5.099-2.113-10.953.307-13.067 5.409l-3.83 9.246-18.683-7.738c6.09-17.187 9.634-35.072 10.578-53.39h46.26v10c0 5.522 4.478 10 10 10s10-4.478 10-10v-40c0-5.521-4.478-9.999-10-9.999z"/><path d="m286 136c0-16.542-13.458-30-30-30s-30 13.458-30 30 13.458 30 30 30 30-13.458 30-30zm-30 10c-5.514 0-10-4.486-10-10s4.486-10 10-10 10 4.486 10 10-4.486 10-10 10z"/><path d="m256 406c16.542 0 30-13.458 30-30s-13.458-30-30-30-30 13.458-30 30 13.458 30 30 30zm0-40c5.514 0 10 4.486 10 10s-4.486 10-10 10-10-4.486-10-10 4.486-10 10-10z"/><path d="m192.361 192.361c11.723-11.723 11.725-30.696 0-42.423-11.714-11.722-30.696-11.74-42.418-.004-11.732 11.718-11.745 30.7-.004 42.427 11.695 11.695 30.726 11.696 42.422 0zm-28.276-28.285c3.908-3.911 10.223-3.91 14.13 0 .001.002.002.003.004.005 3.907 3.907 3.908 10.229 0 14.138-3.897 3.898-10.24 3.899-14.143-.005-3.871-3.866-3.952-10.18.009-14.138z"/><path d="m319.639 319.639c-11.695 11.695-11.695 30.726-.004 42.418 11.724 11.74 30.719 11.725 42.423.009 11.734-11.721 11.742-30.7.003-42.427-11.696-11.696-30.727-11.696-42.422 0zm28.285 14.146c3.897 3.893 3.927 10.206-.009 14.138-3.865 3.869-10.182 3.953-14.134-.003-3.897-3.898-3.897-10.241 0-14.139 3.894-3.896 10.24-3.899 14.139 0 .001.002.002.003.004.004z"/><path d="m106 256c0 16.542 13.458 30 30 30s30-13.458 30-30-13.458-30-30-30-30 13.458-30 30zm40 0c0 5.514-4.486 10-10 10s-10-4.486-10-10 4.486-10 10-10 10 4.486 10 10z"/><path d="m406 256c0-16.542-13.458-30-30-30s-30 13.458-30 30 13.458 30 30 30 30-13.458 30-30zm-40 0c0-5.514 4.486-10 10-10s10 4.486 10 10-4.486 10-10 10-10-4.486-10-10z"/><path d="m192.361 362.062c11.722-11.724 11.726-30.697 0-42.423-11.694-11.694-30.722-11.694-42.417-.005-11.751 11.738-11.726 30.721-.009 42.423 11.716 11.731 30.699 11.745 42.426.005zm-28.285-28.276c.001-.002.003-.003.004-.005 3.896-3.896 10.24-3.899 14.139 0 3.887 3.888 3.928 10.209-.004 14.143-3.894 3.897-10.206 3.927-14.138-.009-3.911-3.906-3.914-10.221-.001-14.129z"/><path d="m319.639 149.939c-11.695 11.696-11.695 30.727 0 42.422 11.692 11.69 30.72 11.7 42.418.004 11.752-11.735 11.725-30.719.009-42.423-11.722-11.733-30.7-11.742-42.427-.003zm28.281 28.28c-3.899 3.897-10.241 3.899-14.139 0-3.897-3.897-3.897-10.24 0-14.139.002-.001.003-.002.004-.004 3.893-3.897 10.206-3.927 14.138.009 3.869 3.865 3.953 10.182-.003 14.134z"/><path d="m256 286c16.542 0 30-13.458 30-30s-13.458-30-30-30-30 13.458-30 30 13.458 30 30 30zm0-40c5.514 0 10 4.486 10 10s-4.486 10-10 10-10-4.486-10-10 4.486-10 10-10z"/><ellipse cx="256" cy="436.001" rx="10" ry="10" transform="matrix(.383 -.924 .924 .383 -244.779 505.664)"/></g></g></svg>