<svg id="Capa_1" enable-background="new 0 0 512 512" height="512" viewBox="0 0 512 512" width="512" xmlns="http://www.w3.org/2000/svg"><g><g><path d="m495.94 394.83c3.84 6.14 6.06 13.4 6.06 21.17 0 22.09-17.91 40-40 40h-412c-22.09 0-40-17.91-40-40 0-7.77 2.22-15.03 6.06-21.17l206-320c7.06-11.31 19.62-18.83 33.94-18.83s26.88 7.52 33.94 18.83z" fill="#ff7d97"/><path d="m316 296c0 33.138-26.859 60-60 60-33.138 0-60-26.859-60-60 0-33.138 26.859-60 60-60 33.138 0 60 26.859 60 60z" fill="#a0e5a5"/><circle cx="256" cy="296" fill="#fff2a0" r="20"/></g><g><path d="m236 386c-5.522 0-10 4.478-10 10s4.478 10 10 10h40c5.522 0 10-4.478 10-10s-4.478-10-10-10h-10v-20.713c11.615-1.652 22.535-6.175 31.923-13.221l14.644 14.644-7.068 7.068c-3.905 3.905-3.905 10.237 0 14.143 3.907 3.905 10.236 3.904 14.143 0l28.279-28.279c3.905-3.905 3.905-10.237 0-14.143-3.906-3.904-10.236-3.904-14.143 0l-7.068 7.068-14.644-14.644c7.046-9.387 11.569-20.307 13.221-31.923h20.713v10c0 5.522 4.478 10 10 10s10-4.478 10-10v-40c0-5.522-4.478-10-10-10s-10 4.478-10 10v10h-20.713c-1.652-11.615-6.175-22.535-13.221-31.923l14.644-14.644 7.068 7.068c3.907 3.905 10.236 3.904 14.143 0 3.905-3.905 3.905-10.237 0-14.143l-28.279-28.279c-3.906-3.904-10.236-3.904-14.143 0-3.905 3.905-3.905 10.237 0 14.143l7.068 7.068-14.644 14.644c-9.386-7.046-20.307-11.569-31.923-13.221v-20.713h10c5.522 0 10-4.478 10-10s-4.478-10-10-10h-40c-5.522 0-10 4.478-10 10s4.478 10 10 10h10v20.713c-11.615 1.652-22.535 6.175-31.923 13.221l-14.644-14.644 7.068-7.068c3.905-3.905 3.905-10.237 0-14.143-3.906-3.904-10.236-3.904-14.143 0l-28.279 28.279c-3.905 3.905-3.905 10.237 0 14.143 3.907 3.905 10.236 3.904 14.143 0l7.068-7.068 14.644 14.644c-7.046 9.387-11.569 20.307-13.221 31.923h-20.713v-10c0-5.522-4.478-10-10-10s-10 4.478-10 10v40c0 5.522 4.478 10 10 10s10-4.478 10-10v-10h20.713c1.652 11.615 6.175 22.535 13.221 31.923l-14.644 14.644-7.068-7.068c-3.906-3.904-10.236-3.904-14.143 0-3.905 3.905-3.905 10.237 0 14.143l28.279 28.279c3.907 3.905 10.236 3.904 14.143 0 3.905-3.905 3.905-10.237 0-14.143l-7.068-7.068 14.644-14.644c9.387 7.046 20.307 11.569 31.923 13.221v20.713zm-30-90c0-27.592 22.323-50 50-50 27.592 0 50 22.323 50 50 0 27.592-22.323 50-50 50-27.592 0-50-22.323-50-50z"/><path d="m256 266c-16.542 0-30 13.458-30 30s13.458 30 30 30 30-13.458 30-30-13.458-30-30-30zm0 40c-5.514 0-10-4.486-10-10s4.486-10 10-10 10 4.486 10 10-4.486 10-10 10z"/><circle cx="256" cy="456" r="10"/><path d="m504.349 389.417-205.967-319.948c-9.205-14.697-25.044-23.469-42.382-23.469s-33.177 8.772-42.382 23.469c0 0-206.014 320.021-206.037 320.059-4.96 7.93-7.581 17.083-7.581 26.472 0 27.57 22.43 50 50 50h161c5.522 0 10-4.478 10-10s-4.478-10-10-10h-161c-16.542 0-30-13.458-30-30 0-5.614 1.559-11.083 4.508-15.819 0 0 206.01-320.016 206.034-320.056 5.521-8.845 15.039-14.125 25.458-14.125s19.937 5.28 25.458 14.125c.024.04.049.079.074.118l205.96 319.938c2.949 4.736 4.508 10.205 4.508 15.819 0 16.542-13.458 30-30 30h-161c-5.522 0-10 4.478-10 10s4.478 10 10 10h161c27.57 0 50-22.43 50-50 0-9.389-2.621-18.542-7.581-26.473-.023-.037-.047-.073-.07-.11z"/></g></g></svg>