<svg id="Capa_1" enable-background="new 0 0 512 512" height="512" viewBox="0 0 512 512" width="512" xmlns="http://www.w3.org/2000/svg"><g><g><circle cx="482" cy="482" fill="#91def5" r="20"/><path d="m316 10c-33.14 0-60 26.86-60 60h20v40h80v-40h146v-60z" fill="#eefaff"/><path d="m402.9 336h-40.69c11.05 0 20-8.95 20-20s-8.95-20-20-20h-128l33.44-44.58c13.77-18.36 11.94-44.05-4.29-60.28l-84.98 84.98-.01-.01-168.37-20.11v180h126v46c0 11.05 8.95 20 20 20s20-8.95 20-20c0 11.05 8.95 20 20 20s20-8.95 20-20c0 11.05 8.95 20 20 20s20-8.95 20-20c0 11.05 8.95 20 20 20s20-8.95 20-20v-26h46.21c11.05 0 20-8.95 20-20s-8.95-20-20-20h40c11.05 0 20-8.95 20-20s-8.95-20-20-20h20c11.05 0 20-8.95 20-20 0-10.82-8.58-19.64-19.31-20z" fill="#fce8d0"/><circle cx="156" cy="196" fill="#91def5" r="20"/></g><g><circle cx="356" cy="256" r="10"/><path d="m10 446h116v36c0 16.542 13.458 30 30 30 7.678 0 14.688-2.902 20-7.663 5.312 4.761 12.322 7.663 20 7.663s14.688-2.902 20-7.663c5.312 4.761 12.322 7.663 20 7.663s14.688-2.902 20-7.663c5.312 4.761 12.322 7.663 20 7.663 16.542 0 30-13.458 30-30v-16h36.21c16.542 0 30-13.458 30-30 0-3.506-.61-6.87-1.72-10h11.72c16.542 0 30-13.458 30-30 0-3.904-.758-7.633-2.121-11.057 12.731-3.47 22.121-15.127 22.121-28.943 0-17.693-14.894-30.585-30.387-30h-11.333c1.11-3.13 1.72-6.494 1.72-10 0-16.542-13.458-30-30-30h-107.998l21.438-28.58c16.646-22.195 14.402-53.729-5.219-73.352-1.875-1.875-4.419-2.929-7.071-2.929s-5.196 1.054-7.071 2.929l-81.538 81.538-163.565-19.536c-2.835-.337-5.687.554-7.825 2.451-2.137 1.898-3.361 4.621-3.361 7.479v180c0 5.522 4.477 10 10 10zm146 46c-5.514 0-10-4.486-10-10v-46c0-5.514 4.486-10 10-10s10 4.486 10 10v46c0 5.514-4.486 10-10 10zm40 0c-5.514 0-10-4.486-10-10v-46c0-5.514 4.486-10 10-10s10 4.486 10 10v46c0 5.514-4.486 10-10 10zm40 0c-5.514 0-10-4.486-10-10v-46c0-5.514 4.486-10 10-10s10 4.486 10 10v46c0 5.514-4.486 10-10 10zm50-10c0 5.514-4.486 10-10 10s-10-4.486-10-10v-46c0-5.514 4.486-10 10-10s10 4.486 10 10zm66.21-46c0 5.514-4.486 10-10 10h-36.21v-10c0-3.506-.61-6.87-1.72-10h37.93c5.514 0 10 4.486 10 10zm-89.86-229.708c6.672 12.167 5.943 27.604-2.7 39.127l-33.44 44.58c-4.935 6.579-.23 16.001 8 16.001h128c5.514 0 10 4.486 10 10s-4.486 10-10 10h-86.21c-5.523 0-10 4.478-10 10s4.477 10 10 10h126.635c5.374.218 9.575 4.595 9.575 10 0 5.514-4.486 10-10 10h-126c-5.523 0-10 4.478-10 10s4.477 10 10 10h106c5.514 0 10 4.486 10 10s-4.486 10-10 10h-106.21c-7.678 0-14.688 2.902-20 7.663-5.312-4.761-12.322-7.663-20-7.663s-14.688 2.902-20 7.663c-5.312-4.761-12.322-7.663-20-7.663s-14.688 2.902-20 7.663c-5.312-4.761-12.322-7.663-20-7.663-13.036 0-24.152 8.361-28.28 20h-107.72v-120h138.5c2.652 0 5.196-1.054 7.071-2.929zm-105.592 77.308-2.4 2.4h-134.358v-18.734z"/><path d="m326 256v-106c0-5.522-4.477-10-10-10s-10 4.478-10 10v106c0 5.522 4.477 10 10 10s10-4.478 10-10z"/><path d="m366 216v-66c0-5.522-4.477-10-10-10s-10 4.478-10 10v66c0 5.522 4.477 10 10 10s10-4.478 10-10z"/><path d="m470.325 288.85c1.107-4.171 1.675-8.491 1.675-12.85 0-27.57-22.43-50-50-50-5.523 0-10 4.478-10 10s4.477 10 10 10c16.542 0 30 13.458 30 30 0 5.339-1.416 10.573-4.095 15.14-1.733 2.954-1.834 6.591-.267 9.637s4.585 5.077 7.997 5.384c20.731 1.861 36.365 18.989 36.365 39.839 0 19.027-13.517 35.527-32.141 39.232-5.17 1.028-8.899 5.991-7.874 11.732-.512 16.098-13.766 29.036-29.985 29.036-5.523 0-10 4.478-10 10s4.477 10 10 10c25.283 0 46.244-18.864 49.547-43.256 23.856-8.217 40.453-30.93 40.453-56.744 0-26.307-17.096-49.282-41.675-57.15z"/><path d="m186 196c0-16.542-13.458-30-30-30s-30 13.458-30 30 13.458 30 30 30 30-13.458 30-30zm-40 0c0-5.514 4.486-10 10-10s10 4.486 10 10-4.486 10-10 10-10-4.486-10-10z"/><path d="m482 452c-16.542 0-30 13.458-30 30s13.458 30 30 30 30-13.458 30-30-13.458-30-30-30zm0 40c-5.514 0-10-4.486-10-10s4.486-10 10-10 10 4.486 10 10-4.486 10-10 10z"/><circle cx="406" cy="10" r="10"/><path d="m502 0h-51c-5.523 0-10 4.478-10 10s4.477 10 10 10h41v40h-224.996c4.646-22.794 24.85-40 48.996-40h45c5.523 0 10-4.478 10-10s-4.477-10-10-10h-45c-38.598 0-70 31.402-70 70 0 5.522 4.477 10 10 10h10v30c0 5.522 4.477 10 10 10h80c5.523 0 10-4.478 10-10v-30h136c5.523 0 10-4.478 10-10v-60c0-5.522-4.477-10-10-10zm-156 100h-60v-20h60z"/></g></g></svg>