<svg id="Capa_1" enable-background="new 0 0 512 512" height="512" viewBox="0 0 512 512" width="512" xmlns="http://www.w3.org/2000/svg"><g><g><path d="m270 236h212v160h-212z" fill="#a0e5a5"/><path d="m396 356h-40c-26.12 0-54.35 16.7-62.59 40h165.18c-8.24-23.3-36.47-40-62.59-40z" fill="#ff7d97"/><path d="m270 76h212v160h-212z" fill="#eefaff"/><path d="m396 196h-40c-26.12 0-54.35 16.7-62.59 40h165.18c-8.24-23.3-36.47-40-62.59-40z" fill="#99ebfa"/><path d="m30 76v320h240c0-17.756 0-302.244 0-320z" fill="#99ebfa"/><path d="m502 396c0 22.09-17.91 40-40 40h-412c-22.09 0-40-17.91-40-40z" fill="#eefaff"/><path d="m416 296v20c0 14.77-8.09 27.52-20 34.45v5.55c0 11.04-8.95 20-20 20s-20-8.96-20-20v-5.55c-11.91-6.93-20-19.68-20-34.45v-20c0-22.09 17.91-40 40-40s40 17.91 40 40z" fill="#fce8d0"/><path d="m416 136v20c0 14.77-8.09 27.52-20 34.45v5.55c0 11.04-8.95 20-20 20s-20-8.96-20-20v-5.55c-11.91-6.93-20-19.68-20-34.45v-20c0-22.09 17.91-40 40-40s40 17.91 40 40z" fill="#fce8d0"/><path d="m170 276h-40c-33.14 0-60 26.86-60 60v60h160v-60c0-33.14-26.86-60-60-60z" fill="#ff7d97"/><path d="m190 216v20c0 14.77-8.09 27.52-20 34.45v5.55c0 11.04-8.95 20-20 20s-20-8.96-20-20v-5.55c-11.91-6.93-20-19.68-20-34.45v-20c0-22.09 17.91-40 40-40s40 17.91 40 40z" fill="#fce8d0"/></g><g><path d="m70 166c5.523 0 10-4.478 10-10v-30h30c5.523 0 10-4.478 10-10s-4.477-10-10-10h-40c-5.523 0-10 4.478-10 10v40c0 5.522 4.477 10 10 10z"/><path d="m190 126h30v30c0 5.522 4.477 10 10 10s10-4.478 10-10v-40c0-5.522-4.477-10-10-10h-40c-5.523 0-10 4.478-10 10s4.477 10 10 10z"/><circle cx="256" cy="436" r="10"/><path d="m502 386h-10v-310c0-5.522-4.477-10-10-10h-452c-5.523 0-10 4.478-10 10v310h-10c-5.523 0-10 4.478-10 10 0 27.57 22.43 50 50 50h161c5.523 0 10-4.478 10-10s-4.477-10-10-10h-161c-13.038 0-24.159-8.369-28.287-20.01h468.573c-4.127 11.641-15.248 20.01-28.286 20.01h-161c-5.523 0-10 4.478-10 10s4.477 10 10 10h161c27.57 0 50-22.43 50-50 0-5.522-4.477-10-10-10zm-36.866 0c-9.338-18.32-28.962-32.629-51.049-37.851 7.556-8.898 11.915-20.269 11.915-32.149v-20c0-27.57-22.43-50-50-50s-50 22.43-50 50v20c0 11.88 4.359 23.25 11.915 32.149-22.087 5.222-41.711 19.53-51.049 37.851h-6.866v-140c12.21 0 179.801-.01 192-.01v140.01zm-104.104-44.193c-9.411-5.476-15.03-15.123-15.03-25.807v-20c0-16.542 13.458-30 30-30s30 13.458 30 30v20c0 10.684-5.619 20.331-15.03 25.807-3.077 1.791-4.97 5.083-4.97 8.644v5.549c0 5.514-4.486 10-10 10s-10-4.486-10-10v-5.55c0-3.56-1.893-6.852-4.97-8.643zm44.97-185.807c0 10.684-5.619 20.331-15.03 25.807-3.077 1.791-4.97 5.083-4.97 8.644v5.549c0 5.514-4.486 10-10 10s-10-4.486-10-10v-5.55c0-3.561-1.893-6.853-4.97-8.644-9.411-5.475-15.03-15.122-15.03-25.806v-20c0-16.542 13.458-30 30-30s30 13.458 30 30zm-58.057 50.608c4.295 11.321 15.249 19.392 28.057 19.392s23.762-8.071 28.057-19.392c14.243 2.096 28.04 9.494 36.925 19.392h-129.964c8.885-9.898 22.683-17.296 36.925-19.392zm124.057-120.608v140h-6.866c-9.338-18.32-28.962-32.629-51.049-37.851 7.556-8.898 11.915-20.269 11.915-32.149v-20c0-27.57-22.43-50-50-50s-50 22.43-50 50v20c0 11.88 4.359 23.25 11.915 32.149-22.087 5.222-41.711 19.53-51.049 37.851h-6.866v-140zm-432 0h220v300h-20v-50c0-32.404-22.137-59.728-52.079-67.665 7.655-8.926 12.079-20.371 12.079-32.335v-20c0-27.57-22.43-50-50-50s-50 22.43-50 50v20c0 11.964 4.424 23.409 12.079 32.335-29.942 7.937-52.079 35.261-52.079 67.665v50h-20zm150 240c-5.523 0-10 4.478-10 10v50h-60v-50c0-5.522-4.477-10-10-10s-10 4.478-10 10v50h-20v-50c0-24.834 18.201-45.488 41.962-49.345 4.307 11.296 15.248 19.345 28.038 19.345s23.731-8.049 28.038-19.345c23.761 3.857 41.962 24.511 41.962 49.345v50h-20v-50c0-5.522-4.477-10-10-10zm-10-90c0 10.684-5.619 20.331-15.03 25.807-3.077 1.791-4.97 5.083-4.97 8.644v5.549c0 5.514-4.486 10-10 10s-10-4.486-10-10v-5.55c0-3.561-1.893-6.853-4.97-8.644-9.411-5.475-15.03-15.122-15.03-25.806v-20c0-16.542 13.458-30 30-30s30 13.458 30 30zm131.018 150c8.885-9.898 22.682-17.296 36.925-19.392 4.295 11.321 15.249 19.392 28.057 19.392s23.762-8.071 28.057-19.392c14.243 2.096 28.04 9.494 36.925 19.392z"/></g></g></svg>