<svg id="Capa_1" enable-background="new 0 0 512 512" height="512" viewBox="0 0 512 512" width="512" xmlns="http://www.w3.org/2000/svg"><g><g><path d="m130 10h372v492h-372z" fill="#eefaff"/><path d="m190 376h-40v-23.41h-40v23.41h-40c-33.14 0-60 26.86-60 60v66h240v-66c0-33.14-26.86-60-60-60z" fill="#a0e5a5"/><path d="m376 90v40h-40v40h-40v-40h-40v-40h40v-40h40v40z" fill="#ff7d97"/><path d="m230 290h40v40h-40z" fill="#a0e5a5"/><path d="m230 210h40v40h-40z" fill="#a0e5a5"/><path d="m190 276v20c0 33.132-26.841 60-60 60-33.124 0-60-26.849-60-59.99v-20.01h15.28c27.41 0 52.46-15.49 64.72-40 0 22.09 17.91 40 40 40z" fill="#fce8d0"/><path d="m190 256v20c-22.09 0-40-17.91-40-40-12.26 24.51-37.31 40-64.72 40h-15.28v-20c0-33.14 26.86-60 60-60s60 26.86 60 60z" fill="#fff2a0"/></g><g><circle cx="416" cy="250" r="10"/><circle cx="416" cy="330" r="10"/><path d="m286 80h-30c-5.522 0-10 4.478-10 10v40c0 5.522 4.478 10 10 10h30v30c0 5.522 4.478 10 10 10h40c5.522 0 10-4.478 10-10v-30h30c5.522 0 10-4.478 10-10v-40c0-5.522-4.478-10-10-10h-30v-30c0-5.522-4.478-10-10-10h-40c-5.522 0-10 4.478-10 10zm10 20c5.522 0 10-4.478 10-10v-30h20v30c0 5.522 4.478 10 10 10h30v20h-30c-5.522 0-10 4.478-10 10v30h-20v-30c0-5.522-4.478-10-10-10h-30v-20z"/><path d="m280 210c0-5.522-4.478-10-10-10h-40c-5.523 0-10 4.478-10 10v40c0 5.522 4.477 10 10 10h40c5.522 0 10-4.478 10-10zm-20 30h-20v-20h20z"/><path d="m270 280h-40c-5.523 0-10 4.478-10 10v40c0 5.522 4.477 10 10 10h40c5.522 0 10-4.478 10-10v-40c0-5.522-4.478-10-10-10zm-10 40h-20v-20h20z"/><path d="m462 200h-152c-5.522 0-10 4.478-10 10s4.478 10 10 10h152c5.522 0 10-4.478 10-10s-4.478-10-10-10z"/><path d="m310 260h66c5.522 0 10-4.478 10-10s-4.478-10-10-10h-66c-5.522 0-10 4.478-10 10s4.478 10 10 10z"/><path d="m310 320c-5.522 0-10 4.478-10 10s4.478 10 10 10h66c5.522 0 10-4.478 10-10s-4.478-10-10-10z"/><path d="m472 290c0-5.522-4.478-10-10-10h-152c-5.522 0-10 4.478-10 10s4.478 10 10 10h152c5.522 0 10-4.478 10-10z"/><circle cx="316" cy="10" r="10"/><path d="m502 0h-141c-5.522 0-10 4.478-10 10s4.478 10 10 10h131v472h-232v-56c0-38.598-31.402-70-70-70h-30v-6.747c24.188-11.483 40-36.061 40-63.253v-40c0-35.202-26.123-64.406-60-69.274v-166.726h131c5.522 0 10-4.478 10-10s-4.478-10-10-10h-141c-5.523 0-10 4.478-10 10v176.726c-33.877 4.868-60 34.072-60 69.274v40.01c0 27.181 15.811 51.755 40 63.242v6.748h-30c-38.598 0-70 31.402-70 70v66c0 5.522 4.477 10 10 10h492c5.522 0 10-4.478 10-10v-492c0-5.522-4.478-10-10-10zm-372 206c27.57 0 50 22.43 50 50v8.28c-11.639-4.128-20-15.243-20-28.28 0-4.638-3.188-8.666-7.702-9.732-4.514-1.064-9.167 1.111-11.242 5.259-10.636 21.263-32.008 34.473-55.776 34.473h-5.28v-10c0-27.57 22.43-50 50-50zm-50 90.01v-10.01h5.28c23.517 0 45.257-9.79 60.59-26.509 6.913 12.932 19.347 22.484 34.13 25.498v11.011c0 27.274-22.064 50-50 50-27.872 0-50-22.662-50-49.99zm-60 139.99c0-27.57 22.43-50 50-50h40c5.523 0 10-4.478 10-10v-10.723c3.297.472 6.634.723 10 .723s6.703-.251 10-.723v10.723c0 5.522 4.477 10 10 10h40c27.57 0 50 22.43 50 50v56h-20v-56c0-5.522-4.477-10-10-10s-10 4.478-10 10v56h-140v-56c0-5.522-4.477-10-10-10s-10 4.478-10 10v56h-20z"/></g></g></svg>