<svg id="Capa_1" enable-background="new 0 0 512 512" height="512" viewBox="0 0 512 512" width="512" xmlns="http://www.w3.org/2000/svg"><g><g><path d="m256 10c-132.527 0-246 113.426-246 246 0 36.22 12.51 75.38 26.88 106.17l111.91 114.17c31.89 15.67 69.28 25.66 107.21 25.66 132.832 0 246-113.735 246-246 0-132.168-113.083-246-246-246z" fill="#99ebfa"/><path d="m355.03 31.88v.01c-9.58.07-24.96 3.24-24.96 25.32 0 25.32 25.32 50.64 25.32 75.97 0 21.59-18.41 24.77-39.53 25.24l-39.56 1.05c-15.38 1.95-30.85 7.68-47.52 24.35-25.33 25.33-50.65-25.32-75.97 0-19.31 19.31-10.29 55.27 17.57 71.63-10.73-5.65-24.73-12.46-42.9-20.98-30.93-14.52-81.8-3.34-25.58-94.61 27.42-44.52 3.34-50.36-24.72-50.24-41.38 44.29-67.18 103.16-67.18 166.38 0 36.22 12.51 75.38 26.88 106.17l111.91 114.17c31.89 15.67 69.28 25.66 107.21 25.66 11.55 0 22.96-.86 34.15-2.52 117.31-17.4 211.85-122.48 211.85-243.48 0-97.64-61.56-184.92-146.97-224.12zm-46.89 441.23c.29 9.5-8.09 23.79-18.12 25.51-11.03 1.89-24.05-11.43-29.69-63.09l-2.33-62.22c0-22.64-54-42.21-54-62.87 0-18.85 0-15.08 0-25.32 0-7.95-5.46-14.47-29.45-27.45-1.41-.67-2.77-1.4-4.09-2.18 1.42.75 2.78 1.47 4.09 2.18 7.8 3.79 16.88 6.1 27.06 6.26 50.64.82 49.93-29.46 77.81-29.46 12.86 0 17 13.29 25.32 25.32 30.08 43.45 75.97 19.76 75.97 50.65 0 62.25-72.57 133.24-72.57 160.59 0 .87-.03 1.16 0 2.08z" fill="#a0e5a5"/><g fill="#ff7d97"><circle cx="316" cy="336" r="20"/><circle cx="296" cy="156" r="20"/><circle cx="256" cy="76" r="20"/><circle cx="256" cy="416" r="20"/><path d="m146.57 365.43c5.07 5.07 9.31 10.65 12.73 16.57h50.7l-40 40c0 21.108-8.247 41.387-23.43 56.57-31.24 31.24-81.9 31.24-113.14 0s-31.24-81.9 0-113.14c31.287-31.287 81.947-31.193 113.14 0z"/><circle cx="176" cy="116" r="20"/></g></g><g><path d="m176 86c-16.542 0-30 13.458-30 30s13.458 30 30 30 30-13.458 30-30-13.458-30-30-30zm0 40c-5.514 0-10-4.486-10-10s4.486-10 10-10 10 4.486 10 10-4.486 10-10 10z"/><path d="m316 366c16.542 0 30-13.458 30-30s-13.458-30-30-30-30 13.458-30 30 13.458 30 30 30zm0-40c5.514 0 10 4.486 10 10s-4.486 10-10 10-10-4.486-10-10 4.486-10 10-10z"/><path d="m256 46c-16.542 0-30 13.458-30 30s13.458 30 30 30 30-13.458 30-30-13.458-30-30-30zm0 40c-5.514 0-10-4.486-10-10s4.486-10 10-10 10 4.486 10 10-4.486 10-10 10z"/><path d="m125.352 386.648c-3.906-3.904-10.236-3.904-14.143 0l-21.209 21.209-21.209-21.209c-3.906-3.904-10.236-3.904-14.143 0-3.905 3.905-3.905 10.237 0 14.143l21.209 21.209-21.209 21.209c-3.905 3.905-3.905 10.237 0 14.143 3.907 3.905 10.236 3.904 14.143 0l21.209-21.209 21.209 21.209c3.907 3.905 10.236 3.904 14.143 0 3.905-3.905 3.905-10.237 0-14.143l-21.209-21.209 21.209-21.209c3.905-3.905 3.905-10.237 0-14.143z"/><circle cx="458" cy="393.001" r="10"/><path d="m256 0c-136.154 0-256 116.069-256 256 0 40.243 14.449 80.271 24.878 103.916-33.578 35.203-33.101 91.143 1.48 125.726 34.301 34.299 89.287 34.937 124.429 2.713 33.734 15.484 69.96 23.645 105.213 23.645 69.506 0 134.169-30.183 180.663-77.113 3.887-3.924 3.856-10.255-.066-14.143-3.923-3.887-10.253-3.858-14.143.066-29.732 30.012-66.613 51.75-105.968 62.817 1.587-5.013 1.653-7.951 1.653-12.597 0-7.951 12.099-26.665 23.799-44.764 21.729-33.61 48.771-75.439 48.771-115.826 0-22.81-18.06-26.767-32.57-29.945-25.637-5.617-36.6-11.662-50.018-34.104-5.84-9.767-13.107-21.921-28.702-21.921-15.361 0-24.425 7.37-32.421 13.873-12.065 9.811-21.974 15.987-45.231 15.588-11.193-.176-18.322-2.89-26.472-7.196-12.22-7.236-20.832-19.74-22.486-32.677-1.177-9.202 1.334-17.43 7.071-23.166 6.941-6.944 12.453-5.117 26.435 1.875 12.651 6.325 31.771 15.888 49.536-1.875 10.883-10.884 21.397-17.149 34.031-20.116 5.187 9.198 15.019 15.224 26.118 15.224 12.155 0 22.783-7.286 27.455-17.882 24.206-1.513 41.935-10.36 41.935-34.938 0-15.026-6.974-28.975-13.717-42.464-5.967-11.935-11.603-23.207-11.603-33.506 0-10.199 3.666-14.62 12.918-15.24 83.242 39.214 139.012 124.918 139.012 214.03 0 32.281-6.915 63.887-20.553 93.938-2.282 5.029-.055 10.957 4.974 13.239 5.031 2.283 10.957.055 13.239-4.974 14.823-32.665 22.34-67.052 22.34-102.203 0-137.899-117.698-256-256-256zm-215.499 471.499c-27.293-27.294-27.293-71.704 0-98.998 27.295-27.32 71.678-27.319 98.998-.001 4.345 4.346 8.093 9.225 11.142 14.502 1.787 3.093 5.088 4.998 8.659 4.998h26.558l-22.929 22.929c-1.875 1.876-2.929 4.419-2.929 7.071 0 17.692-6.601 34.563-18.604 47.523-26.76 29.088-72.802 30.069-100.895 1.976zm123.963 1.042c9.293-13.658 14.661-29.619 15.437-46.299l37.17-37.17c2.859-2.86 3.715-7.161 2.168-10.898-1.548-3.737-5.194-6.174-9.239-6.174h-45.152c-3.27-4.887-7.023-9.458-11.206-13.642-30.45-30.448-77.701-34.666-112.746-11.804-9.416-22.393-20.896-56.655-20.896-90.554 0-56.987 21.831-112.332 61.552-156.34 16.288.394 20.625 3.614 21.733 5.587 1.888 3.363.278 12.844-9.899 29.368-23.428 38.034-30.972 62.385-24.46 78.954 6.148 15.644 22.46 20.154 36.853 24.134 6.051 1.673 12.308 3.403 17.456 5.82 15.137 7.099 70.765 32.309 70.765 41.597v25.32c0 15.042 14.576 26.162 30.008 37.936 10.125 7.725 23.992 18.304 23.992 24.934v13.782c-12.669 3.511-22 15.137-22 28.908 0 15.013 11.086 27.484 25.501 29.662 2.802 20.446 7.044 35.747 12.828 46.18-2.779.104-5.558.158-8.329.158-30.547 0-61.948-6.709-91.536-19.459zm91.536-66.541c.348 0 .661.015.931.043.025.003.051.006.076.008 5.127.507 8.993 4.784 8.993 9.949 0 4.656-3.286 8.758-7.814 9.752-.034.008-.067.016-.102.023-.647.15-1.349.225-2.084.225-5.514 0-10-4.486-10-10s4.486-10 10-10zm3.617-152.14c7.201-5.856 11.547-9.391 19.803-9.391 3.693 0 5.893 2.745 11.537 12.185 16.672 27.886 32.362 36.687 62.902 43.378 16.334 3.578 16.851 4.756 16.851 10.408 0 34.484-25.266 73.566-45.567 104.968-15.677 24.249-27.003 41.769-27.003 55.622-.015 1.154-.022 1.554.005 2.386.167 5.463-5.704 14.644-9.813 15.348-.282.046-.806.139-1.943-.72-2.462-1.856-10.463-10.523-15.22-46.189 8.944-5.289 14.831-15.076 14.831-25.855 0-12.281-7.302-22.883-18-27.514v-15.176c0-16.527-16.197-28.885-31.861-40.835-8.816-6.726-22.139-16.89-22.139-22.035v-25.32c0-4.204-.949-7.942-2.833-11.426 26.146-1.708 38.877-12.049 48.45-19.834zm36.383-87.86c-4.867 0-9.005-3.47-9.839-8.25-.008-.041-.015-.082-.022-.123-.092-.489-.139-1.037-.139-1.627 0-5.514 4.486-10 10-10s10 4.486 10 10c0 .401-.023.79-.079 1.229-.601 5-4.865 8.771-9.921 8.771zm49.39-32.82c0 7.465-1.632 13.058-20.499 14.758-3.532-12.638-15.142-21.938-28.891-21.938-14.862 0-27.228 10.866-29.588 25.069-16.656 3.734-31.041 12.019-44.703 25.68-6.948 6.95-12.463 5.123-26.449-1.871-12.65-6.325-31.765-15.884-49.521 1.871-10.213 10.214-14.747 24.364-12.768 39.846.456 3.566 1.246 7.079 2.335 10.504-1.171-.551-2.362-1.111-3.576-1.68-6.68-3.137-13.768-5.096-20.621-6.991-13.113-3.626-21.242-6.255-23.568-12.173-2.629-6.688-.794-22.726 22.875-61.149 13.627-22.126 16.903-37.902 10.311-49.647-4.403-7.844-12.116-11.886-21.039-13.917 43.628-39.324 99.525-61.542 156.312-61.542 24.745 0 49.086 4.071 72.639 12.108-5.551 6.032-8.569 14.553-8.569 25.102 0 15.02 6.972 28.964 13.713 42.449 5.969 11.939 11.607 23.215 11.607 33.521z"/></g></g></svg>