<svg id="Capa_1" enable-background="new 0 0 512 512" height="512" viewBox="0 0 512 512" width="512" xmlns="http://www.w3.org/2000/svg"><g><g><path d="m396 116-20-66-120-40-120 40-20 66-60 20v64.59c0 130.1 79.21 253.09 200 301.41 120.79-48.32 200-171.31 200-301.41v-64.59z" fill="#eefaff"/><path d="m256 52.17 88.38 29.45 20 66 51.62 17.21v35.76c0 108.97-62.28 212.13-160 257.84-97.72-45.71-160-148.87-160-257.84v-35.76l51.62-17.21 20-66z" fill="#99ebfa"/><path d="m316 256c0 33.138-26.859 60-60 60-33.138 0-60-26.859-60-60 0-33.138 26.859-60 60-60 33.138 0 60 26.859 60 60z" fill="#a0e5a5"/><circle cx="256" cy="256" fill="#fff2a0" r="20"/></g><g><path d="m236 146c-5.522 0-10 4.478-10 10s4.478 10 10 10h10v20.713c-11.615 1.652-22.535 6.175-31.923 13.221l-14.644-14.644 7.068-7.068c3.905-3.905 3.905-10.237 0-14.143-3.906-3.904-10.236-3.904-14.143 0l-28.279 28.279c-3.905 3.905-3.905 10.237 0 14.143 3.907 3.905 10.236 3.904 14.143 0l7.068-7.068 14.644 14.644c-7.046 9.387-11.569 20.307-13.221 31.923h-20.713v-10c0-5.522-4.478-10-10-10s-10 4.478-10 10v40c0 5.522 4.478 10 10 10s10-4.478 10-10v-10h20.713c1.652 11.615 6.175 22.535 13.221 31.923l-14.644 14.644-7.068-7.068c-3.906-3.904-10.236-3.904-14.143 0-3.905 3.905-3.905 10.237 0 14.143l28.279 28.279c3.907 3.905 10.236 3.904 14.143 0 3.905-3.905 3.905-10.237 0-14.143l-7.068-7.068 14.644-14.644c9.387 7.046 20.307 11.569 31.923 13.221v20.713h-10c-5.522 0-10 4.478-10 10s4.478 10 10 10h40c5.522 0 10-4.478 10-10s-4.478-10-10-10h-10v-20.713c11.615-1.652 22.535-6.175 31.923-13.221l14.644 14.644-7.068 7.068c-3.905 3.905-3.905 10.237 0 14.143 3.907 3.905 10.236 3.904 14.143 0l28.279-28.279c3.905-3.905 3.905-10.237 0-14.143-3.906-3.904-10.236-3.904-14.143 0l-7.068 7.068-14.644-14.644c7.046-9.387 11.569-20.307 13.221-31.923h20.713v10c0 5.522 4.478 10 10 10s10-4.478 10-10v-40c0-5.522-4.478-10-10-10s-10 4.478-10 10v10h-20.713c-1.652-11.615-6.175-22.535-13.221-31.923l14.644-14.644 7.068 7.068c3.907 3.905 10.236 3.904 14.143 0 3.905-3.905 3.905-10.237 0-14.143l-28.279-28.279c-3.906-3.904-10.236-3.904-14.143 0-3.905 3.905-3.905 10.237 0 14.143l7.068 7.068-14.644 14.644c-9.386-7.046-20.307-11.569-31.923-13.221v-20.713h10c5.522 0 10-4.478 10-10s-4.478-10-10-10zm70 110c0 27.592-22.323 50-50 50-27.592 0-50-22.323-50-50 0-27.592 22.323-50 50-50 27.592 0 50 22.323 50 50z"/><path d="m256 286c16.542 0 30-13.458 30-30s-13.458-30-30-30-30 13.458-30 30 13.458 30 30 30zm0-40c5.514 0 10 4.486 10 10s-4.486 10-10 10-10-4.486-10-10 4.487-10 10-10z"/><circle cx="404" cy="376" r="10"/><path d="m126.43 47.099-18.5 61.05-55.092 18.363c-4.084 1.362-6.838 5.183-6.838 9.488v64.59c0 132.922 80.415 260.227 206.061 310.602 2.627 1.128 5.502 1.028 7.873.003 48.093-19.282 91.649-51.045 125.974-91.87 3.554-4.228 3.009-10.535-1.219-14.09-4.227-3.553-10.535-3.01-14.09 1.219-28.966 34.45-64.899 62.004-104.599 80.344v-22.1c98.158-48.76 160-153.61 160-264.109v-35.76c0-4.304-2.754-8.125-6.837-9.486l-46.713-15.574-18.5-61.05c-.941-3.105-3.33-5.561-6.409-6.587l-81.541-27.171v-21.087l101.93 33.976 18.5 61.05c.941 3.104 3.33 5.561 6.408 6.587l53.162 17.721v57.382c0 44.921-9.995 90.61-28.903 132.131-2.289 5.026-.07 10.956 4.956 13.245 5.023 2.29 10.956.071 13.245-4.956 20.086-44.105 30.702-92.661 30.702-140.42v-64.59c0-4.305-2.754-8.126-6.838-9.487l-55.092-18.363-18.5-61.05c-.941-3.104-3.33-5.561-6.408-6.587l-119.995-39.999c-2.055-.685-4.274-.687-6.329-.002l-120 40c-3.078 1.027-5.467 3.483-6.408 6.587zm209.88 42.372 18.5 61.049c.941 3.104 3.33 5.561 6.407 6.586l44.783 14.931v28.553c0 101.764-54.455 194.838-140 241.561v-46.151c0-5.522-4.478-10-10-10s-10 4.478-10 10v46.151c-85.545-46.723-140-139.797-140-241.561v-28.553l44.783-14.931c3.077-1.025 5.466-3.481 6.407-6.586l18.5-61.049 70.31-23.428v49.957c0 5.522 4.478 10 10 10s10-4.478 10-10v-49.957zm-90.31-65.597v21.087l-81.541 27.171c-3.079 1.026-5.468 3.481-6.409 6.587l-18.5 61.05-46.713 15.574c-4.083 1.362-6.837 5.183-6.837 9.487v35.76c0 110.532 61.867 215.361 160 264.109v22.113c-108.249-49.862-180-162.98-180-286.222v-57.382l53.162-17.721c3.078-1.026 5.467-3.482 6.408-6.587l18.5-61.05z"/></g></g></svg>