<svg id="Capa_1" enable-background="new 0 0 512 512" height="512" viewBox="0 0 512 512" width="512" xmlns="http://www.w3.org/2000/svg"><g><g><path d="m456 216c-11.05 0-20 8.95-20 20v186h-40c0-13.924 0-317.368 0-332l-80-80h-280v452c0 22.09 17.91 40 40 40h360c22.09 0 40-17.91 40-40v-226c0-11.05-8.95-20-20-20z" fill="#eefaff"/><g fill="#99ebfa"><path d="m396 216h60c-11.05 0-20 8.95-20 20v186h-40z"/><path d="m396 90h-80v-80c31.24 31.24 48.76 48.76 80 80z"/><path d="m76 50h200v40h-200z"/></g><path d="m196 216c0 22.047-17.875 40-40 40-22.132 0-40-17.959-40-40 0-22.047 17.875-40 40-40 22.132 0 40 17.959 40 40z" fill="#a0e5a5"/></g><g><circle cx="336" cy="256" r="10"/><circle cx="156" cy="216" r="10"/><path d="m276 40h-200c-5.523 0-10 4.478-10 10v40c0 5.522 4.477 10 10 10h200c5.523 0 10-4.478 10-10v-40c0-5.522-4.477-10-10-10zm-10 40h-180v-20h180z"/><path d="m226.62 198.32c2.771 4.8 8.892 6.413 13.66 3.66 4.783-2.762 6.422-8.877 3.66-13.66-7.16-12.402-12.84-22.239-20-34.641-2.762-4.783-8.878-6.423-13.66-3.66-4.783 2.762-6.422 8.877-3.66 13.66l5.001 8.661-18.204 10.513c-7.18-8.084-16.829-13.655-27.416-15.831v-21.022h10c5.523 0 10-4.478 10-10s-4.477-10-10-10h-40c-5.523 0-10 4.478-10 10s4.477 10 10 10h10v21.023c-10.587 2.176-20.236 7.748-27.416 15.832l-18.204-10.513 5.001-8.662c2.762-4.783 1.123-10.898-3.66-13.66-4.782-2.761-10.899-1.123-13.66 3.66-7.16 12.402-12.84 22.239-20 34.641-2.762 4.783-1.123 10.898 3.66 13.66 4.773 2.755 10.892 1.134 13.66-3.66l5-8.659 18.197 10.509c-1.696 5.083-2.579 10.43-2.579 15.829s.883 10.746 2.577 15.83l-18.197 10.509-5-8.659c-2.761-4.783-8.878-6.423-13.66-3.66-4.783 2.762-6.422 8.877-3.66 13.66 7.16 12.402 12.84 22.239 20 34.641 2.771 4.8 8.892 6.413 13.66 3.66 4.783-2.762 6.422-8.877 3.66-13.66l-5.001-8.661 18.204-10.513c7.18 8.084 16.829 13.655 27.416 15.831v21.022h-10c-5.523 0-10 4.478-10 10s4.477 10 10 10h40c5.523 0 10-4.478 10-10s-4.477-10-10-10h-10v-21.023c10.587-2.176 20.236-7.748 27.416-15.832l18.204 10.513-5.001 8.662c-2.762 4.783-1.123 10.898 3.66 13.66 4.773 2.755 10.892 1.134 13.66-3.66 7.16-12.402 12.84-22.239 20-34.641 2.762-4.783 1.123-10.898-3.66-13.66-4.781-2.761-10.898-1.122-13.66 3.66l-5 8.659-18.197-10.509c1.696-5.083 2.579-10.43 2.579-15.829s-.883-10.746-2.577-15.83l18.197-10.509zm-70.62 47.68c-10.679 0-20.635-5.749-25.981-15.003-.018-.031-.039-.057-.057-.088-2.591-4.524-3.962-9.675-3.962-14.909s1.372-10.385 3.962-14.91c.018-.03.039-.057.057-.087 5.346-9.254 15.302-15.003 25.981-15.003s20.635 5.749 25.981 15.003c.015.025.033.047.048.072 2.596 4.528 3.97 9.685 3.97 14.925 0 5.234-1.371 10.385-3.962 14.91-.018.03-.039.057-.057.088-5.345 9.253-15.301 15.002-25.98 15.002z"/><path d="m356 166h-80c-5.523 0-10 4.478-10 10s4.477 10 10 10h80c5.523 0 10-4.478 10-10s-4.477-10-10-10z"/><path d="m366 216c0-5.522-4.477-10-10-10h-80c-5.523 0-10 4.478-10 10s4.477 10 10 10h80c5.523 0 10-4.478 10-10z"/><path d="m276 246c-5.523 0-10 4.478-10 10s4.477 10 10 10h20c5.523 0 10-4.478 10-10s-4.477-10-10-10z"/><path d="m76 352h280c5.523 0 10-4.478 10-10s-4.477-10-10-10h-280c-5.523 0-10 4.478-10 10s4.477 10 10 10z"/><path d="m76 392h120c5.523 0 10-4.478 10-10s-4.477-10-10-10h-120c-5.523 0-10 4.478-10 10s4.477 10 10 10z"/><path d="m356 372h-120c-5.523 0-10 4.478-10 10s4.477 10 10 10h120c5.523 0 10-4.478 10-10s-4.477-10-10-10z"/><path d="m76 432h120c5.523 0 10-4.478 10-10s-4.477-10-10-10h-120c-5.523 0-10 4.478-10 10s4.477 10 10 10z"/><path d="m356 412h-120c-5.523 0-10 4.478-10 10s4.477 10 10 10h120c5.523 0 10-4.478 10-10s-4.477-10-10-10z"/><path d="m76 472h120c5.523 0 10-4.478 10-10s-4.477-10-10-10h-120c-5.523 0-10 4.478-10 10s4.477 10 10 10z"/><path d="m356 452h-120c-5.523 0-10 4.478-10 10s4.477 10 10 10h120c5.523 0 10-4.478 10-10s-4.477-10-10-10z"/><circle cx="216" cy="502" r="10"/><path d="m403.071 82.929-80-80c-1.795-1.798-4.35-2.929-7.071-2.929h-280c-5.523 0-10 4.478-10 10v452c0 27.57 22.43 50 50 50h95c5.523 0 10-4.478 10-10s-4.477-10-10-10h-95c-16.542 0-30-13.458-30-30v-442h260v70c0 5.522 4.477 10 10 10h70v362c0 11.248 3.735 21.637 10.027 30h-135.027c-5.523 0-10 4.478-10 10s4.477 10 10 10h175c27.57 0 50-22.43 50-50v-226c0-16.542-13.458-30-30-30h-50v-116c0-2.712-1.115-5.255-2.929-7.071zm-77.071-48.787 45.858 45.858h-45.858zm120 387.858v-186c0-5.514 4.486-10 10-10s10 4.486 10 10v226c0 16.542-13.458 30-30 30s-30-13.458-30-30v-30h30c5.523 0 10-4.478 10-10zm-20-186v176h-20v-186.01h21.713c-1.109 3.139-1.713 6.505-1.713 10.01z"/></g></g></svg>