<svg id="Capa_1" enable-background="new 0 0 512 512" height="512" viewBox="0 0 512 512" width="512" xmlns="http://www.w3.org/2000/svg"><g><g><path d="m222 36v440h-212v-440z" fill="#eefaff"/><path d="m382 96c66.27 0 120 53.73 120 120s-53.73 120-120 120h-120l35.15-35.15c-21.72-21.71-35.15-51.71-35.15-84.85 0-66.27 53.73-120 120-120z" fill="#eefaff"/><path d="m422 216c0 22.047-17.875 40-40 40-22.132 0-40-17.959-40-40 0-22.047 17.875-40 40-40 22.132 0 40 17.959 40 40z" fill="#a0e5a5"/><circle cx="116" cy="176" fill="#ff7d97" r="60"/><circle cx="116" cy="376" fill="#a0e5a5" r="60"/></g><g><circle cx="382" cy="216" r="10"/><circle cx="156" cy="76" r="10"/><circle cx="116" cy="76" r="10"/><circle cx="76" cy="76" r="10"/><path d="m116 246c38.598 0 70-31.402 70-70s-31.402-70-70-70-70 31.402-70 70 31.402 70 70 70zm0-120c27.57 0 50 22.43 50 50s-22.43 50-50 50-50-22.43-50-50 22.43-50 50-50z"/><path d="m90.532 194.992c4.622 3.021 10.82 1.721 13.84-2.903l11.628-17.803 11.628 17.803c3.015 4.616 9.211 5.929 13.84 2.903 4.624-3.02 5.924-9.217 2.904-13.841l-20-30.62c-1.846-2.827-4.995-4.531-8.372-4.531s-6.526 1.704-8.372 4.531l-20 30.62c-3.021 4.624-1.72 10.822 2.904 13.841z"/><path d="m116 446c38.598 0 70-31.402 70-70s-31.402-70-70-70-70 31.402-70 70 31.402 70 70 70zm0-120c27.57 0 50 22.43 50 50s-22.43 50-50 50-50-22.43-50-50 22.43-50 50-50z"/><path d="m107.627 401.467c1.847 2.828 4.996 4.533 8.373 4.533s6.526-1.705 8.373-4.533l20-30.63c3.02-4.624 1.719-10.82-2.906-13.84s-10.821-1.718-13.84 2.906l-11.627 17.806-11.627-17.806c-3.02-4.626-9.217-5.928-13.84-2.906-4.625 3.02-5.925 9.216-2.906 13.84z"/><path d="m466.28 230.02c-4.781-2.761-10.898-1.122-13.66 3.66l-5 8.659-18.197-10.509c1.694-5.084 2.577-10.431 2.577-15.83s-.883-10.746-2.577-15.83l18.197-10.509 5 8.659c2.771 4.8 8.892 6.413 13.66 3.66 4.783-2.762 6.422-8.877 3.66-13.66-7.16-12.402-12.84-22.239-20-34.641-2.761-4.783-8.878-6.423-13.66-3.66-4.783 2.762-6.422 8.877-3.66 13.66l5.001 8.661-18.204 10.513c-7.18-8.084-16.829-13.655-27.416-15.831v-21.022h10c5.523 0 10-4.478 10-10s-4.477-10-10-10h-40c-5.523 0-10 4.478-10 10s4.477 10 10 10h10v21.023c-10.587 2.176-20.236 7.748-27.416 15.832l-18.204-10.513 5.001-8.662c2.762-4.783 1.123-10.898-3.66-13.66-4.782-2.761-10.899-1.123-13.66 3.66-7.16 12.402-12.84 22.239-20 34.641-2.762 4.783-1.123 10.898 3.66 13.66 4.773 2.755 10.892 1.134 13.66-3.66l5-8.659 18.197 10.509c-1.696 5.083-2.579 10.43-2.579 15.829s.883 10.746 2.577 15.83l-18.197 10.509-5-8.659c-2.762-4.783-8.877-6.423-13.66-3.66-4.783 2.762-6.422 8.877-3.66 13.66 7.16 12.402 12.84 22.239 20 34.641 2.771 4.8 8.892 6.413 13.66 3.66 4.783-2.762 6.422-8.877 3.66-13.66l-5.001-8.661 18.204-10.513c7.18 8.084 16.829 13.655 27.416 15.831v21.022h-10c-5.523 0-10 4.478-10 10s4.477 10 10 10h40c5.523 0 10-4.478 10-10s-4.477-10-10-10h-10v-21.023c10.587-2.176 20.236-7.748 27.416-15.832l18.204 10.513-5.001 8.662c-2.762 4.783-1.123 10.898 3.66 13.66 4.773 2.755 10.892 1.134 13.66-3.66 7.16-12.402 12.84-22.239 20-34.641 2.764-4.783 1.124-10.898-3.658-13.659zm-84.28 15.98c-16.437 0-30-13.344-30-30 0-16.643 13.55-30 30-30 16.406 0 30 13.314 30 30 0 16.643-13.55 30-30 30z"/><path d="m512 216c0-71.683-58.318-130-130-130s-130 58.317-130 130c0 31.376 11.036 61.048 31.272 84.585l-28.344 28.344c-2.86 2.86-3.715 7.161-2.167 10.898 1.548 3.736 5.194 6.173 9.239 6.173h120c71.682 0 130-58.317 130-130zm-130 110h-95.858l18.079-18.079c3.903-3.904 3.904-10.239-.002-14.144-20.777-20.767-32.219-48.389-32.219-77.777 0-60.654 49.346-110 110-110s110 49.346 110 110-49.346 110-110 110z"/><path d="m0 476c0 5.522 4.477 10 10 10h212c5.523 0 10-4.478 10-10v-440c0-5.522-4.477-10-10-10h-212c-5.523 0-10 4.478-10 10v175c0 5.522 4.477 10 10 10s10-4.478 10-10v-165h192v420h-192v-165c0-5.522-4.477-10-10-10s-10 4.478-10 10z"/><circle cx="10" cy="256" r="10"/></g></g></svg>