<svg id="Capa_1" enable-background="new 0 0 512 512" height="512" viewBox="0 0 512 512" width="512" xmlns="http://www.w3.org/2000/svg"><g><g><path d="m50 110v272c0 22.09 17.91 40 40 40h332c22.09 0 40-17.91 40-40v-272z" fill="#ff7d97"/><path d="m482 110c-15.626 0-452 0-452 0 0-33.14 26.86-60 60-60h332c33.14 0 60 26.86 60 60z" fill="#eefaff"/><path d="m482 502h-452c0-22.09 17.91-40 40-40h372c22.09 0 40 17.91 40 40z" fill="#eefaff"/><g fill="#fff2a0"><path d="m422 422c0 22.09-17.91 40-40 40s-40-17.91-40-40 40-80 40-80 40 57.91 40 80z"/><path d="m296 422c0 22.09-17.91 40-40 40s-40-17.91-40-40 40-80 40-80 40 57.91 40 80z"/><path d="m170 422c0 22.09-17.91 40-40 40s-40-17.91-40-40 40-80 40-80 40 57.91 40 80z"/></g></g><g><circle cx="422" cy="150" r="10"/><circle cx="382" cy="150" r="10"/><circle cx="342" cy="150" r="10"/><circle cx="302" cy="150" r="10"/><path d="m472 140v-20h10c5.522 0 10-4.478 10-10 0-38.599-31.401-70-70-70h-76v-10c0-16.542-13.458-30-30-30h-120c-16.542 0-30 13.458-30 30v10h-76c-38.598 0-70 31.401-70 70 0 5.522 4.477 10 10 10h10v20c-22.056 0-40 17.944-40 40s17.944 40 40 40v162c0 24.445 17.638 44.835 40.853 49.146 1.432 7.714 4.63 14.814 9.174 20.854h-20.027c-27.57 0-50 22.43-50 50 0 5.522 4.477 10 10 10h181c5.523 0 10-4.478 10-10s-4.477-10-10-10h-169.287c4.127-11.641 15.249-20 28.287-20h372c13.037 0 24.159 8.359 28.286 20h-169.286c-5.522 0-10 4.478-10 10s4.478 10 10 10h181c5.522 0 10-4.478 10-10 0-27.57-22.43-50-50-50h-20.027c4.544-6.039 7.741-13.14 9.174-20.853 23.215-4.312 40.853-24.702 40.853-49.147v-162c22.056 0 40-17.944 40-40s-17.944-40-40-40zm-286-110c0-5.514 4.486-10 10-10h120c5.514 0 10 4.486 10 10v10h-140zm-96 30h332c24.146 0 44.35 17.206 48.995 40h-429.991c4.647-22.794 24.85-40 48.996-40zm-70 120c0-11.028 8.972-20 20-20v40c-11.028 0-20-8.972-20-20zm80 242c0-10.921 15.608-39.428 30.001-61.919 14.393 22.483 29.999 50.985 29.999 61.919 0 16.542-13.458 30-30 30s-30-13.458-30-30zm107.006 10c1.505 7.386 4.644 14.183 9.021 20h-46.054c4.377-5.817 7.516-12.614 9.021-20zm126 0c1.505 7.386 4.645 14.183 9.021 20h-46.054c4.377-5.817 7.516-12.614 9.021-20zm-77.006 20c-16.542 0-30-13.458-30-30 0-10.921 15.608-39.428 30.001-61.919 14.393 22.483 29.999 50.985 29.999 61.919 0 16.542-13.458 30-30 30zm96-30c0-10.921 15.608-39.428 30.001-61.919 14.393 22.483 29.999 50.985 29.999 61.919 0 16.542-13.458 30-30 30s-30-13.458-30-30zm100-40c0 13.691-9.223 25.261-21.779 28.845-7.179-26.112-33.967-65.804-39.994-74.529-1.866-2.703-4.942-4.316-8.227-4.316s-6.361 1.613-8.228 4.316c-6.116 8.854-33.616 49.604-40.302 75.684h-28.94c-6.686-26.08-34.186-66.83-40.302-75.684-1.867-2.703-4.943-4.316-8.228-4.316s-6.361 1.613-8.228 4.316c-6.116 8.854-33.616 49.604-40.302 75.684h-28.94c-6.686-26.08-34.186-66.83-40.302-75.684-1.867-2.703-4.943-4.316-8.228-4.316s-6.361 1.613-8.228 4.316c-6.026 8.725-32.814 48.417-39.993 74.529-12.556-3.584-21.779-15.154-21.779-28.845v-262h392zm20-182v-40c11.028 0 20 8.972 20 20s-8.972 20-20 20z"/><circle cx="256" cy="502" r="10"/></g></g></svg>