<svg id="Capa_1" enable-background="new 0 0 512 512" height="512" viewBox="0 0 512 512" width="512" xmlns="http://www.w3.org/2000/svg"><g><g><path d="m190 56h-160c-11.05 0-20 8.95-20 20v406c0 11.05 8.95 20 20 20h160c11.05 0 20-8.95 20-20v-406c0-11.05-8.95-20-20-20z" fill="#eefaff"/><path d="m342 316c0-14.039 0-126.294 0-140 0-11.05 8.95-20 20-20s20 8.95 20 20v80c0-11.05 8.95-20 20-20s20 8.95 20 20c0-11.05 8.95-20 20-20s20 8.95 20 20v20c0-11.05 8.95-20 20-20s20 8.95 20 20v102.92c0 9.43-.56 37.36-40 57.08v66h-120v-66c-7.71-7.71-40-33.36-40-81.42v-78.58c22.09 0 40 17.91 40 40z" fill="#fce8d0"/><circle cx="442" cy="70" fill="#ff7d97" r="60"/><path d="m322 156c11.05 0 20 8.95 20 20s-8.95 20-20 20c-15.307 0-140.834 0-155.41 0-8.24 23.3-30.47 40-56.59 40-33.14 0-60-26.86-60-60s26.86-60 60-60c26.12 0 48.35 16.7 56.59 40z" fill="#fff2a0"/><path d="m128.49 371.48 21.51 64.52h-80l21.51-64.52c-12.79-6.68-21.51-20.06-21.51-35.48 0-22.09 17.91-40 40-40s40 17.91 40 40c0 15.42-8.72 28.8-21.51 35.48z" fill="#8690a6"/></g><g><path d="m160 336c0-27.57-22.43-50-50-50s-50 22.43-50 50c0 15.765 7.325 30.319 19.566 39.687l-19.053 57.15c-1.017 3.05-.506 6.402 1.374 9.01s4.898 4.153 8.113 4.153h80c3.215 0 6.233-1.545 8.112-4.153 1.88-2.607 2.391-5.96 1.374-9.01l-19.053-57.15c12.242-9.368 19.567-23.922 19.567-39.687zm-40.996 38.644 17.121 51.356h-52.25l17.121-51.356c1.553-4.658-.505-9.754-4.856-12.026-9.955-5.201-16.14-15.4-16.14-26.618 0-16.542 13.458-30 30-30s30 13.458 30 30c0 11.218-6.185 21.417-16.14 26.617-4.351 2.273-6.409 7.368-4.856 12.027z"/><path d="m482 246c-3.904 0-7.633.758-11.057 2.121-3.47-12.731-15.128-22.121-28.943-22.121-7.678 0-14.688 2.902-20 7.663-5.312-4.761-12.322-7.663-20-7.663-3.506 0-6.87.61-10 1.72v-51.72c0-16.542-13.458-30-30-30-7.678 0-14.688 2.902-20 7.663-5.312-4.761-12.322-7.663-20-7.663h-102v-70c0-16.542-13.458-30-30-30h-160c-16.542 0-30 13.458-30 30v155c0 5.522 4.478 10 10 10s10-4.478 10-10v-155c0-5.514 4.486-10 10-10h160c5.514 0 10 4.486 10 10v70h-26.734c-11.483-24.192-36.074-40-63.266-40-38.598 0-70 31.402-70 70s31.402 70 70 70c27.191 0 51.782-15.808 63.266-40h26.734v276c0 5.514-4.486 10-10 10h-160c-5.514 0-10-4.486-10-10v-161c0-5.522-4.478-10-10-10s-10 4.478-10 10v161c0 16.542 13.458 30 30 30h160c16.542 0 30-13.458 30-30v-276h102c3.506 0 6.87-.61 10-1.72v71.747c-8.363-6.292-18.753-10.027-30-10.027-5.522 0-10 4.478-10 10v78.58c0 47.335 28.528 74.905 40 85.702v61.718c0 5.522 4.478 10 10 10h120c5.522 0 10-4.478 10-10v-59.992c26.551-14.99 40-36.188 40-63.088v-102.92c0-16.542-13.458-30-30-30zm-160-60h-155.41c-4.237 0-8.015 2.671-9.428 6.666-7.052 19.938-26.005 33.334-47.162 33.334-27.57 0-50-22.43-50-50s22.43-50 50-50c21.157 0 40.11 13.396 47.162 33.334 1.413 3.995 5.19 6.666 9.428 6.666h155.41c5.514 0 10 4.486 10 10s-4.486 10-10 10zm170 192.92c0 7.643 0 30.9-34.472 48.136-3.388 1.694-5.528 5.156-5.528 8.944v56h-100v-56c0-2.652-1.054-5.195-2.929-7.071-10.998-10.984-37.071-32.466-37.071-74.349v-66.866c11.641 4.127 20 15.249 20 28.286v40c0 5.522 4.478 10 10 10s10-4.478 10-10v-180c0-5.514 4.486-10 10-10s10 4.486 10 10v120c0 5.522 4.478 10 10 10s10-4.478 10-10v-40c0-5.514 4.486-10 10-10s10 4.486 10 10v40c0 5.522 4.478 10 10 10s10-4.478 10-10v-40c0-5.514 4.486-10 10-10s10 4.486 10 10v40c0 5.522 4.478 10 10 10s10-4.478 10-10v-20c0-5.514 4.486-10 10-10s10 4.486 10 10z"/><path d="m442 0c-38.66 0-70 31.321-70 70 0 38.511 31.24 70 70 70 38.511 0 70-31.24 70-70 0-38.671-31.321-70-70-70zm41.722 97.579-27.579-27.579 27.579-27.579c5.384 8.113 8.278 17.625 8.278 27.579 0 9.956-2.895 19.468-8.278 27.579zm-14.143-69.3-27.579 27.578-27.579-27.579c8.113-5.384 17.624-8.278 27.579-8.278 9.954 0 19.466 2.894 27.579 8.279zm-69.3 69.3c-5.385-8.113-8.279-17.624-8.279-27.579 0-9.956 2.895-19.468 8.278-27.579l27.579 27.579zm14.142 14.143 27.579-27.579 27.579 27.579c-8.113 5.384-17.624 8.278-27.579 8.278-9.956 0-19.468-2.895-27.579-8.278z"/><circle cx="10" cy="276" r="10"/></g></g></svg>