<svg id="Capa_1" enable-background="new 0 0 512 512" height="512" viewBox="0 0 512 512" width="512" xmlns="http://www.w3.org/2000/svg"><g><g><path d="m416 462v20c0 11.05-8.95 20-20 20h-200c-11.05 0-20-8.95-20-20v-20c0-11.05 8.95-20 20-20h200c11.05 0 20 8.95 20 20z" fill="#ff7d97"/><path d="m416 230v20c0 11.05-8.95 20-20 20h-200c-11.05 0-20-8.95-20-20v-20c0-11.05 8.95-20 20-20h200c11.05 0 20 8.95 20 20z" fill="#ff7d97"/><path d="m396 270v172h-200v-172z" fill="#eefaff"/><path d="m336 170 40-120s-22.36 20.73-50.85 20.73c-37.19 0-31.6-20.73-69.15-20.73-34.93 0-40 20-40 20l40 100h-60v40h200v-40z" fill="#eefaff"/><path d="m336 336v40h-20v20h-40v-20h-20v-40h20v-20h40v20z" fill="#ff7d97"/><path d="m176 10v120h-20c-11.05 0-20-8.95-20-20v-80c0-11.05 8.95-20 20-20z" fill="#eefaff"/></g><g><path d="m336 326h-10v-10c0-5.522-4.477-10-10-10h-40c-5.523 0-10 4.478-10 10v10h-10c-5.523 0-10 4.478-10 10v40c0 5.522 4.477 10 10 10h10v10c0 5.522 4.477 10 10 10h40c5.523 0 10-4.478 10-10v-10h10c5.523 0 10-4.478 10-10v-40c0-5.522-4.477-10-10-10zm-10 40h-10c-5.523 0-10 4.478-10 10v10h-20v-10c0-5.522-4.477-10-10-10h-10v-20h10c5.523 0 10-4.478 10-10v-10h20v10c0 5.522 4.477 10 10 10h10z"/><circle cx="296" cy="502" r="10"/><path d="m426 250v-20c0-13.036-8.361-24.152-20-28.28v-31.72c0-5.522-4.477-10-10-10h-46.126l35.613-106.838c1.444-4.333-.23-9.094-4.07-11.567-3.839-2.476-8.867-2.034-12.216 1.072-.195.181-19.764 18.063-44.051 18.063-15.577 0-21.465-3.841-28.919-8.703-8.642-5.637-18.438-12.027-40.231-12.027-42.226 0-49.408 26.418-49.693 27.543-.52 2.049-.376 4.209.409 6.171l34.514 86.286c-3.401 0-121.713 0-125.23 0-5.514 0-10-4.486-10-10s4.486-10 10-10h60c5.523 0 10-4.478 10-10v-120c0-5.522-4.477-10-10-10h-20c-16.542 0-30 13.458-30 30v80c0 3.506.61 6.87 1.72 10h-11.72c-16.542 0-30 13.458-30 30s13.458 30 30 30h70v21.72c-11.639 4.128-20 15.243-20 28.28v20c0 13.037 8.359 24.159 20 28.286v155.428c-11.641 4.127-20 15.249-20 28.286v20c0 16.542 13.458 30 30 30h55c5.523 0 10-4.478 10-10s-4.477-10-10-10h-55c-5.514 0-10-4.486-10-10v-20c0-5.514 4.486-10 10-10h200c5.514 0 10 4.486 10 10v20c0 5.514-4.486 10-10 10h-55c-5.523 0-10 4.478-10 10s4.477 10 10 10h55c16.542 0 30-13.458 30-30v-20c0-13.037-8.359-24.159-20-28.286v-155.428c11.641-4.127 20-15.249 20-28.286zm-280-140v-80c0-5.514 4.486-10 10-10h10v100h-10c-5.514 0-10-4.486-10-10zm60 170h180v152h-180zm180-80h-180v-20h180zm-159.083-129.634c2.621-3.705 9.988-10.366 29.083-10.366 15.847 0 21.785 3.874 29.304 8.778 8.588 5.603 18.323 11.952 39.846 11.952 12.224 0 23.361-3.266 32.519-7.358l-28.877 86.628h-25.585l-17.721-53.162c-1.747-5.239-7.412-8.071-12.649-6.325-5.24 1.747-8.071 7.41-6.325 12.649l15.614 46.838h-19.356zm-40.917 159.634c0-5.514 4.486-10 10-10h200c5.514 0 10 4.486 10 10v20c0 5.514-4.486 10-10 10h-200c-5.514 0-10-4.486-10-10z"/></g></g></svg>