<svg id="Capa_1" enable-background="new 0 0 512 512" height="512" viewBox="0 0 512 512" width="512" xmlns="http://www.w3.org/2000/svg"><g><g><path d="m10 36h492v320h-492z" fill="#99ebfa"/><path d="m176 76c-33.14 0-60 26.86-60 60v20h120v-20c0-33.14-26.86-60-60-60z" fill="#fff2a0"/><path d="m416 156c0 22.047-17.875 40-40 40-22.132 0-40-17.959-40-40 0-22.047 17.875-40 40-40 22.132 0 40 17.959 40 40z" fill="#a0e5a5"/><path d="m196 356c6.677-33.385 13.324-66.619 20-100h20c33.14 0 60 26.86 60 60v40c-31.45 0-68.003 0-100 0z" fill="#ff7d97"/><path d="m196 116c-12.26 24.51-37.31 40-64.72 40h-15.28v20.01c0 26.12 16.7 48.34 40 56.58v23.41h-20l8 40h64l8-40h-20v-23.41c23.31-8.24 40-30.46 40-56.59v-20c-22.09 0-40-17.91-40-40z" fill="#fce8d0"/><path d="m196 356 12-60h-64l12 60c-35.394 0-110.565 0-146 0v40h206v80h80v-80h206v-40c-32.8 0-273.057 0-306 0z" fill="#eefaff"/><path d="m53 356v-40c0-33.14 26.86-60 60-60h23c6.676 33.381 13.323 66.615 20 100-23.328 0-80.219 0-103 0z" fill="#ff7d97"/></g><g><circle cx="416" cy="276" r="10"/><circle cx="376" cy="156" r="10"/><circle cx="376" cy="276" r="10"/><circle cx="336" cy="276" r="10"/><path d="m305.38 173.68c-2.762-4.782-8.876-6.421-13.66-3.66-4.783 2.762-6.422 8.877-3.66 13.66l20 34.641c2.771 4.798 8.891 6.414 13.66 3.66 4.783-2.762 6.422-8.877 3.66-13.66l-5.001-8.662 18.205-10.513c7.18 8.084 16.829 13.656 27.416 15.832v21.022h-10c-5.522 0-10 4.478-10 10s4.478 10 10 10h40c5.522 0 10-4.478 10-10s-4.478-10-10-10h-10v-21.023c10.587-2.176 20.237-7.748 27.417-15.832l18.204 10.514-5.001 8.662c-2.762 4.783-1.123 10.898 3.66 13.66 4.774 2.756 10.892 1.133 13.66-3.66l20-34.641c2.762-4.783 1.123-10.898-3.66-13.66-4.784-2.762-10.898-1.123-13.66 3.66l-5 8.659-18.197-10.509c1.694-5.084 2.577-10.431 2.577-15.83s-.883-10.746-2.576-15.83l18.197-10.509 5 8.659c2.771 4.798 8.891 6.414 13.66 3.66 4.783-2.762 6.422-8.877 3.66-13.66l-20-34.641c-2.761-4.781-8.877-6.422-13.66-3.66s-6.422 8.877-3.66 13.66l5.001 8.662-18.205 10.513c-7.18-8.084-16.829-13.656-27.416-15.832v-21.022h10c5.522 0 10-4.478 10-10s-4.478-10-10-10h-40c-5.522 0-10 4.478-10 10s4.478 10 10 10h10v21.023c-10.587 2.176-20.237 7.748-27.417 15.832l-18.204-10.514 5.001-8.662c2.762-4.783 1.123-10.898-3.66-13.66-4.784-2.762-10.898-1.123-13.66 3.66l-20 34.641c-2.762 4.783-1.123 10.898 3.66 13.66 4.774 2.756 10.892 1.133 13.66-3.66l5-8.659 18.197 10.509c-1.695 5.084-2.578 10.431-2.578 15.83s.883 10.746 2.576 15.83l-18.197 10.509zm70.62-47.68c16.439 0 30 13.347 30 30 0 16.641-13.55 30-30 30-16.439 0-30-13.347-30-30 0-16.641 13.55-30 30-30z"/><path d="m336 326h80c5.522 0 10-4.478 10-10s-4.478-10-10-10h-80c-5.522 0-10 4.478-10 10s4.478 10 10 10z"/><circle cx="256" cy="36" r="10"/><path d="m502 26h-201c-5.522 0-10 4.478-10 10s4.478 10 10 10h191v300h-186v-30c0-38.598-31.402-70-70-70-11.496 0-19.041 0-30 0v-6.747c24.188-11.483 40-36.061 40-63.253v-40c0-38.598-31.402-70-70-70s-70 31.402-70 70v40.01c0 27.181 15.811 51.755 40 63.242v6.748c-7.1 0-24.994 0-33 0-38.598 0-70 31.402-70 70v30h-23v-300h191c5.523 0 10-4.478 10-10s-4.477-10-10-10h-201c-5.523 0-10 4.478-10 10v360c0 5.522 4.477 10 10 10h196v60h-30c-5.523 0-10 4.478-10 10s4.477 10 10 10h160c5.522 0 10-4.478 10-10s-4.478-10-10-10h-30v-60h196c5.522 0 10-4.478 10-10v-360c0-5.522-4.478-10-10-10zm-216 290v30h-20v-30c0-5.522-4.478-10-10-10s-10 4.478-10 10v30h-37.802c1.961-9.804 11.211-56.054 16-80h11.802c27.57 0 50 22.43 50 50zm-121.802 30-8-40h39.604l-8 40zm1.802-90v-10.723c3.297.472 6.634.723 10 .723s6.703-.251 10-.723v10.723c0 5.522 4.477 10 10 10h7.802l-4 20h-47.604l-4-20h7.802c5.523 0 10-4.478 10-10zm10-170c27.57 0 50 22.43 50 50v8.28c-11.639-4.128-20-15.243-20-28.28 0-4.638-3.188-8.666-7.702-9.732-4.515-1.063-9.167 1.11-11.242 5.259-10.636 21.263-32.008 34.473-55.776 34.473h-5.28v-10c0-27.57 22.43-50 50-50zm-50 90.01v-10.01h5.28c23.517 0 45.257-9.79 60.59-26.509 6.913 12.932 19.347 22.484 34.13 25.498v11.011c0 27.274-22.064 50-50 50-27.872 0-50-22.662-50-49.99zm-63 139.99c0-27.57 22.43-50 50-50h14.802c4.791 23.954 14.037 70.184 16 80h-40.802v-30c0-5.522-4.477-10-10-10s-10 4.478-10 10v30h-20zm223 150h-60v-60h60zm-266-80v-20h472v20z"/></g></g></svg>