<svg id="Capa_1" enable-background="new 0 0 512 512" height="512" viewBox="0 0 512 512" width="512" xmlns="http://www.w3.org/2000/svg"><g><g><circle cx="256" cy="256" fill="#a0e5a5" r="120"/><g fill="#fff2a0"><circle cx="296" cy="296" r="20"/><circle cx="216" cy="216" r="20"/></g></g><g><circle cx="336" cy="246" r="10"/><circle cx="276" cy="176" r="10"/><circle cx="236" cy="336" r="10"/><circle cx="176" cy="276" r="10"/><path d="m216 246c16.542 0 30-13.458 30-30s-13.458-30-30-30-30 13.458-30 30 13.458 30 30 30zm0-40c5.514 0 10 4.486 10 10s-4.486 10-10 10-10-4.486-10-10 4.486-10 10-10z"/><path d="m296 326c16.542 0 30-13.458 30-30s-13.458-30-30-30-30 13.458-30 30 13.458 30 30 30zm0-40c5.514 0 10 4.486 10 10s-4.486 10-10 10-10-4.486-10-10 4.486-10 10-10z"/><circle cx="430" cy="430" r="10"/><path d="m256 0c-141.581 0-256 114.382-256 256 0 141.459 114.495 256 256 256 52.164 0 102.336-15.56 145.091-44.997 4.549-3.132 5.697-9.358 2.565-13.907-3.131-4.549-9.359-5.695-13.907-2.565-39.404 27.129-85.653 41.469-133.749 41.469-59.746 0-116.06-22.012-159.686-62.172l32.411-32.411 21.213 21.213c3.907 3.905 10.236 3.904 14.143 0 3.905-3.905 3.905-10.237 0-14.143l-21.213-21.213 28.55-28.55c21.02 18.072 46.932 28.806 74.583 30.896v40.38h-30c-5.522 0-10 4.478-10 10s4.478 10 10 10h80c5.522 0 10-4.478 10-10s-4.478-10-10-10h-30v-40.379c27.651-2.089 53.565-12.824 74.583-30.895l28.55 28.55-21.212 21.212c-3.906 3.904-3.907 10.236-.003 14.142 3.902 3.904 10.235 3.91 14.142.003l56.572-56.572c3.904-3.905 3.903-10.237-.003-14.142-3.905-3.905-10.238-3.904-14.142.003l-21.212 21.212-28.55-28.55c18.072-21.02 28.806-46.932 30.895-74.583h40.379v30c0 5.522 4.478 10 10 10s10-4.478 10-10v-80c0-5.522-4.478-10-10-10s-10 4.478-10 10v30h-40.38c-2.089-27.651-12.824-53.565-30.895-74.583l28.55-28.55 21.213 21.213c3.907 3.905 10.236 3.904 14.143 0 3.905-3.905 3.905-10.237 0-14.143l-21.213-21.213 32.407-32.407c40.163 43.631 62.175 99.943 62.175 159.682 0 48.094-14.34 94.344-41.47 133.749-3.132 4.549-1.983 10.775 2.565 13.907 4.55 3.131 10.775 1.982 13.907-2.565 29.438-42.757 44.998-92.928 44.998-145.091 0-141.542-114.368-256-256-256zm0 146c26.027 0 50.664 8.981 70.388 25.469l-154.919 154.919c-16.487-19.721-25.469-44.359-25.469-70.388 0-60.778 49.184-110 110-110zm110 110c0 60.778-49.184 110-110 110-26.027 0-50.664-8.981-70.388-25.469l154.919-154.919c16.487 19.721 25.469 44.359 25.469 70.388zm-18.081-148.488 21.213 21.213-28.55 28.55c-21.02-18.072-46.932-28.806-74.583-30.896v-40.379h30c5.522 0 10-4.478 10-10s-4.478-10-10-10h-80c-5.522 0-10 4.478-10 10s4.478 10 10 10h30v40.379c-27.651 2.089-53.565 12.824-74.583 30.895l-28.55-28.55 21.215-21.215c3.904-3.905 3.903-10.237-.003-14.142-3.905-3.904-10.238-3.905-14.142.003l-56.566 56.566c-3.906 3.904-3.907 10.236-.003 14.142 3.902 3.904 10.235 3.91 14.142.003l21.215-21.215 28.55 28.55c-18.072 21.02-28.806 46.932-30.895 74.583h-40.379v-30c0-5.522-4.478-10-10-10s-10 4.478-10 10v80c0 5.522 4.478 10 10 10s10-4.478 10-10v-30h40.38c2.089 27.651 12.824 53.565 30.895 74.583l-28.55 28.55-21.213-21.213c-3.906-3.904-10.236-3.904-14.143 0-3.905 3.905-3.905 10.237 0 14.143l21.213 21.213-32.407 32.407c-40.163-43.631-62.175-99.943-62.175-159.682 0-130.131 105.869-236 236-236 59.747 0 116.059 22.011 159.682 62.175l-32.407 32.407-21.213-21.213c-3.906-3.904-10.236-3.904-14.143 0-3.905 3.905-3.905 10.237 0 14.143z"/></g></g></svg>