<svg id="Capa_1" enable-background="new 0 0 512 512" height="512" viewBox="0 0 512 512" width="512" xmlns="http://www.w3.org/2000/svg"><g><g><path d="m321.973 10c99.25 0 180 80.75 180 180s-80.75 180-180 180c-42.43 0-81.48-14.76-112.29-39.43-10.44-8.35-19.93-17.84-28.28-28.28-24.67-30.81-39.43-69.86-39.43-112.29 0-99.25 80.75-180 180-180z" fill="#ff7d97"/><path d="m351.123 52.96c63.25 13.53 110.85 69.83 110.85 137.04 0 77.2-62.8 140-140 140s-140-62.8-140-140c0-86.73 79.26-155.28 169.15-137.04z" fill="#eefaff"/><path d="m381.973 190c0 33.138-26.859 60-60 60-33.138 0-60-26.859-60-60 0-33.138 26.859-60 60-60 33.138 0 60 26.859 60 60z" fill="#a0e5a5"/><circle cx="321.973" cy="190" fill="#fff2a0" r="20"/><path d="m143.819 317.858h60.599v39.994h-60.599z" fill="#eefaff" transform="matrix(.707 -.707 .707 .707 -187.902 222.077)"/><path d="m180.973 387.56-103.05 102.73c-17.18 17.17-46.09 15.46-60.93-5.14-11.64-16.17-8.21-38.85 5.88-52.94l101.54-101.21c17.657 17.657 40.009 40.009 56.56 56.56z" fill="#a0e5a5"/></g><g><path d="m321.973 40.044c-83.198.147-150 67.44-150 149.956 0 82.71 67.29 150 150 150s150-67.29 150-150c0-80.842-65.41-150.106-150-149.956zm0 279.956c-71.683 0-130-58.317-130-130 0-71.478 57.908-129.95 130.304-129.95 72.984 0 129.696 60.227 129.696 129.95 0 71.683-58.317 130-130 130z"/><path d="m321.973 160c-16.542 0-30 13.458-30 30s13.458 30 30 30 30-13.458 30-30-13.458-30-30-30zm0 40c-5.514 0-10-4.486-10-10s4.486-10 10-10 10 4.486 10 10-4.486 10-10 10z"/><path d="m421.973 160c-5.522 0-10 4.478-10 10v10h-20.713c-1.652-11.615-6.175-22.535-13.221-31.923l14.644-14.644 7.068 7.068c3.907 3.905 10.236 3.904 14.143 0 3.905-3.905 3.905-10.237 0-14.143l-28.279-28.279c-3.906-3.904-10.236-3.904-14.143 0-3.905 3.905-3.905 10.237 0 14.143l7.068 7.068-14.644 14.644c-9.386-7.046-20.307-11.569-31.923-13.221v-20.713h10c5.522 0 10-4.478 10-10s-4.478-10-10-10h-40c-5.522 0-10 4.478-10 10s4.478 10 10 10h10v20.713c-11.615 1.652-22.535 6.175-31.923 13.221l-14.644-14.644 7.068-7.068c3.905-3.905 3.905-10.237 0-14.143-3.906-3.904-10.236-3.904-14.143 0l-28.279 28.279c-3.905 3.905-3.905 10.237 0 14.143 3.907 3.905 10.236 3.904 14.143 0l7.068-7.068 14.644 14.644c-7.046 9.386-11.569 20.307-13.221 31.923h-20.713v-10c0-5.522-4.478-10-10-10s-10 4.478-10 10v40c0 5.522 4.478 10 10 10s10-4.478 10-10v-10h20.713c1.652 11.615 6.175 22.535 13.221 31.923l-14.644 14.644-7.068-7.068c-3.906-3.904-10.236-3.904-14.143 0-3.905 3.905-3.905 10.237 0 14.143l28.279 28.279c3.907 3.905 10.236 3.904 14.143 0 3.905-3.905 3.905-10.237 0-14.143l-7.068-7.068 14.644-14.644c9.386 7.046 20.307 11.569 31.923 13.221v20.713h-10c-5.522 0-10 4.478-10 10s4.478 10 10 10h40c5.522 0 10-4.478 10-10s-4.478-10-10-10h-10v-20.713c11.615-1.652 22.535-6.175 31.923-13.221l14.644 14.644-7.068 7.068c-3.905 3.905-3.905 10.237 0 14.143 3.907 3.905 10.236 3.904 14.143 0l28.279-28.279c3.905-3.905 3.905-10.237 0-14.143-3.906-3.904-10.236-3.904-14.143 0l-7.068 7.068-14.644-14.644c7.046-9.386 11.569-20.307 13.221-31.923h20.713v10c0 5.522 4.478 10 10 10s10-4.478 10-10v-40c0-5.522-4.477-10-10-10zm-100 80c-27.592 0-50-22.323-50-50 0-27.592 22.323-50 50-50 27.592 0 50 22.323 50 50 0 27.592-22.323 50-50 50z"/><circle cx="449.173" cy="317.2" r="10"/><path d="m321.973 0c-104.767 0-190 85.233-190 190 0 39.925 12.797 79.135 36.185 111.392l-29.605 29.605-7.068-7.068c-3.902-3.9-10.225-3.906-14.131-.012l-101.552 101.222c-18.01 18.009-20.987 46.319-6.923 65.857 18.388 25.525 54.517 27.95 76.104 6.376l103.05-102.73c3.913-3.901 3.919-10.243.011-14.153l-7.068-7.068 29.605-29.605c32.26 23.388 71.469 36.184 111.392 36.184 34.111 0 67.591-9.187 96.82-26.566 4.747-2.823 6.308-8.959 3.485-13.706s-8.96-6.306-13.706-3.485c-26.138 15.542-56.084 23.757-86.599 23.757-93.223 0-170-75.672-170-170 0-93.738 76.262-170 170-170s170 76.262 170 170c0 30.515-8.215 60.461-23.758 86.6-2.822 4.747-1.262 10.883 3.485 13.706 4.747 2.821 10.884 1.262 13.706-3.485 17.38-29.229 26.566-62.709 26.566-96.82.001-104.768-85.232-190.001-189.999-190.001zm-251.119 483.217c-12.708 12.7-34.4 11.839-45.745-3.908-8.397-11.666-6.318-28.874 4.824-40.016l94.469-94.162 42.418 42.418zm81.842-138.077 28.114-28.114c4.462 4.954 9.184 9.677 14.138 14.137l-28.115 28.115z"/></g></g></svg>