<svg id="Capa_1" enable-background="new 0 0 512 512" height="512" viewBox="0 0 512 512" width="512" xmlns="http://www.w3.org/2000/svg"><g><g><path d="m170 110c0 33.138-26.859 60-60 60-33.138 0-60-26.859-60-60 0-33.138 26.859-60 60-60 33.138 0 60 26.859 60 60z" fill="#a0e5a5"/><path d="m434.17 262c-11.85 0-23.43-3.51-33.29-10.08l-29.76-19.84c-9.86-6.57-21.44-10.08-33.29-10.08h-81.83c-11.05 0-20 8.95-20 20s8.95 20 20 20h-60c-11.05 0-20 8.95-20 20s8.95 20 20 20h-21.83c-11.85 0-23.43 3.51-33.29 10.08l-29.76 19.84c-9.86 6.57-21.44 10.08-33.29 10.08h-67.83v120h67.83c11.85 0 23.43 3.51 33.29 10.08l29.76 19.84c9.86 6.57 21.44 10.08 33.29 10.08h121.83c11.05 0 20-8.95 20-20s-8.95-20-20-20h40c11.05 0 20-8.95 20-20s-8.95-20-20-20h20c8.32 0 15.45-5.08 18.47-12.31l26.41-17.61c9.86-6.57 21.44-10.08 33.29-10.08h67.83v-120z" fill="#fce8d0"/><circle cx="110" cy="110" fill="#fff2a0" r="20"/></g><g><path d="m110 140c16.542 0 30-13.458 30-30s-13.458-30-30-30-30 13.458-30 30 13.458 30 30 30zm0-40c5.514 0 10 4.486 10 10s-4.486 10-10 10-10-4.486-10-10 4.486-10 10-10z"/><path d="m10 140c5.523 0 10-4.478 10-10v-10h20.713c1.652 11.614 6.174 22.534 13.221 31.923l-14.644 14.645-7.069-7.069c-3.905-3.904-10.237-3.904-14.142 0-3.905 3.905-3.905 10.237 0 14.143l28.28 28.279c3.906 3.905 10.237 3.904 14.142 0 3.905-3.905 3.905-10.237 0-14.143l-7.069-7.068 14.644-14.644c9.387 7.046 20.308 11.569 31.924 13.221v20.713h-10c-5.523 0-10 4.478-10 10s4.477 10 10 10h40c5.523 0 10-4.478 10-10s-4.477-10-10-10h-10v-20.713c11.614-1.652 22.535-6.175 31.923-13.222l14.644 14.645-7.069 7.068c-3.905 3.905-3.906 10.237 0 14.143 3.906 3.905 10.237 3.905 14.142 0l28.28-28.279c3.905-3.905 3.906-10.237 0-14.143-3.906-3.903-10.237-3.903-14.142 0l-7.069 7.069-14.644-14.644c7.046-9.387 11.569-20.308 13.221-31.923h20.714v10c0 5.522 4.477 10 10 10s10-4.478 10-10v-40.001c0-5.522-4.477-10-10-10s-10 4.478-10 10v10h-20.713c-1.652-11.614-6.174-22.534-13.221-31.923l14.645-14.645 7.069 7.069c3.906 3.905 10.237 3.904 14.142 0 3.905-3.905 3.905-10.237 0-14.143l-28.28-28.279c-3.905-3.904-10.237-3.904-14.142 0-3.905 3.905-3.905 10.237 0 14.143l7.069 7.068-14.644 14.644c-9.387-7.046-20.308-11.569-31.924-13.221v-20.713h10c5.523 0 10-4.478 10-10s-4.477-10-10-10h-40.001c-5.523 0-10 4.478-10 10s4.477 10 10 10h10v20.713c-11.614 1.652-22.535 6.175-31.923 13.222l-14.645-14.645 7.069-7.068c3.905-3.905 3.906-10.237 0-14.143-3.905-3.903-10.237-3.903-14.142 0l-28.28 28.279c-3.905 3.905-3.906 10.237 0 14.143 3.906 3.905 10.237 3.905 14.142 0l7.069-7.069 14.644 14.644c-7.046 9.388-11.569 20.308-13.221 31.924h-20.713v-10c0-5.522-4.477-10-10-10s-10 4.478-10 10v40c0 5.522 4.477 10 10 10zm100-80c27.587 0 50 22.316 50 50 0 27.699-22.426 50-50 50-27.587 0-50-22.316-50-50 0-27.699 22.426-50 50-50z"/><path d="m502 252h-67.83c-9.902 0-19.496-2.905-27.743-8.4l-29.762-19.842c-11.544-7.692-24.973-11.758-38.835-11.758h-81.83c-16.542 0-30 13.458-30 30 0 3.506.61 6.87 1.72 10h-31.72c-16.542 0-30 13.458-30 30 0 3.616.643 7.085 1.821 10.298-11.592 1.048-22.715 4.95-32.488 11.462l-29.758 19.839c-8.249 5.496-17.843 8.401-27.745 8.401h-67.83c-5.523 0-10 4.478-10 10v120c0 5.522 4.477 10 10 10h67.83c9.902 0 19.496 2.905 27.743 8.4l29.762 19.842c11.544 7.692 24.973 11.758 38.835 11.758h16.83c5.523 0 10-4.478 10-10s-4.477-10-10-10h-16.83c-9.902 0-19.496-2.905-27.743-8.4l-29.762-19.842c-11.544-7.692-24.973-11.758-38.835-11.758h-57.83v-100h57.83c13.862 0 27.291-4.066 38.837-11.76l29.758-19.839c8.249-5.496 17.843-8.401 27.745-8.401h81.83c5.514 0 10 4.486 10 10s-4.486 10-10 10c-13.99 0-26.01 0-40 0-3.788 0-7.251 2.141-8.945 5.528-18.02 36.05-54.204 34.956-67.828 34.541-1.29-.039-2.376-.069-3.227-.069-5.523 0-10 4.478-10 10s4.477 10 10 10h9.149c33.598 0 60.453-12.152 76.799-40h94.052c5.514 0 10 4.486 10 10s-4.486 10-10 10h-80c-5.523 0-10 4.478-10 10s4.477 10 10 10h120c5.514 0 10 4.486 10 10 0 5.581-4.515 10-10 10h-120c-5.523 0-10 4.478-10 10s4.477 10 10 10h100c5.514 0 10 4.486 10 10s-4.486 10-10 10h-100c-5.523 0-10 4.478-10 10s4.477 10 10 10h60c5.514 0 10 4.486 10 10s-4.486 10-10 10h-15c-5.523 0-10 4.478-10 10s4.477 10 10 10h15c16.542 0 30-13.458 30-30 0-3.506-.61-6.87-1.72-10h11.72c16.542 0 30-13.458 30-30 0-3.907-.759-7.638-2.124-11.064 7.745-2.099 14.376-7.239 18.345-14.394l24.203-16.14c8.249-5.496 17.843-8.401 27.745-8.401h67.831c5.523 0 10-4.478 10-10v-120.001c0-5.522-4.477-10-10-10zm-10 120h-57.83c-13.862 0-27.291 4.066-38.838 11.76l-11.311 7.542c-4.319-11.273-15.247-19.302-28.021-19.302h-11.72c1.11-3.13 1.72-6.494 1.72-10 0-16.542-13.458-30-30-30h-31.72c1.11-3.13 1.72-6.494 1.72-10 0-16.542-13.458-30-30-30h-60c-5.514 0-10-4.486-10-10s4.486-10 10-10h94.052c16.595 28.272 44.249 40 76.799 40h9.149c5.523 0 10-4.478 10-10s-4.477-10-10-10c-.851 0-1.937.03-3.228.069-13.627.413-49.808 1.508-67.828-34.541-1.693-3.387-5.156-5.528-8.944-5.528-13.99 0-26.01 0-40 0-5.514 0-10-4.486-10-10s4.486-10 10-10h81.83c9.902 0 19.496 2.905 27.743 8.4l29.762 19.842c11.544 7.692 24.973 11.758 38.835 11.758h57.83z"/><path d="m363.071 148.929c-3.905-3.904-10.237-3.904-14.143 0-3.905 3.905-3.905 10.237 0 14.143l40 40c3.906 3.905 10.237 3.905 14.143 0l40-40c3.905-3.905 3.905-10.237 0-14.143-3.905-3.904-10.237-3.904-14.143 0l-22.928 22.928v-21.857c0-27.57-22.43-50-50-50h-100c-5.523 0-10 4.478-10 10s4.477 10 10 10h100c16.542 0 30 13.458 30 30v21.857z"/><circle cx="236" cy="502" r="10"/></g></g></svg>