<svg id="Capa_1" enable-background="new 0 0 512 512" height="512" viewBox="0 0 512 512" width="512" xmlns="http://www.w3.org/2000/svg"><g><g><path d="m296 90c0 22.047-17.875 40-40 40-22.132 0-40-17.959-40-40 0-22.047 17.875-40 40-40 22.132 0 40 17.959 40 40z" fill="#a0e5a5"/><path d="m442 176h-40c-33.14 0-60 26.86-60 60v40h40v40h80v-40h40v-40c0-33.14-26.86-60-60-60z" fill="#fff2a0"/><path d="m502 276v80h-40c0-9.679 0-70.257 0-80z" fill="#fce8d0"/><path d="m382 502c0-39.718 0-123.97 0-186h80v186c-9.679 0-70.257 0-80 0z" fill="#8690a6"/><g fill="#fce8d0"><path d="m462 116v20c0 14.77-8.09 27.52-20 34.45v5.55c0 11.04-8.95 20-20 20s-20-8.96-20-20v-5.55c-11.91-6.93-20-19.68-20-34.45v-20c0-22.09 17.91-40 40-40s40 17.91 40 40z"/><path d="m382 356h-40v-80h40z"/><path d="m170 276v80h-40c0-9.679 0-70.257 0-80z"/></g><path d="m50 276h-40v-40c0-33.14 26.86-60 60-60 0 11.04 8.95 20 20 20s20-8.96 20-20c33.14 0 60 26.86 60 60v40h-40v40h-80z" fill="#a0e5a5"/><path d="m50 502c0-39.718 0-123.97 0-186h80v186c-9.679 0-70.257 0-80 0z" fill="#8690a6"/><path d="m130 116v20c0 14.77-8.09 27.52-20 34.45v5.55c0 11.04-8.95 20-20 20s-20-8.96-20-20v-5.55c-11.91-6.93-20-19.68-20-34.45v-20c0-22.09 17.91-40 40-40s40 17.91 40 40z" fill="#fce8d0"/><path d="m50 356h-40v-80h40z" fill="#fce8d0"/></g><g><circle cx="256" cy="90" r="10"/><path d="m127.921 168.335c7.655-8.926 12.079-20.371 12.079-32.335v-20c0-27.57-22.43-50-50-50s-50 22.43-50 50v20c0 11.964 4.424 23.409 12.079 32.335-29.942 7.937-52.079 35.26-52.079 67.665v120c0 5.522 4.477 10 10 10h30v136c0 5.522 4.477 10 10 10h80c5.523 0 10-4.478 10-10v-136h30c5.523 0 10-4.478 10-10v-120c0-32.405-22.137-59.728-52.079-67.665zm-67.921-52.335c0-16.542 13.458-30 30-30s30 13.458 30 30v20c0 10.684-5.619 20.331-15.03 25.807-3.077 1.791-4.97 5.083-4.97 8.644v5.549c0 5.514-4.486 10-10 10s-10-4.486-10-10v-5.55c0-3.561-1.893-6.853-4.97-8.644-9.411-5.475-15.03-15.122-15.03-25.806zm-40 230v-60h20v60zm100 146h-20v-18c0-5.522-4.477-10-10-10s-10 4.478-10 10v18h-20v-166h60zm20-146v-60h20v60zm20-80h-20v-30c0-5.522-4.477-10-10-10s-10 4.478-10 10v70h-60v-70c0-5.522-4.477-10-10-10s-10 4.478-10 10v30h-20v-30c0-24.833 18.201-45.488 41.962-49.345 4.307 11.296 15.248 19.345 28.038 19.345s23.731-8.049 28.038-19.345c23.761 3.857 41.962 24.512 41.962 49.345z"/><path d="m340.28 104.02c-4.785-2.762-10.898-1.122-13.66 3.66l-5 8.659-18.197-10.509c1.694-5.084 2.577-10.431 2.577-15.83s-.883-10.746-2.576-15.83l18.197-10.509 5 8.659c2.771 4.798 8.891 6.414 13.66 3.66 4.783-2.762 6.422-8.877 3.66-13.66l-20-34.641c-2.761-4.781-8.877-6.422-13.66-3.66s-6.422 8.877-3.66 13.66l5.001 8.662-18.205 10.513c-7.18-8.084-16.829-13.656-27.416-15.832v-21.022h10c5.522 0 10-4.478 10-10s-4.478-10-10-10h-40c-5.523 0-10 4.478-10 10s4.477 10 10 10h10v21.023c-10.587 2.176-20.236 7.748-27.416 15.832l-18.205-10.514 5.001-8.662c2.762-4.783 1.123-10.898-3.66-13.66-4.782-2.761-10.899-1.122-13.66 3.66-7.16 12.402-12.84 22.239-20 34.641-2.762 4.783-1.123 10.898 3.66 13.66 4.773 2.755 10.892 1.134 13.66-3.66l5-8.659 18.197 10.509c-1.695 5.083-2.578 10.431-2.578 15.83s.883 10.747 2.577 15.83l-18.197 10.509-5-8.659c-2.762-4.783-8.877-6.423-13.66-3.66-4.783 2.762-6.422 8.877-3.66 13.66 7.16 12.402 12.84 22.239 20 34.641 2.771 4.8 8.892 6.413 13.66 3.66 4.783-2.762 6.422-8.877 3.66-13.66l-5.001-8.662 18.204-10.513c7.18 8.084 16.829 13.656 27.416 15.832v21.022h-10c-5.523 0-10 4.478-10 10s4.477 10 10 10h40c5.522 0 10-4.478 10-10s-4.478-10-10-10h-10v-21.023c10.587-2.176 20.237-7.748 27.417-15.832l18.204 10.514-5.001 8.662c-2.762 4.783-1.123 10.898 3.66 13.66 4.774 2.756 10.892 1.133 13.66-3.66l20-34.641c2.763-4.784 1.124-10.899-3.659-13.66zm-84.28 15.98c-16.439 0-30-13.346-30-30 0-16.641 13.547-30 30-30 16.439 0 30 13.347 30 30 0 16.641-13.55 30-30 30z"/><path d="m459.921 168.335c7.655-8.926 12.079-20.371 12.079-32.335v-20c0-27.57-22.43-50-50-50s-50 22.43-50 50v20c0 11.964 4.424 23.409 12.079 32.335-29.943 7.937-52.079 35.26-52.079 67.665v120c0 5.522 4.478 10 10 10h30v136c0 5.522 4.478 10 10 10h80c5.522 0 10-4.478 10-10v-136h30c5.522 0 10-4.478 10-10v-120c0-32.405-22.136-59.728-52.079-67.665zm-67.921-52.335c0-16.542 13.458-30 30-30s30 13.458 30 30v20c0 10.684-5.618 20.331-15.029 25.807-3.077 1.791-4.971 5.083-4.971 8.644v5.549c0 5.514-4.486 10-10 10s-10-4.486-10-10v-5.55c0-3.561-1.894-6.853-4.971-8.644-9.411-5.475-15.029-15.122-15.029-25.806zm-40 230v-60h20v60zm100 146h-20v-136c0-5.522-4.478-10-10-10s-10 4.478-10 10v136h-20v-166h60zm20-146v-60h20v60zm20-80h-20v-30c0-5.522-4.478-10-10-10s-10 4.478-10 10v70h-60v-70c0-5.522-4.478-10-10-10s-10 4.478-10 10v30h-20v-30c0-24.833 18.201-45.488 41.962-49.345 4.307 11.296 15.248 19.345 28.038 19.345s23.731-8.049 28.038-19.345c23.761 3.857 41.962 24.512 41.962 49.345z"/><path d="m269.071 248.929c-3.906-3.904-10.236-3.904-14.143 0-3.905 3.905-3.905 10.237 0 14.143l22.929 22.928h-67.857c-5.523 0-10 4.478-10 10s4.477 10 10 10h67.857l-22.929 22.929c-3.905 3.905-3.905 10.237 0 14.143 3.907 3.905 10.236 3.904 14.143 0l40-40c3.905-3.905 3.905-10.237 0-14.143z"/><circle cx="90" cy="429" r="10"/><path d="m90 346c-5.523 0-10 4.478-10 10v28c0 5.522 4.477 10 10 10s10-4.478 10-10v-28c0-5.522-4.477-10-10-10z"/></g></g></svg>