<svg id="Capa_1" enable-background="new 0 0 512 512" height="512" viewBox="0 0 512 512" width="512" xmlns="http://www.w3.org/2000/svg"><g><g><path d="m283.14 423.03-1.14-.74h-52l-1.14.74c-53.2 4.1-92.86 19.99-92.86 38.97 0 22.09 53.73 40 120 40s120-17.91 120-40c0-18.98-39.66-34.87-92.86-38.97z" fill="#a0e5a5"/><path d="m416 170c0 33.95-10.57 65.43-28.61 91.33-5.843 8.923-125.732 192.028-131.39 200.67-5.66-8.644-125.548-191.748-131.39-200.67-18.04-25.9-28.61-57.38-28.61-91.33 0-88.37 71.63-160 160-160s160 71.63 160 160z" fill="#ff7d97"/><path d="m316 170c0 33.138-26.859 60-60 60-33.138 0-60-26.859-60-60 0-33.138 26.859-60 60-60 33.138 0 60 26.859 60 60z" fill="#a0e5a5"/><circle cx="256" cy="170" fill="#fff2a0" r="20"/></g><g><path d="m347.921 219.499c-3.906-3.904-10.236-3.904-14.143 0l-7.068 7.068-14.644-14.644c7.046-9.386 11.569-20.307 13.221-31.923h20.713v10c0 5.522 4.478 10 10 10s10-4.478 10-10v-40c0-5.522-4.478-10-10-10s-10 4.478-10 10v10h-20.713c-1.652-11.615-6.175-22.535-13.221-31.923l14.644-14.644 7.068 7.068c3.907 3.905 10.236 3.904 14.143 0 3.905-3.905 3.905-10.237 0-14.143l-28.279-28.279c-3.906-3.904-10.236-3.904-14.143 0-3.905 3.905-3.905 10.237 0 14.143l7.068 7.068-14.644 14.644c-9.387-7.046-20.307-11.569-31.923-13.221v-20.713h10c5.522 0 10-4.478 10-10s-4.478-10-10-10h-40c-5.522 0-10 4.478-10 10s4.478 10 10 10h10v20.713c-11.615 1.652-22.535 6.175-31.923 13.221l-14.644-14.644 7.068-7.068c3.905-3.905 3.905-10.237 0-14.143-3.906-3.904-10.236-3.904-14.143 0l-28.279 28.279c-3.905 3.905-3.905 10.237 0 14.143 3.907 3.905 10.236 3.904 14.143 0l7.068-7.068 14.644 14.644c-7.046 9.386-11.569 20.307-13.221 31.923h-20.713v-10c0-5.522-4.478-10-10-10s-10 4.478-10 10v40c0 5.522 4.478 10 10 10s10-4.478 10-10v-10h20.713c1.652 11.615 6.175 22.535 13.221 31.923l-14.644 14.644-7.068-7.068c-3.906-3.904-10.236-3.904-14.143 0-3.905 3.905-3.905 10.237 0 14.143l28.279 28.279c3.907 3.905 10.236 3.904 14.143 0 3.905-3.905 3.905-10.237 0-14.143l-7.068-7.068 14.644-14.644c9.387 7.046 20.307 11.569 31.923 13.221v20.713h-10c-5.522 0-10 4.478-10 10s4.478 10 10 10h40c5.522 0 10-4.478 10-10s-4.478-10-10-10h-10v-20.713c11.615-1.652 22.535-6.175 31.923-13.221l14.644 14.644-7.068 7.068c-3.905 3.905-3.905 10.237 0 14.143 3.907 3.905 10.236 3.904 14.143 0l28.279-28.279c3.905-3.906 3.905-10.238 0-14.143zm-91.921.501c-27.592 0-50-22.323-50-50 0-27.592 22.323-50 50-50 27.592 0 50 22.323 50 50 0 27.592-22.323 50-50 50z"/><path d="m256 140c-16.542 0-30 13.458-30 30s13.458 30 30 30 30-13.458 30-30-13.458-30-30-30zm0 40c-5.514 0-10-4.486-10-10s4.486-10 10-10 10 4.486 10 10-4.486 10-10 10z"/><circle cx="336" cy="341" r="10"/><path d="m256 0c-93.738 0-170 76.262-170 170 0 34.881 10.485 68.396 30.322 96.927l96.674 147.65c-31.01 3.859-86.996 16.192-86.996 47.423 0 32.825 65.398 50 130 50s130-17.175 130-50c0-31.225-55.964-43.561-86.997-47.423l20.18-30.822c3.025-4.62 1.732-10.818-2.889-13.844-4.621-3.027-10.819-1.732-13.844 2.889l-46.45 70.944c-127.705-195.04-123.036-187.916-123.184-188.13-17.544-25.186-26.816-54.792-26.816-85.614 0-82.71 67.29-150 150-150s150 67.29 150 150c0 30.822-9.272 60.428-26.816 85.614-.055.079-27.451 41.919-27.451 41.919-3.025 4.62-1.732 10.818 2.889 13.844s10.819 1.732 13.844-2.889l27.213-41.562c19.836-28.53 30.321-62.045 30.321-96.926 0-93.738-76.262-170-170-170zm0 472c3.373 0 6.519-1.7 8.366-4.522l22.333-34.108c55.287 4.978 79.301 21.203 79.301 28.63 0 16.373-61.048 30-110 30-49.721 0-110-13.849-110-30 0-7.427 24.013-23.652 79.301-28.631l22.333 34.108c1.847 2.823 4.993 4.523 8.366 4.523z"/></g></g></svg>